%TF.GenerationSoftware,KiCad,Pcbnew,7.0.2*%
%TF.CreationDate,2023-05-30T18:58:33-07:00*%
%TF.ProjectId,TvMux,54764d75-782e-46b6-9963-61645f706362,rev?*%
%TF.SameCoordinates,Original*%
%TF.FileFunction,Copper,L4,Bot*%
%TF.FilePolarity,Positive*%
%FSLAX46Y46*%
G04 Gerber Fmt 4.6, Leading zero omitted, Abs format (unit mm)*
G04 Created by KiCad (PCBNEW 7.0.2) date 2023-05-30 18:58:33*
%MOMM*%
%LPD*%
G01*
G04 APERTURE LIST*
G04 Aperture macros list*
%AMRoundRect*
0 Rectangle with rounded corners*
0 $1 Rounding radius*
0 $2 $3 $4 $5 $6 $7 $8 $9 X,Y pos of 4 corners*
0 Add a 4 corners polygon primitive as box body*
4,1,4,$2,$3,$4,$5,$6,$7,$8,$9,$2,$3,0*
0 Add four circle primitives for the rounded corners*
1,1,$1+$1,$2,$3*
1,1,$1+$1,$4,$5*
1,1,$1+$1,$6,$7*
1,1,$1+$1,$8,$9*
0 Add four rect primitives between the rounded corners*
20,1,$1+$1,$2,$3,$4,$5,0*
20,1,$1+$1,$4,$5,$6,$7,0*
20,1,$1+$1,$6,$7,$8,$9,0*
20,1,$1+$1,$8,$9,$2,$3,0*%
G04 Aperture macros list end*
%TA.AperFunction,ComponentPad*%
%ADD10C,4.275000*%
%TD*%
%TA.AperFunction,ComponentPad*%
%ADD11C,2.880000*%
%TD*%
%TA.AperFunction,ComponentPad*%
%ADD12R,1.700000X1.700000*%
%TD*%
%TA.AperFunction,ComponentPad*%
%ADD13O,1.700000X1.700000*%
%TD*%
%TA.AperFunction,ComponentPad*%
%ADD14RoundRect,0.250000X-0.600000X-0.725000X0.600000X-0.725000X0.600000X0.725000X-0.600000X0.725000X0*%
%TD*%
%TA.AperFunction,ComponentPad*%
%ADD15O,1.700000X1.950000*%
%TD*%
%TA.AperFunction,ComponentPad*%
%ADD16O,1.900000X1.200000*%
%TD*%
%TA.AperFunction,ComponentPad*%
%ADD17C,1.450000*%
%TD*%
%TA.AperFunction,ViaPad*%
%ADD18C,0.800000*%
%TD*%
%TA.AperFunction,ViaPad*%
%ADD19C,0.450000*%
%TD*%
%TA.AperFunction,Conductor*%
%ADD20C,0.250000*%
%TD*%
%TA.AperFunction,Conductor*%
%ADD21C,0.175006*%
%TD*%
G04 APERTURE END LIST*
D10*
%TO.P,J3,MH1*%
%TO.N,N/C*%
X125725000Y-77750000D03*
%TO.P,J3,MH2*%
X125725000Y-92250000D03*
D11*
%TO.P,J3,MH3*%
X119765000Y-77750000D03*
%TO.P,J3,MH4*%
X119765000Y-92250000D03*
%TD*%
D12*
%TO.P,J1,1,Pin_1*%
%TO.N,GND*%
X157460000Y-64600000D03*
D13*
%TO.P,J1,2,Pin_2*%
%TO.N,Net-(J1-Pin_2)*%
X160000000Y-64600000D03*
%TO.P,J1,3,Pin_3*%
%TO.N,Net-(J1-Pin_3)*%
X162540000Y-64600000D03*
%TD*%
D14*
%TO.P,J2,1,Pin_1*%
%TO.N,GND*%
X164500000Y-76725000D03*
D15*
%TO.P,J2,2,Pin_2*%
%TO.N,WII_RX*%
X167000000Y-76725000D03*
%TO.P,J2,3,Pin_3*%
%TO.N,WII_TX*%
X169500000Y-76725000D03*
%TD*%
D16*
%TO.P,J4,6,Shield*%
%TO.N,unconnected-(J4-Shield-Pad6)*%
X116512500Y-98000000D03*
D17*
X119212500Y-99000000D03*
X119212500Y-104000000D03*
D16*
X116512500Y-105000000D03*
%TD*%
D18*
%TO.N,3V3*%
X164250000Y-104500000D03*
X134190000Y-63860000D03*
X144387500Y-102362500D03*
X123875000Y-67250000D03*
X123500000Y-72750000D03*
X126250000Y-104000000D03*
X159500000Y-88750000D03*
X118500000Y-66750000D03*
X154250000Y-101500000D03*
X116750000Y-73000000D03*
X165200000Y-62400000D03*
X129000000Y-63250000D03*
%TO.N,GND*%
X140500000Y-101500000D03*
X142250000Y-67500000D03*
X123600000Y-81400000D03*
X170500000Y-85500000D03*
X168750000Y-106750000D03*
X123500000Y-87500000D03*
X145000000Y-72750000D03*
X169500000Y-102250000D03*
X144000000Y-98000000D03*
X138750000Y-63250000D03*
X151000000Y-105000000D03*
X145250000Y-106250000D03*
X123500000Y-84500000D03*
X138250000Y-80500000D03*
X145000000Y-67000000D03*
X171500000Y-92000000D03*
X147250000Y-70000000D03*
X142500000Y-72250000D03*
X132500000Y-82750000D03*
X147125000Y-67625000D03*
X125750000Y-96750000D03*
X123500000Y-89000000D03*
X147125000Y-72125000D03*
X125500000Y-102400000D03*
X130000000Y-76400000D03*
X141820000Y-69930000D03*
X132475000Y-63725000D03*
X130000000Y-73600000D03*
X152600000Y-62600000D03*
X123500000Y-103500000D03*
X123500000Y-86000000D03*
D19*
%TO.N,WII_PAIR*%
X167200000Y-69400000D03*
X152200000Y-73200000D03*
%TO.N,CHIP_PU*%
X140500000Y-66250000D03*
X141000000Y-83600000D03*
%TO.N,USB_N*%
X140605328Y-98915451D03*
X143216343Y-99791558D03*
%TO.N,USB_P*%
X141394728Y-98925768D03*
X143300000Y-99046497D03*
%TO.N,HDMI_DDC_SDA*%
X129250000Y-82000000D03*
X126750000Y-70375000D03*
%TO.N,BOOT*%
X155500000Y-86000000D03*
X156000000Y-79306500D03*
%TO.N,RGB*%
X154500000Y-90500000D03*
X152250000Y-76250000D03*
%TO.N,U0_TXD*%
X150500000Y-66750000D03*
X148750000Y-95250000D03*
%TO.N,U0_RXD*%
X146900000Y-96150000D03*
X149000000Y-67000000D03*
%TO.N,Net-(Q5-E)*%
X146250000Y-90250000D03*
X148650000Y-96650000D03*
%TO.N,Net-(Q6-E)*%
X145400000Y-96150000D03*
X145000000Y-91000000D03*
%TO.N,Net-(U1-GPIO5)*%
X149600000Y-92000000D03*
X150000000Y-74600000D03*
%TD*%
D20*
%TO.N,WII_PAIR*%
X167200000Y-69400000D02*
X166600000Y-70000000D01*
X155400000Y-70000000D02*
X152200000Y-73200000D01*
X166600000Y-70000000D02*
X155400000Y-70000000D01*
%TO.N,CHIP_PU*%
X141000000Y-66750000D02*
X140500000Y-66250000D01*
X141000000Y-83600000D02*
X141000000Y-66750000D01*
D21*
%TO.N,USB_N*%
X141217803Y-99550000D02*
X140605328Y-98937525D01*
X142974785Y-99550000D02*
X141217803Y-99550000D01*
X143216343Y-99791558D02*
X142974785Y-99550000D01*
X140605328Y-98937525D02*
X140605328Y-98915451D01*
%TO.N,USB_P*%
X143300000Y-99046497D02*
X143202346Y-99046497D01*
X141600000Y-99284994D02*
X141394728Y-99079722D01*
X142963849Y-99284994D02*
X141600000Y-99284994D01*
X141394728Y-99079722D02*
X141394728Y-98925768D01*
X143202346Y-99046497D02*
X142963849Y-99284994D01*
D20*
%TO.N,HDMI_DDC_SDA*%
X126750000Y-70375000D02*
X126750000Y-71000000D01*
X126750000Y-71000000D02*
X128250000Y-72500000D01*
X128250000Y-81000000D02*
X129250000Y-82000000D01*
X128250000Y-72500000D02*
X128250000Y-81000000D01*
%TO.N,BOOT*%
X156000000Y-79306500D02*
X156250000Y-79556500D01*
X156250000Y-85250000D02*
X155500000Y-86000000D01*
X156250000Y-79556500D02*
X156250000Y-85250000D01*
%TO.N,RGB*%
X154500000Y-78500000D02*
X154500000Y-90500000D01*
X152250000Y-76250000D02*
X154500000Y-78500000D01*
%TO.N,U0_TXD*%
X148750000Y-95250000D02*
X148750000Y-68500000D01*
X148750000Y-68500000D02*
X150500000Y-66750000D01*
%TO.N,U0_RXD*%
X146900000Y-96150000D02*
X148250000Y-94800000D01*
X148250000Y-94800000D02*
X148250000Y-67750000D01*
X148250000Y-67750000D02*
X149000000Y-67000000D01*
%TO.N,Net-(Q5-E)*%
X146250000Y-90250000D02*
X146150000Y-90350000D01*
X146150000Y-96400000D02*
X146649000Y-96899000D01*
X146649000Y-96899000D02*
X148401000Y-96899000D01*
X146150000Y-90350000D02*
X146150000Y-96400000D01*
X148401000Y-96899000D02*
X148650000Y-96650000D01*
%TO.N,Net-(Q6-E)*%
X145000000Y-91000000D02*
X145150000Y-91150000D01*
X145150000Y-91150000D02*
X145150000Y-95900000D01*
X145150000Y-95900000D02*
X145400000Y-96150000D01*
%TO.N,Net-(U1-GPIO5)*%
X149600000Y-92000000D02*
X150000000Y-91600000D01*
X150000000Y-91600000D02*
X150000000Y-74600000D01*
%TD*%
M02*
