%TF.GenerationSoftware,KiCad,Pcbnew,7.0.2*%
%TF.CreationDate,2023-05-30T18:58:33-07:00*%
%TF.ProjectId,TvMux,54764d75-782e-46b6-9963-61645f706362,rev?*%
%TF.SameCoordinates,Original*%
%TF.FileFunction,Legend,Top*%
%TF.FilePolarity,Positive*%
%FSLAX46Y46*%
G04 Gerber Fmt 4.6, Leading zero omitted, Abs format (unit mm)*
G04 Created by KiCad (PCBNEW 7.0.2) date 2023-05-30 18:58:33*
%MOMM*%
%LPD*%
G01*
G04 APERTURE LIST*
%ADD10C,0.150000*%
%ADD11C,0.254000*%
%ADD12C,0.120000*%
%ADD13C,0.100000*%
%ADD14C,0.200000*%
G04 APERTURE END LIST*
D10*
X156300000Y-66800000D02*
X156300000Y-67200000D01*
X156300000Y-67200000D02*
X160900000Y-67200000D01*
X158600000Y-67200000D02*
X158600000Y-67600000D01*
X163600000Y-66600000D02*
X163600000Y-66200000D01*
X159000000Y-66200000D02*
X159000000Y-66600000D01*
X161500000Y-66600000D02*
X161500000Y-67600000D01*
X160900000Y-67200000D02*
X160900000Y-66800000D01*
X159000000Y-66600000D02*
X163600000Y-66600000D01*
X157738096Y-68170095D02*
X157890477Y-68170095D01*
X157890477Y-68170095D02*
X157966667Y-68208190D01*
X157966667Y-68208190D02*
X158042858Y-68284380D01*
X158042858Y-68284380D02*
X158080953Y-68436761D01*
X158080953Y-68436761D02*
X158080953Y-68703428D01*
X158080953Y-68703428D02*
X158042858Y-68855809D01*
X158042858Y-68855809D02*
X157966667Y-68932000D01*
X157966667Y-68932000D02*
X157890477Y-68970095D01*
X157890477Y-68970095D02*
X157738096Y-68970095D01*
X157738096Y-68970095D02*
X157661905Y-68932000D01*
X157661905Y-68932000D02*
X157585715Y-68855809D01*
X157585715Y-68855809D02*
X157547619Y-68703428D01*
X157547619Y-68703428D02*
X157547619Y-68436761D01*
X157547619Y-68436761D02*
X157585715Y-68284380D01*
X157585715Y-68284380D02*
X157661905Y-68208190D01*
X157661905Y-68208190D02*
X157738096Y-68170095D01*
X158690476Y-68551047D02*
X158423810Y-68551047D01*
X158423810Y-68970095D02*
X158423810Y-68170095D01*
X158423810Y-68170095D02*
X158804762Y-68170095D01*
X159376190Y-68551047D02*
X159109524Y-68551047D01*
X159109524Y-68970095D02*
X159109524Y-68170095D01*
X159109524Y-68170095D02*
X159490476Y-68170095D01*
X161004762Y-67970095D02*
X161157143Y-67970095D01*
X161157143Y-67970095D02*
X161233333Y-68008190D01*
X161233333Y-68008190D02*
X161309524Y-68084380D01*
X161309524Y-68084380D02*
X161347619Y-68236761D01*
X161347619Y-68236761D02*
X161347619Y-68503428D01*
X161347619Y-68503428D02*
X161309524Y-68655809D01*
X161309524Y-68655809D02*
X161233333Y-68732000D01*
X161233333Y-68732000D02*
X161157143Y-68770095D01*
X161157143Y-68770095D02*
X161004762Y-68770095D01*
X161004762Y-68770095D02*
X160928571Y-68732000D01*
X160928571Y-68732000D02*
X160852381Y-68655809D01*
X160852381Y-68655809D02*
X160814285Y-68503428D01*
X160814285Y-68503428D02*
X160814285Y-68236761D01*
X160814285Y-68236761D02*
X160852381Y-68084380D01*
X160852381Y-68084380D02*
X160928571Y-68008190D01*
X160928571Y-68008190D02*
X161004762Y-67970095D01*
X161690476Y-68770095D02*
X161690476Y-67970095D01*
X161690476Y-67970095D02*
X162147619Y-68770095D01*
X162147619Y-68770095D02*
X162147619Y-67970095D01*
X123547619Y-112562619D02*
X124119047Y-112562619D01*
X123833333Y-113562619D02*
X123833333Y-112562619D01*
X124357143Y-112895952D02*
X124595238Y-113562619D01*
X124595238Y-113562619D02*
X124833333Y-112895952D01*
X125214286Y-113562619D02*
X125214286Y-112562619D01*
X125214286Y-112562619D02*
X125547619Y-113276904D01*
X125547619Y-113276904D02*
X125880952Y-112562619D01*
X125880952Y-112562619D02*
X125880952Y-113562619D01*
X126785714Y-112895952D02*
X126785714Y-113562619D01*
X126357143Y-112895952D02*
X126357143Y-113419761D01*
X126357143Y-113419761D02*
X126404762Y-113515000D01*
X126404762Y-113515000D02*
X126500000Y-113562619D01*
X126500000Y-113562619D02*
X126642857Y-113562619D01*
X126642857Y-113562619D02*
X126738095Y-113515000D01*
X126738095Y-113515000D02*
X126785714Y-113467380D01*
X127166667Y-113562619D02*
X127690476Y-112895952D01*
X127166667Y-112895952D02*
X127690476Y-113562619D01*
X128833334Y-113181666D02*
X129595239Y-113181666D01*
X131404762Y-113562619D02*
X131071429Y-113086428D01*
X130833334Y-113562619D02*
X130833334Y-112562619D01*
X130833334Y-112562619D02*
X131214286Y-112562619D01*
X131214286Y-112562619D02*
X131309524Y-112610238D01*
X131309524Y-112610238D02*
X131357143Y-112657857D01*
X131357143Y-112657857D02*
X131404762Y-112753095D01*
X131404762Y-112753095D02*
X131404762Y-112895952D01*
X131404762Y-112895952D02*
X131357143Y-112991190D01*
X131357143Y-112991190D02*
X131309524Y-113038809D01*
X131309524Y-113038809D02*
X131214286Y-113086428D01*
X131214286Y-113086428D02*
X130833334Y-113086428D01*
X131785715Y-112657857D02*
X131833334Y-112610238D01*
X131833334Y-112610238D02*
X131928572Y-112562619D01*
X131928572Y-112562619D02*
X132166667Y-112562619D01*
X132166667Y-112562619D02*
X132261905Y-112610238D01*
X132261905Y-112610238D02*
X132309524Y-112657857D01*
X132309524Y-112657857D02*
X132357143Y-112753095D01*
X132357143Y-112753095D02*
X132357143Y-112848333D01*
X132357143Y-112848333D02*
X132309524Y-112991190D01*
X132309524Y-112991190D02*
X131738096Y-113562619D01*
X131738096Y-113562619D02*
X132357143Y-113562619D01*
X174281666Y-68047618D02*
X174281666Y-67285714D01*
X174662619Y-66809523D02*
X173662619Y-66809523D01*
X173662619Y-66809523D02*
X173662619Y-66428571D01*
X173662619Y-66428571D02*
X173710238Y-66333333D01*
X173710238Y-66333333D02*
X173757857Y-66285714D01*
X173757857Y-66285714D02*
X173853095Y-66238095D01*
X173853095Y-66238095D02*
X173995952Y-66238095D01*
X173995952Y-66238095D02*
X174091190Y-66285714D01*
X174091190Y-66285714D02*
X174138809Y-66333333D01*
X174138809Y-66333333D02*
X174186428Y-66428571D01*
X174186428Y-66428571D02*
X174186428Y-66809523D01*
X174376904Y-65857142D02*
X174376904Y-65380952D01*
X174662619Y-65952380D02*
X173662619Y-65619047D01*
X173662619Y-65619047D02*
X174662619Y-65285714D01*
X174662619Y-64952380D02*
X173662619Y-64952380D01*
X174662619Y-63904762D02*
X174186428Y-64238095D01*
X174662619Y-64476190D02*
X173662619Y-64476190D01*
X173662619Y-64476190D02*
X173662619Y-64095238D01*
X173662619Y-64095238D02*
X173710238Y-64000000D01*
X173710238Y-64000000D02*
X173757857Y-63952381D01*
X173757857Y-63952381D02*
X173853095Y-63904762D01*
X173853095Y-63904762D02*
X173995952Y-63904762D01*
X173995952Y-63904762D02*
X174091190Y-63952381D01*
X174091190Y-63952381D02*
X174138809Y-64000000D01*
X174138809Y-64000000D02*
X174186428Y-64095238D01*
X174186428Y-64095238D02*
X174186428Y-64476190D01*
X158085714Y-62281666D02*
X158847619Y-62281666D01*
X159276190Y-62615000D02*
X159419047Y-62662619D01*
X159419047Y-62662619D02*
X159657142Y-62662619D01*
X159657142Y-62662619D02*
X159752380Y-62615000D01*
X159752380Y-62615000D02*
X159799999Y-62567380D01*
X159799999Y-62567380D02*
X159847618Y-62472142D01*
X159847618Y-62472142D02*
X159847618Y-62376904D01*
X159847618Y-62376904D02*
X159799999Y-62281666D01*
X159799999Y-62281666D02*
X159752380Y-62234047D01*
X159752380Y-62234047D02*
X159657142Y-62186428D01*
X159657142Y-62186428D02*
X159466666Y-62138809D01*
X159466666Y-62138809D02*
X159371428Y-62091190D01*
X159371428Y-62091190D02*
X159323809Y-62043571D01*
X159323809Y-62043571D02*
X159276190Y-61948333D01*
X159276190Y-61948333D02*
X159276190Y-61853095D01*
X159276190Y-61853095D02*
X159323809Y-61757857D01*
X159323809Y-61757857D02*
X159371428Y-61710238D01*
X159371428Y-61710238D02*
X159466666Y-61662619D01*
X159466666Y-61662619D02*
X159704761Y-61662619D01*
X159704761Y-61662619D02*
X159847618Y-61710238D01*
X160276190Y-62138809D02*
X160609523Y-62138809D01*
X160752380Y-62662619D02*
X160276190Y-62662619D01*
X160276190Y-62662619D02*
X160276190Y-61662619D01*
X160276190Y-61662619D02*
X160752380Y-61662619D01*
X161038095Y-61662619D02*
X161609523Y-61662619D01*
X161323809Y-62662619D02*
X161323809Y-61662619D01*
X161942857Y-61662619D02*
X161942857Y-62472142D01*
X161942857Y-62472142D02*
X161990476Y-62567380D01*
X161990476Y-62567380D02*
X162038095Y-62615000D01*
X162038095Y-62615000D02*
X162133333Y-62662619D01*
X162133333Y-62662619D02*
X162323809Y-62662619D01*
X162323809Y-62662619D02*
X162419047Y-62615000D01*
X162419047Y-62615000D02*
X162466666Y-62567380D01*
X162466666Y-62567380D02*
X162514285Y-62472142D01*
X162514285Y-62472142D02*
X162514285Y-61662619D01*
X162990476Y-62662619D02*
X162990476Y-61662619D01*
X162990476Y-61662619D02*
X163371428Y-61662619D01*
X163371428Y-61662619D02*
X163466666Y-61710238D01*
X163466666Y-61710238D02*
X163514285Y-61757857D01*
X163514285Y-61757857D02*
X163561904Y-61853095D01*
X163561904Y-61853095D02*
X163561904Y-61995952D01*
X163561904Y-61995952D02*
X163514285Y-62091190D01*
X163514285Y-62091190D02*
X163466666Y-62138809D01*
X163466666Y-62138809D02*
X163371428Y-62186428D01*
X163371428Y-62186428D02*
X162990476Y-62186428D01*
%TO.C,D4*%
X122761905Y-99462619D02*
X122761905Y-98462619D01*
X122761905Y-98462619D02*
X123000000Y-98462619D01*
X123000000Y-98462619D02*
X123142857Y-98510238D01*
X123142857Y-98510238D02*
X123238095Y-98605476D01*
X123238095Y-98605476D02*
X123285714Y-98700714D01*
X123285714Y-98700714D02*
X123333333Y-98891190D01*
X123333333Y-98891190D02*
X123333333Y-99034047D01*
X123333333Y-99034047D02*
X123285714Y-99224523D01*
X123285714Y-99224523D02*
X123238095Y-99319761D01*
X123238095Y-99319761D02*
X123142857Y-99415000D01*
X123142857Y-99415000D02*
X123000000Y-99462619D01*
X123000000Y-99462619D02*
X122761905Y-99462619D01*
X124190476Y-98795952D02*
X124190476Y-99462619D01*
X123952381Y-98415000D02*
X123714286Y-99129285D01*
X123714286Y-99129285D02*
X124333333Y-99129285D01*
%TO.C,Q5*%
X139407857Y-87095238D02*
X139360238Y-87190476D01*
X139360238Y-87190476D02*
X139265000Y-87285714D01*
X139265000Y-87285714D02*
X139122142Y-87428571D01*
X139122142Y-87428571D02*
X139074523Y-87523809D01*
X139074523Y-87523809D02*
X139074523Y-87619047D01*
X139312619Y-87571428D02*
X139265000Y-87666666D01*
X139265000Y-87666666D02*
X139169761Y-87761904D01*
X139169761Y-87761904D02*
X138979285Y-87809523D01*
X138979285Y-87809523D02*
X138645952Y-87809523D01*
X138645952Y-87809523D02*
X138455476Y-87761904D01*
X138455476Y-87761904D02*
X138360238Y-87666666D01*
X138360238Y-87666666D02*
X138312619Y-87571428D01*
X138312619Y-87571428D02*
X138312619Y-87380952D01*
X138312619Y-87380952D02*
X138360238Y-87285714D01*
X138360238Y-87285714D02*
X138455476Y-87190476D01*
X138455476Y-87190476D02*
X138645952Y-87142857D01*
X138645952Y-87142857D02*
X138979285Y-87142857D01*
X138979285Y-87142857D02*
X139169761Y-87190476D01*
X139169761Y-87190476D02*
X139265000Y-87285714D01*
X139265000Y-87285714D02*
X139312619Y-87380952D01*
X139312619Y-87380952D02*
X139312619Y-87571428D01*
X138312619Y-86238095D02*
X138312619Y-86714285D01*
X138312619Y-86714285D02*
X138788809Y-86761904D01*
X138788809Y-86761904D02*
X138741190Y-86714285D01*
X138741190Y-86714285D02*
X138693571Y-86619047D01*
X138693571Y-86619047D02*
X138693571Y-86380952D01*
X138693571Y-86380952D02*
X138741190Y-86285714D01*
X138741190Y-86285714D02*
X138788809Y-86238095D01*
X138788809Y-86238095D02*
X138884047Y-86190476D01*
X138884047Y-86190476D02*
X139122142Y-86190476D01*
X139122142Y-86190476D02*
X139217380Y-86238095D01*
X139217380Y-86238095D02*
X139265000Y-86285714D01*
X139265000Y-86285714D02*
X139312619Y-86380952D01*
X139312619Y-86380952D02*
X139312619Y-86619047D01*
X139312619Y-86619047D02*
X139265000Y-86714285D01*
X139265000Y-86714285D02*
X139217380Y-86761904D01*
%TO.C,R10*%
X145182619Y-88580357D02*
X144706428Y-88913690D01*
X145182619Y-89151785D02*
X144182619Y-89151785D01*
X144182619Y-89151785D02*
X144182619Y-88770833D01*
X144182619Y-88770833D02*
X144230238Y-88675595D01*
X144230238Y-88675595D02*
X144277857Y-88627976D01*
X144277857Y-88627976D02*
X144373095Y-88580357D01*
X144373095Y-88580357D02*
X144515952Y-88580357D01*
X144515952Y-88580357D02*
X144611190Y-88627976D01*
X144611190Y-88627976D02*
X144658809Y-88675595D01*
X144658809Y-88675595D02*
X144706428Y-88770833D01*
X144706428Y-88770833D02*
X144706428Y-89151785D01*
X145182619Y-87627976D02*
X145182619Y-88199404D01*
X145182619Y-87913690D02*
X144182619Y-87913690D01*
X144182619Y-87913690D02*
X144325476Y-88008928D01*
X144325476Y-88008928D02*
X144420714Y-88104166D01*
X144420714Y-88104166D02*
X144468333Y-88199404D01*
X144182619Y-87008928D02*
X144182619Y-86913690D01*
X144182619Y-86913690D02*
X144230238Y-86818452D01*
X144230238Y-86818452D02*
X144277857Y-86770833D01*
X144277857Y-86770833D02*
X144373095Y-86723214D01*
X144373095Y-86723214D02*
X144563571Y-86675595D01*
X144563571Y-86675595D02*
X144801666Y-86675595D01*
X144801666Y-86675595D02*
X144992142Y-86723214D01*
X144992142Y-86723214D02*
X145087380Y-86770833D01*
X145087380Y-86770833D02*
X145135000Y-86818452D01*
X145135000Y-86818452D02*
X145182619Y-86913690D01*
X145182619Y-86913690D02*
X145182619Y-87008928D01*
X145182619Y-87008928D02*
X145135000Y-87104166D01*
X145135000Y-87104166D02*
X145087380Y-87151785D01*
X145087380Y-87151785D02*
X144992142Y-87199404D01*
X144992142Y-87199404D02*
X144801666Y-87247023D01*
X144801666Y-87247023D02*
X144563571Y-87247023D01*
X144563571Y-87247023D02*
X144373095Y-87199404D01*
X144373095Y-87199404D02*
X144277857Y-87151785D01*
X144277857Y-87151785D02*
X144230238Y-87104166D01*
X144230238Y-87104166D02*
X144182619Y-87008928D01*
%TO.C,U1*%
X144738095Y-53262619D02*
X144738095Y-54072142D01*
X144738095Y-54072142D02*
X144785714Y-54167380D01*
X144785714Y-54167380D02*
X144833333Y-54215000D01*
X144833333Y-54215000D02*
X144928571Y-54262619D01*
X144928571Y-54262619D02*
X145119047Y-54262619D01*
X145119047Y-54262619D02*
X145214285Y-54215000D01*
X145214285Y-54215000D02*
X145261904Y-54167380D01*
X145261904Y-54167380D02*
X145309523Y-54072142D01*
X145309523Y-54072142D02*
X145309523Y-53262619D01*
X146309523Y-54262619D02*
X145738095Y-54262619D01*
X146023809Y-54262619D02*
X146023809Y-53262619D01*
X146023809Y-53262619D02*
X145928571Y-53405476D01*
X145928571Y-53405476D02*
X145833333Y-53500714D01*
X145833333Y-53500714D02*
X145738095Y-53548333D01*
X140738094Y-58276904D02*
X141214284Y-58276904D01*
X140642856Y-58562619D02*
X140976189Y-57562619D01*
X140976189Y-57562619D02*
X141309522Y-58562619D01*
X141642856Y-57895952D02*
X141642856Y-58562619D01*
X141642856Y-57991190D02*
X141690475Y-57943571D01*
X141690475Y-57943571D02*
X141785713Y-57895952D01*
X141785713Y-57895952D02*
X141928570Y-57895952D01*
X141928570Y-57895952D02*
X142023808Y-57943571D01*
X142023808Y-57943571D02*
X142071427Y-58038809D01*
X142071427Y-58038809D02*
X142071427Y-58562619D01*
X142404761Y-57895952D02*
X142785713Y-57895952D01*
X142547618Y-57562619D02*
X142547618Y-58419761D01*
X142547618Y-58419761D02*
X142595237Y-58515000D01*
X142595237Y-58515000D02*
X142690475Y-58562619D01*
X142690475Y-58562619D02*
X142785713Y-58562619D01*
X143499999Y-58515000D02*
X143404761Y-58562619D01*
X143404761Y-58562619D02*
X143214285Y-58562619D01*
X143214285Y-58562619D02*
X143119047Y-58515000D01*
X143119047Y-58515000D02*
X143071428Y-58419761D01*
X143071428Y-58419761D02*
X143071428Y-58038809D01*
X143071428Y-58038809D02*
X143119047Y-57943571D01*
X143119047Y-57943571D02*
X143214285Y-57895952D01*
X143214285Y-57895952D02*
X143404761Y-57895952D01*
X143404761Y-57895952D02*
X143499999Y-57943571D01*
X143499999Y-57943571D02*
X143547618Y-58038809D01*
X143547618Y-58038809D02*
X143547618Y-58134047D01*
X143547618Y-58134047D02*
X143071428Y-58229285D01*
X143976190Y-57895952D02*
X143976190Y-58562619D01*
X143976190Y-57991190D02*
X144023809Y-57943571D01*
X144023809Y-57943571D02*
X144119047Y-57895952D01*
X144119047Y-57895952D02*
X144261904Y-57895952D01*
X144261904Y-57895952D02*
X144357142Y-57943571D01*
X144357142Y-57943571D02*
X144404761Y-58038809D01*
X144404761Y-58038809D02*
X144404761Y-58562619D01*
X144880952Y-57895952D02*
X144880952Y-58562619D01*
X144880952Y-57991190D02*
X144928571Y-57943571D01*
X144928571Y-57943571D02*
X145023809Y-57895952D01*
X145023809Y-57895952D02*
X145166666Y-57895952D01*
X145166666Y-57895952D02*
X145261904Y-57943571D01*
X145261904Y-57943571D02*
X145309523Y-58038809D01*
X145309523Y-58038809D02*
X145309523Y-58562619D01*
X146214285Y-58562619D02*
X146214285Y-58038809D01*
X146214285Y-58038809D02*
X146166666Y-57943571D01*
X146166666Y-57943571D02*
X146071428Y-57895952D01*
X146071428Y-57895952D02*
X145880952Y-57895952D01*
X145880952Y-57895952D02*
X145785714Y-57943571D01*
X146214285Y-58515000D02*
X146119047Y-58562619D01*
X146119047Y-58562619D02*
X145880952Y-58562619D01*
X145880952Y-58562619D02*
X145785714Y-58515000D01*
X145785714Y-58515000D02*
X145738095Y-58419761D01*
X145738095Y-58419761D02*
X145738095Y-58324523D01*
X145738095Y-58324523D02*
X145785714Y-58229285D01*
X145785714Y-58229285D02*
X145880952Y-58181666D01*
X145880952Y-58181666D02*
X146119047Y-58181666D01*
X146119047Y-58181666D02*
X146214285Y-58134047D01*
X147404762Y-58276904D02*
X147880952Y-58276904D01*
X147309524Y-58562619D02*
X147642857Y-57562619D01*
X147642857Y-57562619D02*
X147976190Y-58562619D01*
X148309524Y-58562619D02*
X148309524Y-57895952D01*
X148309524Y-58086428D02*
X148357143Y-57991190D01*
X148357143Y-57991190D02*
X148404762Y-57943571D01*
X148404762Y-57943571D02*
X148500000Y-57895952D01*
X148500000Y-57895952D02*
X148595238Y-57895952D01*
X149309524Y-58515000D02*
X149214286Y-58562619D01*
X149214286Y-58562619D02*
X149023810Y-58562619D01*
X149023810Y-58562619D02*
X148928572Y-58515000D01*
X148928572Y-58515000D02*
X148880953Y-58419761D01*
X148880953Y-58419761D02*
X148880953Y-58038809D01*
X148880953Y-58038809D02*
X148928572Y-57943571D01*
X148928572Y-57943571D02*
X149023810Y-57895952D01*
X149023810Y-57895952D02*
X149214286Y-57895952D01*
X149214286Y-57895952D02*
X149309524Y-57943571D01*
X149309524Y-57943571D02*
X149357143Y-58038809D01*
X149357143Y-58038809D02*
X149357143Y-58134047D01*
X149357143Y-58134047D02*
X148880953Y-58229285D01*
X150214286Y-58562619D02*
X150214286Y-58038809D01*
X150214286Y-58038809D02*
X150166667Y-57943571D01*
X150166667Y-57943571D02*
X150071429Y-57895952D01*
X150071429Y-57895952D02*
X149880953Y-57895952D01*
X149880953Y-57895952D02*
X149785715Y-57943571D01*
X150214286Y-58515000D02*
X150119048Y-58562619D01*
X150119048Y-58562619D02*
X149880953Y-58562619D01*
X149880953Y-58562619D02*
X149785715Y-58515000D01*
X149785715Y-58515000D02*
X149738096Y-58419761D01*
X149738096Y-58419761D02*
X149738096Y-58324523D01*
X149738096Y-58324523D02*
X149785715Y-58229285D01*
X149785715Y-58229285D02*
X149880953Y-58181666D01*
X149880953Y-58181666D02*
X150119048Y-58181666D01*
X150119048Y-58181666D02*
X150214286Y-58134047D01*
%TO.C,R1*%
X126712619Y-63916666D02*
X126236428Y-64249999D01*
X126712619Y-64488094D02*
X125712619Y-64488094D01*
X125712619Y-64488094D02*
X125712619Y-64107142D01*
X125712619Y-64107142D02*
X125760238Y-64011904D01*
X125760238Y-64011904D02*
X125807857Y-63964285D01*
X125807857Y-63964285D02*
X125903095Y-63916666D01*
X125903095Y-63916666D02*
X126045952Y-63916666D01*
X126045952Y-63916666D02*
X126141190Y-63964285D01*
X126141190Y-63964285D02*
X126188809Y-64011904D01*
X126188809Y-64011904D02*
X126236428Y-64107142D01*
X126236428Y-64107142D02*
X126236428Y-64488094D01*
X126712619Y-62964285D02*
X126712619Y-63535713D01*
X126712619Y-63249999D02*
X125712619Y-63249999D01*
X125712619Y-63249999D02*
X125855476Y-63345237D01*
X125855476Y-63345237D02*
X125950714Y-63440475D01*
X125950714Y-63440475D02*
X125998333Y-63535713D01*
%TO.C,C2*%
X133083333Y-64367380D02*
X133035714Y-64415000D01*
X133035714Y-64415000D02*
X132892857Y-64462619D01*
X132892857Y-64462619D02*
X132797619Y-64462619D01*
X132797619Y-64462619D02*
X132654762Y-64415000D01*
X132654762Y-64415000D02*
X132559524Y-64319761D01*
X132559524Y-64319761D02*
X132511905Y-64224523D01*
X132511905Y-64224523D02*
X132464286Y-64034047D01*
X132464286Y-64034047D02*
X132464286Y-63891190D01*
X132464286Y-63891190D02*
X132511905Y-63700714D01*
X132511905Y-63700714D02*
X132559524Y-63605476D01*
X132559524Y-63605476D02*
X132654762Y-63510238D01*
X132654762Y-63510238D02*
X132797619Y-63462619D01*
X132797619Y-63462619D02*
X132892857Y-63462619D01*
X132892857Y-63462619D02*
X133035714Y-63510238D01*
X133035714Y-63510238D02*
X133083333Y-63557857D01*
X133464286Y-63557857D02*
X133511905Y-63510238D01*
X133511905Y-63510238D02*
X133607143Y-63462619D01*
X133607143Y-63462619D02*
X133845238Y-63462619D01*
X133845238Y-63462619D02*
X133940476Y-63510238D01*
X133940476Y-63510238D02*
X133988095Y-63557857D01*
X133988095Y-63557857D02*
X134035714Y-63653095D01*
X134035714Y-63653095D02*
X134035714Y-63748333D01*
X134035714Y-63748333D02*
X133988095Y-63891190D01*
X133988095Y-63891190D02*
X133416667Y-64462619D01*
X133416667Y-64462619D02*
X134035714Y-64462619D01*
%TO.C,D1*%
X135362619Y-86238094D02*
X134362619Y-86238094D01*
X134362619Y-86238094D02*
X134362619Y-85999999D01*
X134362619Y-85999999D02*
X134410238Y-85857142D01*
X134410238Y-85857142D02*
X134505476Y-85761904D01*
X134505476Y-85761904D02*
X134600714Y-85714285D01*
X134600714Y-85714285D02*
X134791190Y-85666666D01*
X134791190Y-85666666D02*
X134934047Y-85666666D01*
X134934047Y-85666666D02*
X135124523Y-85714285D01*
X135124523Y-85714285D02*
X135219761Y-85761904D01*
X135219761Y-85761904D02*
X135315000Y-85857142D01*
X135315000Y-85857142D02*
X135362619Y-85999999D01*
X135362619Y-85999999D02*
X135362619Y-86238094D01*
X135362619Y-84714285D02*
X135362619Y-85285713D01*
X135362619Y-84999999D02*
X134362619Y-84999999D01*
X134362619Y-84999999D02*
X134505476Y-85095237D01*
X134505476Y-85095237D02*
X134600714Y-85190475D01*
X134600714Y-85190475D02*
X134648333Y-85285713D01*
D11*
%TO.C,J3*%
X121079526Y-85423332D02*
X121986669Y-85423332D01*
X121986669Y-85423332D02*
X122168097Y-85483809D01*
X122168097Y-85483809D02*
X122289050Y-85604761D01*
X122289050Y-85604761D02*
X122349526Y-85786190D01*
X122349526Y-85786190D02*
X122349526Y-85907142D01*
X121079526Y-84939523D02*
X121079526Y-84153332D01*
X121079526Y-84153332D02*
X121563335Y-84576666D01*
X121563335Y-84576666D02*
X121563335Y-84395237D01*
X121563335Y-84395237D02*
X121623811Y-84274285D01*
X121623811Y-84274285D02*
X121684288Y-84213809D01*
X121684288Y-84213809D02*
X121805240Y-84153332D01*
X121805240Y-84153332D02*
X122107621Y-84153332D01*
X122107621Y-84153332D02*
X122228573Y-84213809D01*
X122228573Y-84213809D02*
X122289050Y-84274285D01*
X122289050Y-84274285D02*
X122349526Y-84395237D01*
X122349526Y-84395237D02*
X122349526Y-84758094D01*
X122349526Y-84758094D02*
X122289050Y-84879047D01*
X122289050Y-84879047D02*
X122228573Y-84939523D01*
D10*
%TO.C,C3*%
X133083333Y-67367380D02*
X133035714Y-67415000D01*
X133035714Y-67415000D02*
X132892857Y-67462619D01*
X132892857Y-67462619D02*
X132797619Y-67462619D01*
X132797619Y-67462619D02*
X132654762Y-67415000D01*
X132654762Y-67415000D02*
X132559524Y-67319761D01*
X132559524Y-67319761D02*
X132511905Y-67224523D01*
X132511905Y-67224523D02*
X132464286Y-67034047D01*
X132464286Y-67034047D02*
X132464286Y-66891190D01*
X132464286Y-66891190D02*
X132511905Y-66700714D01*
X132511905Y-66700714D02*
X132559524Y-66605476D01*
X132559524Y-66605476D02*
X132654762Y-66510238D01*
X132654762Y-66510238D02*
X132797619Y-66462619D01*
X132797619Y-66462619D02*
X132892857Y-66462619D01*
X132892857Y-66462619D02*
X133035714Y-66510238D01*
X133035714Y-66510238D02*
X133083333Y-66557857D01*
X133416667Y-66462619D02*
X134035714Y-66462619D01*
X134035714Y-66462619D02*
X133702381Y-66843571D01*
X133702381Y-66843571D02*
X133845238Y-66843571D01*
X133845238Y-66843571D02*
X133940476Y-66891190D01*
X133940476Y-66891190D02*
X133988095Y-66938809D01*
X133988095Y-66938809D02*
X134035714Y-67034047D01*
X134035714Y-67034047D02*
X134035714Y-67272142D01*
X134035714Y-67272142D02*
X133988095Y-67367380D01*
X133988095Y-67367380D02*
X133940476Y-67415000D01*
X133940476Y-67415000D02*
X133845238Y-67462619D01*
X133845238Y-67462619D02*
X133559524Y-67462619D01*
X133559524Y-67462619D02*
X133464286Y-67415000D01*
X133464286Y-67415000D02*
X133416667Y-67367380D01*
%TO.C,D2*%
X173962619Y-87238094D02*
X172962619Y-87238094D01*
X172962619Y-87238094D02*
X172962619Y-86999999D01*
X172962619Y-86999999D02*
X173010238Y-86857142D01*
X173010238Y-86857142D02*
X173105476Y-86761904D01*
X173105476Y-86761904D02*
X173200714Y-86714285D01*
X173200714Y-86714285D02*
X173391190Y-86666666D01*
X173391190Y-86666666D02*
X173534047Y-86666666D01*
X173534047Y-86666666D02*
X173724523Y-86714285D01*
X173724523Y-86714285D02*
X173819761Y-86761904D01*
X173819761Y-86761904D02*
X173915000Y-86857142D01*
X173915000Y-86857142D02*
X173962619Y-86999999D01*
X173962619Y-86999999D02*
X173962619Y-87238094D01*
X173057857Y-86285713D02*
X173010238Y-86238094D01*
X173010238Y-86238094D02*
X172962619Y-86142856D01*
X172962619Y-86142856D02*
X172962619Y-85904761D01*
X172962619Y-85904761D02*
X173010238Y-85809523D01*
X173010238Y-85809523D02*
X173057857Y-85761904D01*
X173057857Y-85761904D02*
X173153095Y-85714285D01*
X173153095Y-85714285D02*
X173248333Y-85714285D01*
X173248333Y-85714285D02*
X173391190Y-85761904D01*
X173391190Y-85761904D02*
X173962619Y-86333332D01*
X173962619Y-86333332D02*
X173962619Y-85714285D01*
%TO.C,C1*%
X129617380Y-63916666D02*
X129665000Y-63964285D01*
X129665000Y-63964285D02*
X129712619Y-64107142D01*
X129712619Y-64107142D02*
X129712619Y-64202380D01*
X129712619Y-64202380D02*
X129665000Y-64345237D01*
X129665000Y-64345237D02*
X129569761Y-64440475D01*
X129569761Y-64440475D02*
X129474523Y-64488094D01*
X129474523Y-64488094D02*
X129284047Y-64535713D01*
X129284047Y-64535713D02*
X129141190Y-64535713D01*
X129141190Y-64535713D02*
X128950714Y-64488094D01*
X128950714Y-64488094D02*
X128855476Y-64440475D01*
X128855476Y-64440475D02*
X128760238Y-64345237D01*
X128760238Y-64345237D02*
X128712619Y-64202380D01*
X128712619Y-64202380D02*
X128712619Y-64107142D01*
X128712619Y-64107142D02*
X128760238Y-63964285D01*
X128760238Y-63964285D02*
X128807857Y-63916666D01*
X129712619Y-62964285D02*
X129712619Y-63535713D01*
X129712619Y-63249999D02*
X128712619Y-63249999D01*
X128712619Y-63249999D02*
X128855476Y-63345237D01*
X128855476Y-63345237D02*
X128950714Y-63440475D01*
X128950714Y-63440475D02*
X128998333Y-63535713D01*
%TO.C,C8*%
X162687380Y-101666666D02*
X162735000Y-101714285D01*
X162735000Y-101714285D02*
X162782619Y-101857142D01*
X162782619Y-101857142D02*
X162782619Y-101952380D01*
X162782619Y-101952380D02*
X162735000Y-102095237D01*
X162735000Y-102095237D02*
X162639761Y-102190475D01*
X162639761Y-102190475D02*
X162544523Y-102238094D01*
X162544523Y-102238094D02*
X162354047Y-102285713D01*
X162354047Y-102285713D02*
X162211190Y-102285713D01*
X162211190Y-102285713D02*
X162020714Y-102238094D01*
X162020714Y-102238094D02*
X161925476Y-102190475D01*
X161925476Y-102190475D02*
X161830238Y-102095237D01*
X161830238Y-102095237D02*
X161782619Y-101952380D01*
X161782619Y-101952380D02*
X161782619Y-101857142D01*
X161782619Y-101857142D02*
X161830238Y-101714285D01*
X161830238Y-101714285D02*
X161877857Y-101666666D01*
X162211190Y-101095237D02*
X162163571Y-101190475D01*
X162163571Y-101190475D02*
X162115952Y-101238094D01*
X162115952Y-101238094D02*
X162020714Y-101285713D01*
X162020714Y-101285713D02*
X161973095Y-101285713D01*
X161973095Y-101285713D02*
X161877857Y-101238094D01*
X161877857Y-101238094D02*
X161830238Y-101190475D01*
X161830238Y-101190475D02*
X161782619Y-101095237D01*
X161782619Y-101095237D02*
X161782619Y-100904761D01*
X161782619Y-100904761D02*
X161830238Y-100809523D01*
X161830238Y-100809523D02*
X161877857Y-100761904D01*
X161877857Y-100761904D02*
X161973095Y-100714285D01*
X161973095Y-100714285D02*
X162020714Y-100714285D01*
X162020714Y-100714285D02*
X162115952Y-100761904D01*
X162115952Y-100761904D02*
X162163571Y-100809523D01*
X162163571Y-100809523D02*
X162211190Y-100904761D01*
X162211190Y-100904761D02*
X162211190Y-101095237D01*
X162211190Y-101095237D02*
X162258809Y-101190475D01*
X162258809Y-101190475D02*
X162306428Y-101238094D01*
X162306428Y-101238094D02*
X162401666Y-101285713D01*
X162401666Y-101285713D02*
X162592142Y-101285713D01*
X162592142Y-101285713D02*
X162687380Y-101238094D01*
X162687380Y-101238094D02*
X162735000Y-101190475D01*
X162735000Y-101190475D02*
X162782619Y-101095237D01*
X162782619Y-101095237D02*
X162782619Y-100904761D01*
X162782619Y-100904761D02*
X162735000Y-100809523D01*
X162735000Y-100809523D02*
X162687380Y-100761904D01*
X162687380Y-100761904D02*
X162592142Y-100714285D01*
X162592142Y-100714285D02*
X162401666Y-100714285D01*
X162401666Y-100714285D02*
X162306428Y-100761904D01*
X162306428Y-100761904D02*
X162258809Y-100809523D01*
X162258809Y-100809523D02*
X162211190Y-100904761D01*
%TO.C,R7*%
X128642619Y-72416666D02*
X128166428Y-72749999D01*
X128642619Y-72988094D02*
X127642619Y-72988094D01*
X127642619Y-72988094D02*
X127642619Y-72607142D01*
X127642619Y-72607142D02*
X127690238Y-72511904D01*
X127690238Y-72511904D02*
X127737857Y-72464285D01*
X127737857Y-72464285D02*
X127833095Y-72416666D01*
X127833095Y-72416666D02*
X127975952Y-72416666D01*
X127975952Y-72416666D02*
X128071190Y-72464285D01*
X128071190Y-72464285D02*
X128118809Y-72511904D01*
X128118809Y-72511904D02*
X128166428Y-72607142D01*
X128166428Y-72607142D02*
X128166428Y-72988094D01*
X127642619Y-72083332D02*
X127642619Y-71416666D01*
X127642619Y-71416666D02*
X128642619Y-71845237D01*
%TO.C,C6*%
X169483333Y-93967380D02*
X169435714Y-94015000D01*
X169435714Y-94015000D02*
X169292857Y-94062619D01*
X169292857Y-94062619D02*
X169197619Y-94062619D01*
X169197619Y-94062619D02*
X169054762Y-94015000D01*
X169054762Y-94015000D02*
X168959524Y-93919761D01*
X168959524Y-93919761D02*
X168911905Y-93824523D01*
X168911905Y-93824523D02*
X168864286Y-93634047D01*
X168864286Y-93634047D02*
X168864286Y-93491190D01*
X168864286Y-93491190D02*
X168911905Y-93300714D01*
X168911905Y-93300714D02*
X168959524Y-93205476D01*
X168959524Y-93205476D02*
X169054762Y-93110238D01*
X169054762Y-93110238D02*
X169197619Y-93062619D01*
X169197619Y-93062619D02*
X169292857Y-93062619D01*
X169292857Y-93062619D02*
X169435714Y-93110238D01*
X169435714Y-93110238D02*
X169483333Y-93157857D01*
X170340476Y-93062619D02*
X170150000Y-93062619D01*
X170150000Y-93062619D02*
X170054762Y-93110238D01*
X170054762Y-93110238D02*
X170007143Y-93157857D01*
X170007143Y-93157857D02*
X169911905Y-93300714D01*
X169911905Y-93300714D02*
X169864286Y-93491190D01*
X169864286Y-93491190D02*
X169864286Y-93872142D01*
X169864286Y-93872142D02*
X169911905Y-93967380D01*
X169911905Y-93967380D02*
X169959524Y-94015000D01*
X169959524Y-94015000D02*
X170054762Y-94062619D01*
X170054762Y-94062619D02*
X170245238Y-94062619D01*
X170245238Y-94062619D02*
X170340476Y-94015000D01*
X170340476Y-94015000D02*
X170388095Y-93967380D01*
X170388095Y-93967380D02*
X170435714Y-93872142D01*
X170435714Y-93872142D02*
X170435714Y-93634047D01*
X170435714Y-93634047D02*
X170388095Y-93538809D01*
X170388095Y-93538809D02*
X170340476Y-93491190D01*
X170340476Y-93491190D02*
X170245238Y-93443571D01*
X170245238Y-93443571D02*
X170054762Y-93443571D01*
X170054762Y-93443571D02*
X169959524Y-93491190D01*
X169959524Y-93491190D02*
X169911905Y-93538809D01*
X169911905Y-93538809D02*
X169864286Y-93634047D01*
%TO.C,R2*%
X165862619Y-66966666D02*
X165386428Y-67299999D01*
X165862619Y-67538094D02*
X164862619Y-67538094D01*
X164862619Y-67538094D02*
X164862619Y-67157142D01*
X164862619Y-67157142D02*
X164910238Y-67061904D01*
X164910238Y-67061904D02*
X164957857Y-67014285D01*
X164957857Y-67014285D02*
X165053095Y-66966666D01*
X165053095Y-66966666D02*
X165195952Y-66966666D01*
X165195952Y-66966666D02*
X165291190Y-67014285D01*
X165291190Y-67014285D02*
X165338809Y-67061904D01*
X165338809Y-67061904D02*
X165386428Y-67157142D01*
X165386428Y-67157142D02*
X165386428Y-67538094D01*
X164957857Y-66585713D02*
X164910238Y-66538094D01*
X164910238Y-66538094D02*
X164862619Y-66442856D01*
X164862619Y-66442856D02*
X164862619Y-66204761D01*
X164862619Y-66204761D02*
X164910238Y-66109523D01*
X164910238Y-66109523D02*
X164957857Y-66061904D01*
X164957857Y-66061904D02*
X165053095Y-66014285D01*
X165053095Y-66014285D02*
X165148333Y-66014285D01*
X165148333Y-66014285D02*
X165291190Y-66061904D01*
X165291190Y-66061904D02*
X165862619Y-66633332D01*
X165862619Y-66633332D02*
X165862619Y-66014285D01*
%TO.C,R3*%
X134233333Y-69062619D02*
X133900000Y-68586428D01*
X133661905Y-69062619D02*
X133661905Y-68062619D01*
X133661905Y-68062619D02*
X134042857Y-68062619D01*
X134042857Y-68062619D02*
X134138095Y-68110238D01*
X134138095Y-68110238D02*
X134185714Y-68157857D01*
X134185714Y-68157857D02*
X134233333Y-68253095D01*
X134233333Y-68253095D02*
X134233333Y-68395952D01*
X134233333Y-68395952D02*
X134185714Y-68491190D01*
X134185714Y-68491190D02*
X134138095Y-68538809D01*
X134138095Y-68538809D02*
X134042857Y-68586428D01*
X134042857Y-68586428D02*
X133661905Y-68586428D01*
X134566667Y-68062619D02*
X135185714Y-68062619D01*
X135185714Y-68062619D02*
X134852381Y-68443571D01*
X134852381Y-68443571D02*
X134995238Y-68443571D01*
X134995238Y-68443571D02*
X135090476Y-68491190D01*
X135090476Y-68491190D02*
X135138095Y-68538809D01*
X135138095Y-68538809D02*
X135185714Y-68634047D01*
X135185714Y-68634047D02*
X135185714Y-68872142D01*
X135185714Y-68872142D02*
X135138095Y-68967380D01*
X135138095Y-68967380D02*
X135090476Y-69015000D01*
X135090476Y-69015000D02*
X134995238Y-69062619D01*
X134995238Y-69062619D02*
X134709524Y-69062619D01*
X134709524Y-69062619D02*
X134614286Y-69015000D01*
X134614286Y-69015000D02*
X134566667Y-68967380D01*
%TO.C,C4*%
X165767380Y-71991666D02*
X165815000Y-72039285D01*
X165815000Y-72039285D02*
X165862619Y-72182142D01*
X165862619Y-72182142D02*
X165862619Y-72277380D01*
X165862619Y-72277380D02*
X165815000Y-72420237D01*
X165815000Y-72420237D02*
X165719761Y-72515475D01*
X165719761Y-72515475D02*
X165624523Y-72563094D01*
X165624523Y-72563094D02*
X165434047Y-72610713D01*
X165434047Y-72610713D02*
X165291190Y-72610713D01*
X165291190Y-72610713D02*
X165100714Y-72563094D01*
X165100714Y-72563094D02*
X165005476Y-72515475D01*
X165005476Y-72515475D02*
X164910238Y-72420237D01*
X164910238Y-72420237D02*
X164862619Y-72277380D01*
X164862619Y-72277380D02*
X164862619Y-72182142D01*
X164862619Y-72182142D02*
X164910238Y-72039285D01*
X164910238Y-72039285D02*
X164957857Y-71991666D01*
X165195952Y-71134523D02*
X165862619Y-71134523D01*
X164815000Y-71372618D02*
X165529285Y-71610713D01*
X165529285Y-71610713D02*
X165529285Y-70991666D01*
%TO.C,Q2*%
X125704761Y-67107857D02*
X125609523Y-67060238D01*
X125609523Y-67060238D02*
X125514285Y-66965000D01*
X125514285Y-66965000D02*
X125371428Y-66822142D01*
X125371428Y-66822142D02*
X125276190Y-66774523D01*
X125276190Y-66774523D02*
X125180952Y-66774523D01*
X125228571Y-67012619D02*
X125133333Y-66965000D01*
X125133333Y-66965000D02*
X125038095Y-66869761D01*
X125038095Y-66869761D02*
X124990476Y-66679285D01*
X124990476Y-66679285D02*
X124990476Y-66345952D01*
X124990476Y-66345952D02*
X125038095Y-66155476D01*
X125038095Y-66155476D02*
X125133333Y-66060238D01*
X125133333Y-66060238D02*
X125228571Y-66012619D01*
X125228571Y-66012619D02*
X125419047Y-66012619D01*
X125419047Y-66012619D02*
X125514285Y-66060238D01*
X125514285Y-66060238D02*
X125609523Y-66155476D01*
X125609523Y-66155476D02*
X125657142Y-66345952D01*
X125657142Y-66345952D02*
X125657142Y-66679285D01*
X125657142Y-66679285D02*
X125609523Y-66869761D01*
X125609523Y-66869761D02*
X125514285Y-66965000D01*
X125514285Y-66965000D02*
X125419047Y-67012619D01*
X125419047Y-67012619D02*
X125228571Y-67012619D01*
X126038095Y-66107857D02*
X126085714Y-66060238D01*
X126085714Y-66060238D02*
X126180952Y-66012619D01*
X126180952Y-66012619D02*
X126419047Y-66012619D01*
X126419047Y-66012619D02*
X126514285Y-66060238D01*
X126514285Y-66060238D02*
X126561904Y-66107857D01*
X126561904Y-66107857D02*
X126609523Y-66203095D01*
X126609523Y-66203095D02*
X126609523Y-66298333D01*
X126609523Y-66298333D02*
X126561904Y-66441190D01*
X126561904Y-66441190D02*
X125990476Y-67012619D01*
X125990476Y-67012619D02*
X126609523Y-67012619D01*
%TO.C,R18*%
X125712619Y-108642857D02*
X125236428Y-108976190D01*
X125712619Y-109214285D02*
X124712619Y-109214285D01*
X124712619Y-109214285D02*
X124712619Y-108833333D01*
X124712619Y-108833333D02*
X124760238Y-108738095D01*
X124760238Y-108738095D02*
X124807857Y-108690476D01*
X124807857Y-108690476D02*
X124903095Y-108642857D01*
X124903095Y-108642857D02*
X125045952Y-108642857D01*
X125045952Y-108642857D02*
X125141190Y-108690476D01*
X125141190Y-108690476D02*
X125188809Y-108738095D01*
X125188809Y-108738095D02*
X125236428Y-108833333D01*
X125236428Y-108833333D02*
X125236428Y-109214285D01*
X125712619Y-107690476D02*
X125712619Y-108261904D01*
X125712619Y-107976190D02*
X124712619Y-107976190D01*
X124712619Y-107976190D02*
X124855476Y-108071428D01*
X124855476Y-108071428D02*
X124950714Y-108166666D01*
X124950714Y-108166666D02*
X124998333Y-108261904D01*
X125141190Y-107119047D02*
X125093571Y-107214285D01*
X125093571Y-107214285D02*
X125045952Y-107261904D01*
X125045952Y-107261904D02*
X124950714Y-107309523D01*
X124950714Y-107309523D02*
X124903095Y-107309523D01*
X124903095Y-107309523D02*
X124807857Y-107261904D01*
X124807857Y-107261904D02*
X124760238Y-107214285D01*
X124760238Y-107214285D02*
X124712619Y-107119047D01*
X124712619Y-107119047D02*
X124712619Y-106928571D01*
X124712619Y-106928571D02*
X124760238Y-106833333D01*
X124760238Y-106833333D02*
X124807857Y-106785714D01*
X124807857Y-106785714D02*
X124903095Y-106738095D01*
X124903095Y-106738095D02*
X124950714Y-106738095D01*
X124950714Y-106738095D02*
X125045952Y-106785714D01*
X125045952Y-106785714D02*
X125093571Y-106833333D01*
X125093571Y-106833333D02*
X125141190Y-106928571D01*
X125141190Y-106928571D02*
X125141190Y-107119047D01*
X125141190Y-107119047D02*
X125188809Y-107214285D01*
X125188809Y-107214285D02*
X125236428Y-107261904D01*
X125236428Y-107261904D02*
X125331666Y-107309523D01*
X125331666Y-107309523D02*
X125522142Y-107309523D01*
X125522142Y-107309523D02*
X125617380Y-107261904D01*
X125617380Y-107261904D02*
X125665000Y-107214285D01*
X125665000Y-107214285D02*
X125712619Y-107119047D01*
X125712619Y-107119047D02*
X125712619Y-106928571D01*
X125712619Y-106928571D02*
X125665000Y-106833333D01*
X125665000Y-106833333D02*
X125617380Y-106785714D01*
X125617380Y-106785714D02*
X125522142Y-106738095D01*
X125522142Y-106738095D02*
X125331666Y-106738095D01*
X125331666Y-106738095D02*
X125236428Y-106785714D01*
X125236428Y-106785714D02*
X125188809Y-106833333D01*
X125188809Y-106833333D02*
X125141190Y-106928571D01*
%TO.C,R11*%
X164057142Y-89462619D02*
X163723809Y-88986428D01*
X163485714Y-89462619D02*
X163485714Y-88462619D01*
X163485714Y-88462619D02*
X163866666Y-88462619D01*
X163866666Y-88462619D02*
X163961904Y-88510238D01*
X163961904Y-88510238D02*
X164009523Y-88557857D01*
X164009523Y-88557857D02*
X164057142Y-88653095D01*
X164057142Y-88653095D02*
X164057142Y-88795952D01*
X164057142Y-88795952D02*
X164009523Y-88891190D01*
X164009523Y-88891190D02*
X163961904Y-88938809D01*
X163961904Y-88938809D02*
X163866666Y-88986428D01*
X163866666Y-88986428D02*
X163485714Y-88986428D01*
X165009523Y-89462619D02*
X164438095Y-89462619D01*
X164723809Y-89462619D02*
X164723809Y-88462619D01*
X164723809Y-88462619D02*
X164628571Y-88605476D01*
X164628571Y-88605476D02*
X164533333Y-88700714D01*
X164533333Y-88700714D02*
X164438095Y-88748333D01*
X165961904Y-89462619D02*
X165390476Y-89462619D01*
X165676190Y-89462619D02*
X165676190Y-88462619D01*
X165676190Y-88462619D02*
X165580952Y-88605476D01*
X165580952Y-88605476D02*
X165485714Y-88700714D01*
X165485714Y-88700714D02*
X165390476Y-88748333D01*
%TO.C,R13*%
X164057142Y-92462619D02*
X163723809Y-91986428D01*
X163485714Y-92462619D02*
X163485714Y-91462619D01*
X163485714Y-91462619D02*
X163866666Y-91462619D01*
X163866666Y-91462619D02*
X163961904Y-91510238D01*
X163961904Y-91510238D02*
X164009523Y-91557857D01*
X164009523Y-91557857D02*
X164057142Y-91653095D01*
X164057142Y-91653095D02*
X164057142Y-91795952D01*
X164057142Y-91795952D02*
X164009523Y-91891190D01*
X164009523Y-91891190D02*
X163961904Y-91938809D01*
X163961904Y-91938809D02*
X163866666Y-91986428D01*
X163866666Y-91986428D02*
X163485714Y-91986428D01*
X165009523Y-92462619D02*
X164438095Y-92462619D01*
X164723809Y-92462619D02*
X164723809Y-91462619D01*
X164723809Y-91462619D02*
X164628571Y-91605476D01*
X164628571Y-91605476D02*
X164533333Y-91700714D01*
X164533333Y-91700714D02*
X164438095Y-91748333D01*
X165342857Y-91462619D02*
X165961904Y-91462619D01*
X165961904Y-91462619D02*
X165628571Y-91843571D01*
X165628571Y-91843571D02*
X165771428Y-91843571D01*
X165771428Y-91843571D02*
X165866666Y-91891190D01*
X165866666Y-91891190D02*
X165914285Y-91938809D01*
X165914285Y-91938809D02*
X165961904Y-92034047D01*
X165961904Y-92034047D02*
X165961904Y-92272142D01*
X165961904Y-92272142D02*
X165914285Y-92367380D01*
X165914285Y-92367380D02*
X165866666Y-92415000D01*
X165866666Y-92415000D02*
X165771428Y-92462619D01*
X165771428Y-92462619D02*
X165485714Y-92462619D01*
X165485714Y-92462619D02*
X165390476Y-92415000D01*
X165390476Y-92415000D02*
X165342857Y-92367380D01*
%TO.C,D5*%
X127011905Y-102062619D02*
X127011905Y-101062619D01*
X127011905Y-101062619D02*
X127250000Y-101062619D01*
X127250000Y-101062619D02*
X127392857Y-101110238D01*
X127392857Y-101110238D02*
X127488095Y-101205476D01*
X127488095Y-101205476D02*
X127535714Y-101300714D01*
X127535714Y-101300714D02*
X127583333Y-101491190D01*
X127583333Y-101491190D02*
X127583333Y-101634047D01*
X127583333Y-101634047D02*
X127535714Y-101824523D01*
X127535714Y-101824523D02*
X127488095Y-101919761D01*
X127488095Y-101919761D02*
X127392857Y-102015000D01*
X127392857Y-102015000D02*
X127250000Y-102062619D01*
X127250000Y-102062619D02*
X127011905Y-102062619D01*
X128488095Y-101062619D02*
X128011905Y-101062619D01*
X128011905Y-101062619D02*
X127964286Y-101538809D01*
X127964286Y-101538809D02*
X128011905Y-101491190D01*
X128011905Y-101491190D02*
X128107143Y-101443571D01*
X128107143Y-101443571D02*
X128345238Y-101443571D01*
X128345238Y-101443571D02*
X128440476Y-101491190D01*
X128440476Y-101491190D02*
X128488095Y-101538809D01*
X128488095Y-101538809D02*
X128535714Y-101634047D01*
X128535714Y-101634047D02*
X128535714Y-101872142D01*
X128535714Y-101872142D02*
X128488095Y-101967380D01*
X128488095Y-101967380D02*
X128440476Y-102015000D01*
X128440476Y-102015000D02*
X128345238Y-102062619D01*
X128345238Y-102062619D02*
X128107143Y-102062619D01*
X128107143Y-102062619D02*
X128011905Y-102015000D01*
X128011905Y-102015000D02*
X127964286Y-101967380D01*
%TO.C,Q1*%
X119354761Y-67107857D02*
X119259523Y-67060238D01*
X119259523Y-67060238D02*
X119164285Y-66965000D01*
X119164285Y-66965000D02*
X119021428Y-66822142D01*
X119021428Y-66822142D02*
X118926190Y-66774523D01*
X118926190Y-66774523D02*
X118830952Y-66774523D01*
X118878571Y-67012619D02*
X118783333Y-66965000D01*
X118783333Y-66965000D02*
X118688095Y-66869761D01*
X118688095Y-66869761D02*
X118640476Y-66679285D01*
X118640476Y-66679285D02*
X118640476Y-66345952D01*
X118640476Y-66345952D02*
X118688095Y-66155476D01*
X118688095Y-66155476D02*
X118783333Y-66060238D01*
X118783333Y-66060238D02*
X118878571Y-66012619D01*
X118878571Y-66012619D02*
X119069047Y-66012619D01*
X119069047Y-66012619D02*
X119164285Y-66060238D01*
X119164285Y-66060238D02*
X119259523Y-66155476D01*
X119259523Y-66155476D02*
X119307142Y-66345952D01*
X119307142Y-66345952D02*
X119307142Y-66679285D01*
X119307142Y-66679285D02*
X119259523Y-66869761D01*
X119259523Y-66869761D02*
X119164285Y-66965000D01*
X119164285Y-66965000D02*
X119069047Y-67012619D01*
X119069047Y-67012619D02*
X118878571Y-67012619D01*
X120259523Y-67012619D02*
X119688095Y-67012619D01*
X119973809Y-67012619D02*
X119973809Y-66012619D01*
X119973809Y-66012619D02*
X119878571Y-66155476D01*
X119878571Y-66155476D02*
X119783333Y-66250714D01*
X119783333Y-66250714D02*
X119688095Y-66298333D01*
%TO.C,J1*%
X156866666Y-61662619D02*
X156866666Y-62376904D01*
X156866666Y-62376904D02*
X156819047Y-62519761D01*
X156819047Y-62519761D02*
X156723809Y-62615000D01*
X156723809Y-62615000D02*
X156580952Y-62662619D01*
X156580952Y-62662619D02*
X156485714Y-62662619D01*
X157866666Y-62662619D02*
X157295238Y-62662619D01*
X157580952Y-62662619D02*
X157580952Y-61662619D01*
X157580952Y-61662619D02*
X157485714Y-61805476D01*
X157485714Y-61805476D02*
X157390476Y-61900714D01*
X157390476Y-61900714D02*
X157295238Y-61948333D01*
%TO.C,U2*%
X146488095Y-95662619D02*
X146488095Y-96472142D01*
X146488095Y-96472142D02*
X146535714Y-96567380D01*
X146535714Y-96567380D02*
X146583333Y-96615000D01*
X146583333Y-96615000D02*
X146678571Y-96662619D01*
X146678571Y-96662619D02*
X146869047Y-96662619D01*
X146869047Y-96662619D02*
X146964285Y-96615000D01*
X146964285Y-96615000D02*
X147011904Y-96567380D01*
X147011904Y-96567380D02*
X147059523Y-96472142D01*
X147059523Y-96472142D02*
X147059523Y-95662619D01*
X147488095Y-95757857D02*
X147535714Y-95710238D01*
X147535714Y-95710238D02*
X147630952Y-95662619D01*
X147630952Y-95662619D02*
X147869047Y-95662619D01*
X147869047Y-95662619D02*
X147964285Y-95710238D01*
X147964285Y-95710238D02*
X148011904Y-95757857D01*
X148011904Y-95757857D02*
X148059523Y-95853095D01*
X148059523Y-95853095D02*
X148059523Y-95948333D01*
X148059523Y-95948333D02*
X148011904Y-96091190D01*
X148011904Y-96091190D02*
X147440476Y-96662619D01*
X147440476Y-96662619D02*
X148059523Y-96662619D01*
%TO.C,C11*%
X166107142Y-108547380D02*
X166059523Y-108595000D01*
X166059523Y-108595000D02*
X165916666Y-108642619D01*
X165916666Y-108642619D02*
X165821428Y-108642619D01*
X165821428Y-108642619D02*
X165678571Y-108595000D01*
X165678571Y-108595000D02*
X165583333Y-108499761D01*
X165583333Y-108499761D02*
X165535714Y-108404523D01*
X165535714Y-108404523D02*
X165488095Y-108214047D01*
X165488095Y-108214047D02*
X165488095Y-108071190D01*
X165488095Y-108071190D02*
X165535714Y-107880714D01*
X165535714Y-107880714D02*
X165583333Y-107785476D01*
X165583333Y-107785476D02*
X165678571Y-107690238D01*
X165678571Y-107690238D02*
X165821428Y-107642619D01*
X165821428Y-107642619D02*
X165916666Y-107642619D01*
X165916666Y-107642619D02*
X166059523Y-107690238D01*
X166059523Y-107690238D02*
X166107142Y-107737857D01*
X167059523Y-108642619D02*
X166488095Y-108642619D01*
X166773809Y-108642619D02*
X166773809Y-107642619D01*
X166773809Y-107642619D02*
X166678571Y-107785476D01*
X166678571Y-107785476D02*
X166583333Y-107880714D01*
X166583333Y-107880714D02*
X166488095Y-107928333D01*
X168011904Y-108642619D02*
X167440476Y-108642619D01*
X167726190Y-108642619D02*
X167726190Y-107642619D01*
X167726190Y-107642619D02*
X167630952Y-107785476D01*
X167630952Y-107785476D02*
X167535714Y-107880714D01*
X167535714Y-107880714D02*
X167440476Y-107928333D01*
%TO.C,C7*%
X127583333Y-98547380D02*
X127535714Y-98595000D01*
X127535714Y-98595000D02*
X127392857Y-98642619D01*
X127392857Y-98642619D02*
X127297619Y-98642619D01*
X127297619Y-98642619D02*
X127154762Y-98595000D01*
X127154762Y-98595000D02*
X127059524Y-98499761D01*
X127059524Y-98499761D02*
X127011905Y-98404523D01*
X127011905Y-98404523D02*
X126964286Y-98214047D01*
X126964286Y-98214047D02*
X126964286Y-98071190D01*
X126964286Y-98071190D02*
X127011905Y-97880714D01*
X127011905Y-97880714D02*
X127059524Y-97785476D01*
X127059524Y-97785476D02*
X127154762Y-97690238D01*
X127154762Y-97690238D02*
X127297619Y-97642619D01*
X127297619Y-97642619D02*
X127392857Y-97642619D01*
X127392857Y-97642619D02*
X127535714Y-97690238D01*
X127535714Y-97690238D02*
X127583333Y-97737857D01*
X127916667Y-97642619D02*
X128583333Y-97642619D01*
X128583333Y-97642619D02*
X128154762Y-98642619D01*
%TO.C,R5*%
X122392619Y-72416666D02*
X121916428Y-72749999D01*
X122392619Y-72988094D02*
X121392619Y-72988094D01*
X121392619Y-72988094D02*
X121392619Y-72607142D01*
X121392619Y-72607142D02*
X121440238Y-72511904D01*
X121440238Y-72511904D02*
X121487857Y-72464285D01*
X121487857Y-72464285D02*
X121583095Y-72416666D01*
X121583095Y-72416666D02*
X121725952Y-72416666D01*
X121725952Y-72416666D02*
X121821190Y-72464285D01*
X121821190Y-72464285D02*
X121868809Y-72511904D01*
X121868809Y-72511904D02*
X121916428Y-72607142D01*
X121916428Y-72607142D02*
X121916428Y-72988094D01*
X121392619Y-71511904D02*
X121392619Y-71988094D01*
X121392619Y-71988094D02*
X121868809Y-72035713D01*
X121868809Y-72035713D02*
X121821190Y-71988094D01*
X121821190Y-71988094D02*
X121773571Y-71892856D01*
X121773571Y-71892856D02*
X121773571Y-71654761D01*
X121773571Y-71654761D02*
X121821190Y-71559523D01*
X121821190Y-71559523D02*
X121868809Y-71511904D01*
X121868809Y-71511904D02*
X121964047Y-71464285D01*
X121964047Y-71464285D02*
X122202142Y-71464285D01*
X122202142Y-71464285D02*
X122297380Y-71511904D01*
X122297380Y-71511904D02*
X122345000Y-71559523D01*
X122345000Y-71559523D02*
X122392619Y-71654761D01*
X122392619Y-71654761D02*
X122392619Y-71892856D01*
X122392619Y-71892856D02*
X122345000Y-71988094D01*
X122345000Y-71988094D02*
X122297380Y-72035713D01*
%TO.C,C5*%
X132033333Y-76410714D02*
X131985714Y-76458334D01*
X131985714Y-76458334D02*
X131842857Y-76505953D01*
X131842857Y-76505953D02*
X131747619Y-76505953D01*
X131747619Y-76505953D02*
X131604762Y-76458334D01*
X131604762Y-76458334D02*
X131509524Y-76363095D01*
X131509524Y-76363095D02*
X131461905Y-76267857D01*
X131461905Y-76267857D02*
X131414286Y-76077381D01*
X131414286Y-76077381D02*
X131414286Y-75934524D01*
X131414286Y-75934524D02*
X131461905Y-75744048D01*
X131461905Y-75744048D02*
X131509524Y-75648810D01*
X131509524Y-75648810D02*
X131604762Y-75553572D01*
X131604762Y-75553572D02*
X131747619Y-75505953D01*
X131747619Y-75505953D02*
X131842857Y-75505953D01*
X131842857Y-75505953D02*
X131985714Y-75553572D01*
X131985714Y-75553572D02*
X132033333Y-75601191D01*
X132938095Y-75505953D02*
X132461905Y-75505953D01*
X132461905Y-75505953D02*
X132414286Y-75982143D01*
X132414286Y-75982143D02*
X132461905Y-75934524D01*
X132461905Y-75934524D02*
X132557143Y-75886905D01*
X132557143Y-75886905D02*
X132795238Y-75886905D01*
X132795238Y-75886905D02*
X132890476Y-75934524D01*
X132890476Y-75934524D02*
X132938095Y-75982143D01*
X132938095Y-75982143D02*
X132985714Y-76077381D01*
X132985714Y-76077381D02*
X132985714Y-76315476D01*
X132985714Y-76315476D02*
X132938095Y-76410714D01*
X132938095Y-76410714D02*
X132890476Y-76458334D01*
X132890476Y-76458334D02*
X132795238Y-76505953D01*
X132795238Y-76505953D02*
X132557143Y-76505953D01*
X132557143Y-76505953D02*
X132461905Y-76458334D01*
X132461905Y-76458334D02*
X132414286Y-76410714D01*
%TO.C,J2*%
X170416666Y-80462619D02*
X170416666Y-81176904D01*
X170416666Y-81176904D02*
X170369047Y-81319761D01*
X170369047Y-81319761D02*
X170273809Y-81415000D01*
X170273809Y-81415000D02*
X170130952Y-81462619D01*
X170130952Y-81462619D02*
X170035714Y-81462619D01*
X170845238Y-80557857D02*
X170892857Y-80510238D01*
X170892857Y-80510238D02*
X170988095Y-80462619D01*
X170988095Y-80462619D02*
X171226190Y-80462619D01*
X171226190Y-80462619D02*
X171321428Y-80510238D01*
X171321428Y-80510238D02*
X171369047Y-80557857D01*
X171369047Y-80557857D02*
X171416666Y-80653095D01*
X171416666Y-80653095D02*
X171416666Y-80748333D01*
X171416666Y-80748333D02*
X171369047Y-80891190D01*
X171369047Y-80891190D02*
X170797619Y-81462619D01*
X170797619Y-81462619D02*
X171416666Y-81462619D01*
%TO.C,R4*%
X117462619Y-72416666D02*
X116986428Y-72749999D01*
X117462619Y-72988094D02*
X116462619Y-72988094D01*
X116462619Y-72988094D02*
X116462619Y-72607142D01*
X116462619Y-72607142D02*
X116510238Y-72511904D01*
X116510238Y-72511904D02*
X116557857Y-72464285D01*
X116557857Y-72464285D02*
X116653095Y-72416666D01*
X116653095Y-72416666D02*
X116795952Y-72416666D01*
X116795952Y-72416666D02*
X116891190Y-72464285D01*
X116891190Y-72464285D02*
X116938809Y-72511904D01*
X116938809Y-72511904D02*
X116986428Y-72607142D01*
X116986428Y-72607142D02*
X116986428Y-72988094D01*
X116795952Y-71559523D02*
X117462619Y-71559523D01*
X116415000Y-71797618D02*
X117129285Y-72035713D01*
X117129285Y-72035713D02*
X117129285Y-71416666D01*
%TO.C,R14*%
X140607142Y-92892619D02*
X140273809Y-92416428D01*
X140035714Y-92892619D02*
X140035714Y-91892619D01*
X140035714Y-91892619D02*
X140416666Y-91892619D01*
X140416666Y-91892619D02*
X140511904Y-91940238D01*
X140511904Y-91940238D02*
X140559523Y-91987857D01*
X140559523Y-91987857D02*
X140607142Y-92083095D01*
X140607142Y-92083095D02*
X140607142Y-92225952D01*
X140607142Y-92225952D02*
X140559523Y-92321190D01*
X140559523Y-92321190D02*
X140511904Y-92368809D01*
X140511904Y-92368809D02*
X140416666Y-92416428D01*
X140416666Y-92416428D02*
X140035714Y-92416428D01*
X141559523Y-92892619D02*
X140988095Y-92892619D01*
X141273809Y-92892619D02*
X141273809Y-91892619D01*
X141273809Y-91892619D02*
X141178571Y-92035476D01*
X141178571Y-92035476D02*
X141083333Y-92130714D01*
X141083333Y-92130714D02*
X140988095Y-92178333D01*
X142416666Y-92225952D02*
X142416666Y-92892619D01*
X142178571Y-91845000D02*
X141940476Y-92559285D01*
X141940476Y-92559285D02*
X142559523Y-92559285D01*
%TO.C,C10*%
X145767380Y-107842857D02*
X145815000Y-107890476D01*
X145815000Y-107890476D02*
X145862619Y-108033333D01*
X145862619Y-108033333D02*
X145862619Y-108128571D01*
X145862619Y-108128571D02*
X145815000Y-108271428D01*
X145815000Y-108271428D02*
X145719761Y-108366666D01*
X145719761Y-108366666D02*
X145624523Y-108414285D01*
X145624523Y-108414285D02*
X145434047Y-108461904D01*
X145434047Y-108461904D02*
X145291190Y-108461904D01*
X145291190Y-108461904D02*
X145100714Y-108414285D01*
X145100714Y-108414285D02*
X145005476Y-108366666D01*
X145005476Y-108366666D02*
X144910238Y-108271428D01*
X144910238Y-108271428D02*
X144862619Y-108128571D01*
X144862619Y-108128571D02*
X144862619Y-108033333D01*
X144862619Y-108033333D02*
X144910238Y-107890476D01*
X144910238Y-107890476D02*
X144957857Y-107842857D01*
X145862619Y-106890476D02*
X145862619Y-107461904D01*
X145862619Y-107176190D02*
X144862619Y-107176190D01*
X144862619Y-107176190D02*
X145005476Y-107271428D01*
X145005476Y-107271428D02*
X145100714Y-107366666D01*
X145100714Y-107366666D02*
X145148333Y-107461904D01*
X144862619Y-106271428D02*
X144862619Y-106176190D01*
X144862619Y-106176190D02*
X144910238Y-106080952D01*
X144910238Y-106080952D02*
X144957857Y-106033333D01*
X144957857Y-106033333D02*
X145053095Y-105985714D01*
X145053095Y-105985714D02*
X145243571Y-105938095D01*
X145243571Y-105938095D02*
X145481666Y-105938095D01*
X145481666Y-105938095D02*
X145672142Y-105985714D01*
X145672142Y-105985714D02*
X145767380Y-106033333D01*
X145767380Y-106033333D02*
X145815000Y-106080952D01*
X145815000Y-106080952D02*
X145862619Y-106176190D01*
X145862619Y-106176190D02*
X145862619Y-106271428D01*
X145862619Y-106271428D02*
X145815000Y-106366666D01*
X145815000Y-106366666D02*
X145767380Y-106414285D01*
X145767380Y-106414285D02*
X145672142Y-106461904D01*
X145672142Y-106461904D02*
X145481666Y-106509523D01*
X145481666Y-106509523D02*
X145243571Y-106509523D01*
X145243571Y-106509523D02*
X145053095Y-106461904D01*
X145053095Y-106461904D02*
X144957857Y-106414285D01*
X144957857Y-106414285D02*
X144910238Y-106366666D01*
X144910238Y-106366666D02*
X144862619Y-106271428D01*
%TO.C,Q3*%
X132054761Y-73757857D02*
X131959523Y-73710238D01*
X131959523Y-73710238D02*
X131864285Y-73615000D01*
X131864285Y-73615000D02*
X131721428Y-73472142D01*
X131721428Y-73472142D02*
X131626190Y-73424523D01*
X131626190Y-73424523D02*
X131530952Y-73424523D01*
X131578571Y-73662619D02*
X131483333Y-73615000D01*
X131483333Y-73615000D02*
X131388095Y-73519761D01*
X131388095Y-73519761D02*
X131340476Y-73329285D01*
X131340476Y-73329285D02*
X131340476Y-72995952D01*
X131340476Y-72995952D02*
X131388095Y-72805476D01*
X131388095Y-72805476D02*
X131483333Y-72710238D01*
X131483333Y-72710238D02*
X131578571Y-72662619D01*
X131578571Y-72662619D02*
X131769047Y-72662619D01*
X131769047Y-72662619D02*
X131864285Y-72710238D01*
X131864285Y-72710238D02*
X131959523Y-72805476D01*
X131959523Y-72805476D02*
X132007142Y-72995952D01*
X132007142Y-72995952D02*
X132007142Y-73329285D01*
X132007142Y-73329285D02*
X131959523Y-73519761D01*
X131959523Y-73519761D02*
X131864285Y-73615000D01*
X131864285Y-73615000D02*
X131769047Y-73662619D01*
X131769047Y-73662619D02*
X131578571Y-73662619D01*
X132340476Y-72662619D02*
X132959523Y-72662619D01*
X132959523Y-72662619D02*
X132626190Y-73043571D01*
X132626190Y-73043571D02*
X132769047Y-73043571D01*
X132769047Y-73043571D02*
X132864285Y-73091190D01*
X132864285Y-73091190D02*
X132911904Y-73138809D01*
X132911904Y-73138809D02*
X132959523Y-73234047D01*
X132959523Y-73234047D02*
X132959523Y-73472142D01*
X132959523Y-73472142D02*
X132911904Y-73567380D01*
X132911904Y-73567380D02*
X132864285Y-73615000D01*
X132864285Y-73615000D02*
X132769047Y-73662619D01*
X132769047Y-73662619D02*
X132483333Y-73662619D01*
X132483333Y-73662619D02*
X132388095Y-73615000D01*
X132388095Y-73615000D02*
X132340476Y-73567380D01*
%TO.C,Q6*%
X149207857Y-87095238D02*
X149160238Y-87190476D01*
X149160238Y-87190476D02*
X149065000Y-87285714D01*
X149065000Y-87285714D02*
X148922142Y-87428571D01*
X148922142Y-87428571D02*
X148874523Y-87523809D01*
X148874523Y-87523809D02*
X148874523Y-87619047D01*
X149112619Y-87571428D02*
X149065000Y-87666666D01*
X149065000Y-87666666D02*
X148969761Y-87761904D01*
X148969761Y-87761904D02*
X148779285Y-87809523D01*
X148779285Y-87809523D02*
X148445952Y-87809523D01*
X148445952Y-87809523D02*
X148255476Y-87761904D01*
X148255476Y-87761904D02*
X148160238Y-87666666D01*
X148160238Y-87666666D02*
X148112619Y-87571428D01*
X148112619Y-87571428D02*
X148112619Y-87380952D01*
X148112619Y-87380952D02*
X148160238Y-87285714D01*
X148160238Y-87285714D02*
X148255476Y-87190476D01*
X148255476Y-87190476D02*
X148445952Y-87142857D01*
X148445952Y-87142857D02*
X148779285Y-87142857D01*
X148779285Y-87142857D02*
X148969761Y-87190476D01*
X148969761Y-87190476D02*
X149065000Y-87285714D01*
X149065000Y-87285714D02*
X149112619Y-87380952D01*
X149112619Y-87380952D02*
X149112619Y-87571428D01*
X148112619Y-86285714D02*
X148112619Y-86476190D01*
X148112619Y-86476190D02*
X148160238Y-86571428D01*
X148160238Y-86571428D02*
X148207857Y-86619047D01*
X148207857Y-86619047D02*
X148350714Y-86714285D01*
X148350714Y-86714285D02*
X148541190Y-86761904D01*
X148541190Y-86761904D02*
X148922142Y-86761904D01*
X148922142Y-86761904D02*
X149017380Y-86714285D01*
X149017380Y-86714285D02*
X149065000Y-86666666D01*
X149065000Y-86666666D02*
X149112619Y-86571428D01*
X149112619Y-86571428D02*
X149112619Y-86380952D01*
X149112619Y-86380952D02*
X149065000Y-86285714D01*
X149065000Y-86285714D02*
X149017380Y-86238095D01*
X149017380Y-86238095D02*
X148922142Y-86190476D01*
X148922142Y-86190476D02*
X148684047Y-86190476D01*
X148684047Y-86190476D02*
X148588809Y-86238095D01*
X148588809Y-86238095D02*
X148541190Y-86285714D01*
X148541190Y-86285714D02*
X148493571Y-86380952D01*
X148493571Y-86380952D02*
X148493571Y-86571428D01*
X148493571Y-86571428D02*
X148541190Y-86666666D01*
X148541190Y-86666666D02*
X148588809Y-86714285D01*
X148588809Y-86714285D02*
X148684047Y-86761904D01*
%TO.C,U3*%
X168738095Y-97212619D02*
X168738095Y-98022142D01*
X168738095Y-98022142D02*
X168785714Y-98117380D01*
X168785714Y-98117380D02*
X168833333Y-98165000D01*
X168833333Y-98165000D02*
X168928571Y-98212619D01*
X168928571Y-98212619D02*
X169119047Y-98212619D01*
X169119047Y-98212619D02*
X169214285Y-98165000D01*
X169214285Y-98165000D02*
X169261904Y-98117380D01*
X169261904Y-98117380D02*
X169309523Y-98022142D01*
X169309523Y-98022142D02*
X169309523Y-97212619D01*
X169690476Y-97212619D02*
X170309523Y-97212619D01*
X170309523Y-97212619D02*
X169976190Y-97593571D01*
X169976190Y-97593571D02*
X170119047Y-97593571D01*
X170119047Y-97593571D02*
X170214285Y-97641190D01*
X170214285Y-97641190D02*
X170261904Y-97688809D01*
X170261904Y-97688809D02*
X170309523Y-97784047D01*
X170309523Y-97784047D02*
X170309523Y-98022142D01*
X170309523Y-98022142D02*
X170261904Y-98117380D01*
X170261904Y-98117380D02*
X170214285Y-98165000D01*
X170214285Y-98165000D02*
X170119047Y-98212619D01*
X170119047Y-98212619D02*
X169833333Y-98212619D01*
X169833333Y-98212619D02*
X169738095Y-98165000D01*
X169738095Y-98165000D02*
X169690476Y-98117380D01*
%TO.C,R9*%
X166762619Y-83866666D02*
X166286428Y-84199999D01*
X166762619Y-84438094D02*
X165762619Y-84438094D01*
X165762619Y-84438094D02*
X165762619Y-84057142D01*
X165762619Y-84057142D02*
X165810238Y-83961904D01*
X165810238Y-83961904D02*
X165857857Y-83914285D01*
X165857857Y-83914285D02*
X165953095Y-83866666D01*
X165953095Y-83866666D02*
X166095952Y-83866666D01*
X166095952Y-83866666D02*
X166191190Y-83914285D01*
X166191190Y-83914285D02*
X166238809Y-83961904D01*
X166238809Y-83961904D02*
X166286428Y-84057142D01*
X166286428Y-84057142D02*
X166286428Y-84438094D01*
X166762619Y-83390475D02*
X166762619Y-83199999D01*
X166762619Y-83199999D02*
X166715000Y-83104761D01*
X166715000Y-83104761D02*
X166667380Y-83057142D01*
X166667380Y-83057142D02*
X166524523Y-82961904D01*
X166524523Y-82961904D02*
X166334047Y-82914285D01*
X166334047Y-82914285D02*
X165953095Y-82914285D01*
X165953095Y-82914285D02*
X165857857Y-82961904D01*
X165857857Y-82961904D02*
X165810238Y-83009523D01*
X165810238Y-83009523D02*
X165762619Y-83104761D01*
X165762619Y-83104761D02*
X165762619Y-83295237D01*
X165762619Y-83295237D02*
X165810238Y-83390475D01*
X165810238Y-83390475D02*
X165857857Y-83438094D01*
X165857857Y-83438094D02*
X165953095Y-83485713D01*
X165953095Y-83485713D02*
X166191190Y-83485713D01*
X166191190Y-83485713D02*
X166286428Y-83438094D01*
X166286428Y-83438094D02*
X166334047Y-83390475D01*
X166334047Y-83390475D02*
X166381666Y-83295237D01*
X166381666Y-83295237D02*
X166381666Y-83104761D01*
X166381666Y-83104761D02*
X166334047Y-83009523D01*
X166334047Y-83009523D02*
X166286428Y-82961904D01*
X166286428Y-82961904D02*
X166191190Y-82914285D01*
%TO.C,J4*%
X120325119Y-101833333D02*
X121039404Y-101833333D01*
X121039404Y-101833333D02*
X121182261Y-101880952D01*
X121182261Y-101880952D02*
X121277500Y-101976190D01*
X121277500Y-101976190D02*
X121325119Y-102119047D01*
X121325119Y-102119047D02*
X121325119Y-102214285D01*
X120658452Y-100928571D02*
X121325119Y-100928571D01*
X120277500Y-101166666D02*
X120991785Y-101404761D01*
X120991785Y-101404761D02*
X120991785Y-100785714D01*
%TO.C,R12*%
X136862619Y-89842857D02*
X136386428Y-90176190D01*
X136862619Y-90414285D02*
X135862619Y-90414285D01*
X135862619Y-90414285D02*
X135862619Y-90033333D01*
X135862619Y-90033333D02*
X135910238Y-89938095D01*
X135910238Y-89938095D02*
X135957857Y-89890476D01*
X135957857Y-89890476D02*
X136053095Y-89842857D01*
X136053095Y-89842857D02*
X136195952Y-89842857D01*
X136195952Y-89842857D02*
X136291190Y-89890476D01*
X136291190Y-89890476D02*
X136338809Y-89938095D01*
X136338809Y-89938095D02*
X136386428Y-90033333D01*
X136386428Y-90033333D02*
X136386428Y-90414285D01*
X136862619Y-88890476D02*
X136862619Y-89461904D01*
X136862619Y-89176190D02*
X135862619Y-89176190D01*
X135862619Y-89176190D02*
X136005476Y-89271428D01*
X136005476Y-89271428D02*
X136100714Y-89366666D01*
X136100714Y-89366666D02*
X136148333Y-89461904D01*
X135957857Y-88509523D02*
X135910238Y-88461904D01*
X135910238Y-88461904D02*
X135862619Y-88366666D01*
X135862619Y-88366666D02*
X135862619Y-88128571D01*
X135862619Y-88128571D02*
X135910238Y-88033333D01*
X135910238Y-88033333D02*
X135957857Y-87985714D01*
X135957857Y-87985714D02*
X136053095Y-87938095D01*
X136053095Y-87938095D02*
X136148333Y-87938095D01*
X136148333Y-87938095D02*
X136291190Y-87985714D01*
X136291190Y-87985714D02*
X136862619Y-88557142D01*
X136862619Y-88557142D02*
X136862619Y-87938095D01*
%TO.C,Q4*%
X160607857Y-85645238D02*
X160560238Y-85740476D01*
X160560238Y-85740476D02*
X160465000Y-85835714D01*
X160465000Y-85835714D02*
X160322142Y-85978571D01*
X160322142Y-85978571D02*
X160274523Y-86073809D01*
X160274523Y-86073809D02*
X160274523Y-86169047D01*
X160512619Y-86121428D02*
X160465000Y-86216666D01*
X160465000Y-86216666D02*
X160369761Y-86311904D01*
X160369761Y-86311904D02*
X160179285Y-86359523D01*
X160179285Y-86359523D02*
X159845952Y-86359523D01*
X159845952Y-86359523D02*
X159655476Y-86311904D01*
X159655476Y-86311904D02*
X159560238Y-86216666D01*
X159560238Y-86216666D02*
X159512619Y-86121428D01*
X159512619Y-86121428D02*
X159512619Y-85930952D01*
X159512619Y-85930952D02*
X159560238Y-85835714D01*
X159560238Y-85835714D02*
X159655476Y-85740476D01*
X159655476Y-85740476D02*
X159845952Y-85692857D01*
X159845952Y-85692857D02*
X160179285Y-85692857D01*
X160179285Y-85692857D02*
X160369761Y-85740476D01*
X160369761Y-85740476D02*
X160465000Y-85835714D01*
X160465000Y-85835714D02*
X160512619Y-85930952D01*
X160512619Y-85930952D02*
X160512619Y-86121428D01*
X159845952Y-84835714D02*
X160512619Y-84835714D01*
X159465000Y-85073809D02*
X160179285Y-85311904D01*
X160179285Y-85311904D02*
X160179285Y-84692857D01*
%TO.C,SW1*%
X174615000Y-70933332D02*
X174662619Y-70790475D01*
X174662619Y-70790475D02*
X174662619Y-70552380D01*
X174662619Y-70552380D02*
X174615000Y-70457142D01*
X174615000Y-70457142D02*
X174567380Y-70409523D01*
X174567380Y-70409523D02*
X174472142Y-70361904D01*
X174472142Y-70361904D02*
X174376904Y-70361904D01*
X174376904Y-70361904D02*
X174281666Y-70409523D01*
X174281666Y-70409523D02*
X174234047Y-70457142D01*
X174234047Y-70457142D02*
X174186428Y-70552380D01*
X174186428Y-70552380D02*
X174138809Y-70742856D01*
X174138809Y-70742856D02*
X174091190Y-70838094D01*
X174091190Y-70838094D02*
X174043571Y-70885713D01*
X174043571Y-70885713D02*
X173948333Y-70933332D01*
X173948333Y-70933332D02*
X173853095Y-70933332D01*
X173853095Y-70933332D02*
X173757857Y-70885713D01*
X173757857Y-70885713D02*
X173710238Y-70838094D01*
X173710238Y-70838094D02*
X173662619Y-70742856D01*
X173662619Y-70742856D02*
X173662619Y-70504761D01*
X173662619Y-70504761D02*
X173710238Y-70361904D01*
X173662619Y-70028570D02*
X174662619Y-69790475D01*
X174662619Y-69790475D02*
X173948333Y-69599999D01*
X173948333Y-69599999D02*
X174662619Y-69409523D01*
X174662619Y-69409523D02*
X173662619Y-69171428D01*
X174662619Y-68266666D02*
X174662619Y-68838094D01*
X174662619Y-68552380D02*
X173662619Y-68552380D01*
X173662619Y-68552380D02*
X173805476Y-68647618D01*
X173805476Y-68647618D02*
X173900714Y-68742856D01*
X173900714Y-68742856D02*
X173948333Y-68838094D01*
%TO.C,C9*%
X142583333Y-103297380D02*
X142535714Y-103345000D01*
X142535714Y-103345000D02*
X142392857Y-103392619D01*
X142392857Y-103392619D02*
X142297619Y-103392619D01*
X142297619Y-103392619D02*
X142154762Y-103345000D01*
X142154762Y-103345000D02*
X142059524Y-103249761D01*
X142059524Y-103249761D02*
X142011905Y-103154523D01*
X142011905Y-103154523D02*
X141964286Y-102964047D01*
X141964286Y-102964047D02*
X141964286Y-102821190D01*
X141964286Y-102821190D02*
X142011905Y-102630714D01*
X142011905Y-102630714D02*
X142059524Y-102535476D01*
X142059524Y-102535476D02*
X142154762Y-102440238D01*
X142154762Y-102440238D02*
X142297619Y-102392619D01*
X142297619Y-102392619D02*
X142392857Y-102392619D01*
X142392857Y-102392619D02*
X142535714Y-102440238D01*
X142535714Y-102440238D02*
X142583333Y-102487857D01*
X143059524Y-103392619D02*
X143250000Y-103392619D01*
X143250000Y-103392619D02*
X143345238Y-103345000D01*
X143345238Y-103345000D02*
X143392857Y-103297380D01*
X143392857Y-103297380D02*
X143488095Y-103154523D01*
X143488095Y-103154523D02*
X143535714Y-102964047D01*
X143535714Y-102964047D02*
X143535714Y-102583095D01*
X143535714Y-102583095D02*
X143488095Y-102487857D01*
X143488095Y-102487857D02*
X143440476Y-102440238D01*
X143440476Y-102440238D02*
X143345238Y-102392619D01*
X143345238Y-102392619D02*
X143154762Y-102392619D01*
X143154762Y-102392619D02*
X143059524Y-102440238D01*
X143059524Y-102440238D02*
X143011905Y-102487857D01*
X143011905Y-102487857D02*
X142964286Y-102583095D01*
X142964286Y-102583095D02*
X142964286Y-102821190D01*
X142964286Y-102821190D02*
X143011905Y-102916428D01*
X143011905Y-102916428D02*
X143059524Y-102964047D01*
X143059524Y-102964047D02*
X143154762Y-103011666D01*
X143154762Y-103011666D02*
X143345238Y-103011666D01*
X143345238Y-103011666D02*
X143440476Y-102964047D01*
X143440476Y-102964047D02*
X143488095Y-102916428D01*
X143488095Y-102916428D02*
X143535714Y-102821190D01*
%TO.C,D3*%
X139712619Y-93103094D02*
X138712619Y-93103094D01*
X138712619Y-93103094D02*
X138712619Y-92864999D01*
X138712619Y-92864999D02*
X138760238Y-92722142D01*
X138760238Y-92722142D02*
X138855476Y-92626904D01*
X138855476Y-92626904D02*
X138950714Y-92579285D01*
X138950714Y-92579285D02*
X139141190Y-92531666D01*
X139141190Y-92531666D02*
X139284047Y-92531666D01*
X139284047Y-92531666D02*
X139474523Y-92579285D01*
X139474523Y-92579285D02*
X139569761Y-92626904D01*
X139569761Y-92626904D02*
X139665000Y-92722142D01*
X139665000Y-92722142D02*
X139712619Y-92864999D01*
X139712619Y-92864999D02*
X139712619Y-93103094D01*
X138712619Y-92198332D02*
X138712619Y-91579285D01*
X138712619Y-91579285D02*
X139093571Y-91912618D01*
X139093571Y-91912618D02*
X139093571Y-91769761D01*
X139093571Y-91769761D02*
X139141190Y-91674523D01*
X139141190Y-91674523D02*
X139188809Y-91626904D01*
X139188809Y-91626904D02*
X139284047Y-91579285D01*
X139284047Y-91579285D02*
X139522142Y-91579285D01*
X139522142Y-91579285D02*
X139617380Y-91626904D01*
X139617380Y-91626904D02*
X139665000Y-91674523D01*
X139665000Y-91674523D02*
X139712619Y-91769761D01*
X139712619Y-91769761D02*
X139712619Y-92055475D01*
X139712619Y-92055475D02*
X139665000Y-92150713D01*
X139665000Y-92150713D02*
X139617380Y-92198332D01*
%TO.C,R16*%
X148162619Y-107869047D02*
X147686428Y-108202380D01*
X148162619Y-108440475D02*
X147162619Y-108440475D01*
X147162619Y-108440475D02*
X147162619Y-108059523D01*
X147162619Y-108059523D02*
X147210238Y-107964285D01*
X147210238Y-107964285D02*
X147257857Y-107916666D01*
X147257857Y-107916666D02*
X147353095Y-107869047D01*
X147353095Y-107869047D02*
X147495952Y-107869047D01*
X147495952Y-107869047D02*
X147591190Y-107916666D01*
X147591190Y-107916666D02*
X147638809Y-107964285D01*
X147638809Y-107964285D02*
X147686428Y-108059523D01*
X147686428Y-108059523D02*
X147686428Y-108440475D01*
X148162619Y-106916666D02*
X148162619Y-107488094D01*
X148162619Y-107202380D02*
X147162619Y-107202380D01*
X147162619Y-107202380D02*
X147305476Y-107297618D01*
X147305476Y-107297618D02*
X147400714Y-107392856D01*
X147400714Y-107392856D02*
X147448333Y-107488094D01*
X147162619Y-106059523D02*
X147162619Y-106249999D01*
X147162619Y-106249999D02*
X147210238Y-106345237D01*
X147210238Y-106345237D02*
X147257857Y-106392856D01*
X147257857Y-106392856D02*
X147400714Y-106488094D01*
X147400714Y-106488094D02*
X147591190Y-106535713D01*
X147591190Y-106535713D02*
X147972142Y-106535713D01*
X147972142Y-106535713D02*
X148067380Y-106488094D01*
X148067380Y-106488094D02*
X148115000Y-106440475D01*
X148115000Y-106440475D02*
X148162619Y-106345237D01*
X148162619Y-106345237D02*
X148162619Y-106154761D01*
X148162619Y-106154761D02*
X148115000Y-106059523D01*
X148115000Y-106059523D02*
X148067380Y-106011904D01*
X148067380Y-106011904D02*
X147972142Y-105964285D01*
X147972142Y-105964285D02*
X147734047Y-105964285D01*
X147734047Y-105964285D02*
X147638809Y-106011904D01*
X147638809Y-106011904D02*
X147591190Y-106059523D01*
X147591190Y-106059523D02*
X147543571Y-106154761D01*
X147543571Y-106154761D02*
X147543571Y-106345237D01*
X147543571Y-106345237D02*
X147591190Y-106440475D01*
X147591190Y-106440475D02*
X147638809Y-106488094D01*
X147638809Y-106488094D02*
X147734047Y-106535713D01*
%TO.C,R17*%
X150262619Y-107869047D02*
X149786428Y-108202380D01*
X150262619Y-108440475D02*
X149262619Y-108440475D01*
X149262619Y-108440475D02*
X149262619Y-108059523D01*
X149262619Y-108059523D02*
X149310238Y-107964285D01*
X149310238Y-107964285D02*
X149357857Y-107916666D01*
X149357857Y-107916666D02*
X149453095Y-107869047D01*
X149453095Y-107869047D02*
X149595952Y-107869047D01*
X149595952Y-107869047D02*
X149691190Y-107916666D01*
X149691190Y-107916666D02*
X149738809Y-107964285D01*
X149738809Y-107964285D02*
X149786428Y-108059523D01*
X149786428Y-108059523D02*
X149786428Y-108440475D01*
X150262619Y-106916666D02*
X150262619Y-107488094D01*
X150262619Y-107202380D02*
X149262619Y-107202380D01*
X149262619Y-107202380D02*
X149405476Y-107297618D01*
X149405476Y-107297618D02*
X149500714Y-107392856D01*
X149500714Y-107392856D02*
X149548333Y-107488094D01*
X149262619Y-106583332D02*
X149262619Y-105916666D01*
X149262619Y-105916666D02*
X150262619Y-106345237D01*
%TO.C,R8*%
X132033333Y-79462619D02*
X131700000Y-78986428D01*
X131461905Y-79462619D02*
X131461905Y-78462619D01*
X131461905Y-78462619D02*
X131842857Y-78462619D01*
X131842857Y-78462619D02*
X131938095Y-78510238D01*
X131938095Y-78510238D02*
X131985714Y-78557857D01*
X131985714Y-78557857D02*
X132033333Y-78653095D01*
X132033333Y-78653095D02*
X132033333Y-78795952D01*
X132033333Y-78795952D02*
X131985714Y-78891190D01*
X131985714Y-78891190D02*
X131938095Y-78938809D01*
X131938095Y-78938809D02*
X131842857Y-78986428D01*
X131842857Y-78986428D02*
X131461905Y-78986428D01*
X132604762Y-78891190D02*
X132509524Y-78843571D01*
X132509524Y-78843571D02*
X132461905Y-78795952D01*
X132461905Y-78795952D02*
X132414286Y-78700714D01*
X132414286Y-78700714D02*
X132414286Y-78653095D01*
X132414286Y-78653095D02*
X132461905Y-78557857D01*
X132461905Y-78557857D02*
X132509524Y-78510238D01*
X132509524Y-78510238D02*
X132604762Y-78462619D01*
X132604762Y-78462619D02*
X132795238Y-78462619D01*
X132795238Y-78462619D02*
X132890476Y-78510238D01*
X132890476Y-78510238D02*
X132938095Y-78557857D01*
X132938095Y-78557857D02*
X132985714Y-78653095D01*
X132985714Y-78653095D02*
X132985714Y-78700714D01*
X132985714Y-78700714D02*
X132938095Y-78795952D01*
X132938095Y-78795952D02*
X132890476Y-78843571D01*
X132890476Y-78843571D02*
X132795238Y-78891190D01*
X132795238Y-78891190D02*
X132604762Y-78891190D01*
X132604762Y-78891190D02*
X132509524Y-78938809D01*
X132509524Y-78938809D02*
X132461905Y-78986428D01*
X132461905Y-78986428D02*
X132414286Y-79081666D01*
X132414286Y-79081666D02*
X132414286Y-79272142D01*
X132414286Y-79272142D02*
X132461905Y-79367380D01*
X132461905Y-79367380D02*
X132509524Y-79415000D01*
X132509524Y-79415000D02*
X132604762Y-79462619D01*
X132604762Y-79462619D02*
X132795238Y-79462619D01*
X132795238Y-79462619D02*
X132890476Y-79415000D01*
X132890476Y-79415000D02*
X132938095Y-79367380D01*
X132938095Y-79367380D02*
X132985714Y-79272142D01*
X132985714Y-79272142D02*
X132985714Y-79081666D01*
X132985714Y-79081666D02*
X132938095Y-78986428D01*
X132938095Y-78986428D02*
X132890476Y-78938809D01*
X132890476Y-78938809D02*
X132795238Y-78891190D01*
%TO.C,D6*%
X123892619Y-105738094D02*
X122892619Y-105738094D01*
X122892619Y-105738094D02*
X122892619Y-105499999D01*
X122892619Y-105499999D02*
X122940238Y-105357142D01*
X122940238Y-105357142D02*
X123035476Y-105261904D01*
X123035476Y-105261904D02*
X123130714Y-105214285D01*
X123130714Y-105214285D02*
X123321190Y-105166666D01*
X123321190Y-105166666D02*
X123464047Y-105166666D01*
X123464047Y-105166666D02*
X123654523Y-105214285D01*
X123654523Y-105214285D02*
X123749761Y-105261904D01*
X123749761Y-105261904D02*
X123845000Y-105357142D01*
X123845000Y-105357142D02*
X123892619Y-105499999D01*
X123892619Y-105499999D02*
X123892619Y-105738094D01*
X122892619Y-104309523D02*
X122892619Y-104499999D01*
X122892619Y-104499999D02*
X122940238Y-104595237D01*
X122940238Y-104595237D02*
X122987857Y-104642856D01*
X122987857Y-104642856D02*
X123130714Y-104738094D01*
X123130714Y-104738094D02*
X123321190Y-104785713D01*
X123321190Y-104785713D02*
X123702142Y-104785713D01*
X123702142Y-104785713D02*
X123797380Y-104738094D01*
X123797380Y-104738094D02*
X123845000Y-104690475D01*
X123845000Y-104690475D02*
X123892619Y-104595237D01*
X123892619Y-104595237D02*
X123892619Y-104404761D01*
X123892619Y-104404761D02*
X123845000Y-104309523D01*
X123845000Y-104309523D02*
X123797380Y-104261904D01*
X123797380Y-104261904D02*
X123702142Y-104214285D01*
X123702142Y-104214285D02*
X123464047Y-104214285D01*
X123464047Y-104214285D02*
X123368809Y-104261904D01*
X123368809Y-104261904D02*
X123321190Y-104309523D01*
X123321190Y-104309523D02*
X123273571Y-104404761D01*
X123273571Y-104404761D02*
X123273571Y-104595237D01*
X123273571Y-104595237D02*
X123321190Y-104690475D01*
X123321190Y-104690475D02*
X123368809Y-104738094D01*
X123368809Y-104738094D02*
X123464047Y-104785713D01*
%TO.C,R6*%
X124087619Y-72416666D02*
X123611428Y-72749999D01*
X124087619Y-72988094D02*
X123087619Y-72988094D01*
X123087619Y-72988094D02*
X123087619Y-72607142D01*
X123087619Y-72607142D02*
X123135238Y-72511904D01*
X123135238Y-72511904D02*
X123182857Y-72464285D01*
X123182857Y-72464285D02*
X123278095Y-72416666D01*
X123278095Y-72416666D02*
X123420952Y-72416666D01*
X123420952Y-72416666D02*
X123516190Y-72464285D01*
X123516190Y-72464285D02*
X123563809Y-72511904D01*
X123563809Y-72511904D02*
X123611428Y-72607142D01*
X123611428Y-72607142D02*
X123611428Y-72988094D01*
X123087619Y-71559523D02*
X123087619Y-71749999D01*
X123087619Y-71749999D02*
X123135238Y-71845237D01*
X123135238Y-71845237D02*
X123182857Y-71892856D01*
X123182857Y-71892856D02*
X123325714Y-71988094D01*
X123325714Y-71988094D02*
X123516190Y-72035713D01*
X123516190Y-72035713D02*
X123897142Y-72035713D01*
X123897142Y-72035713D02*
X123992380Y-71988094D01*
X123992380Y-71988094D02*
X124040000Y-71940475D01*
X124040000Y-71940475D02*
X124087619Y-71845237D01*
X124087619Y-71845237D02*
X124087619Y-71654761D01*
X124087619Y-71654761D02*
X124040000Y-71559523D01*
X124040000Y-71559523D02*
X123992380Y-71511904D01*
X123992380Y-71511904D02*
X123897142Y-71464285D01*
X123897142Y-71464285D02*
X123659047Y-71464285D01*
X123659047Y-71464285D02*
X123563809Y-71511904D01*
X123563809Y-71511904D02*
X123516190Y-71559523D01*
X123516190Y-71559523D02*
X123468571Y-71654761D01*
X123468571Y-71654761D02*
X123468571Y-71845237D01*
X123468571Y-71845237D02*
X123516190Y-71940475D01*
X123516190Y-71940475D02*
X123563809Y-71988094D01*
X123563809Y-71988094D02*
X123659047Y-72035713D01*
%TO.C,R15*%
X151057142Y-103442619D02*
X150723809Y-102966428D01*
X150485714Y-103442619D02*
X150485714Y-102442619D01*
X150485714Y-102442619D02*
X150866666Y-102442619D01*
X150866666Y-102442619D02*
X150961904Y-102490238D01*
X150961904Y-102490238D02*
X151009523Y-102537857D01*
X151009523Y-102537857D02*
X151057142Y-102633095D01*
X151057142Y-102633095D02*
X151057142Y-102775952D01*
X151057142Y-102775952D02*
X151009523Y-102871190D01*
X151009523Y-102871190D02*
X150961904Y-102918809D01*
X150961904Y-102918809D02*
X150866666Y-102966428D01*
X150866666Y-102966428D02*
X150485714Y-102966428D01*
X152009523Y-103442619D02*
X151438095Y-103442619D01*
X151723809Y-103442619D02*
X151723809Y-102442619D01*
X151723809Y-102442619D02*
X151628571Y-102585476D01*
X151628571Y-102585476D02*
X151533333Y-102680714D01*
X151533333Y-102680714D02*
X151438095Y-102728333D01*
X152914285Y-102442619D02*
X152438095Y-102442619D01*
X152438095Y-102442619D02*
X152390476Y-102918809D01*
X152390476Y-102918809D02*
X152438095Y-102871190D01*
X152438095Y-102871190D02*
X152533333Y-102823571D01*
X152533333Y-102823571D02*
X152771428Y-102823571D01*
X152771428Y-102823571D02*
X152866666Y-102871190D01*
X152866666Y-102871190D02*
X152914285Y-102918809D01*
X152914285Y-102918809D02*
X152961904Y-103014047D01*
X152961904Y-103014047D02*
X152961904Y-103252142D01*
X152961904Y-103252142D02*
X152914285Y-103347380D01*
X152914285Y-103347380D02*
X152866666Y-103395000D01*
X152866666Y-103395000D02*
X152771428Y-103442619D01*
X152771428Y-103442619D02*
X152533333Y-103442619D01*
X152533333Y-103442619D02*
X152438095Y-103395000D01*
X152438095Y-103395000D02*
X152390476Y-103347380D01*
D12*
%TO.C,D4*%
X123900000Y-99690000D02*
X122600000Y-99690000D01*
X122600000Y-102810000D02*
X124600000Y-102810000D01*
%TO.C,Q5*%
X139690000Y-87000000D02*
X139690000Y-88675000D01*
X139690000Y-87000000D02*
X139690000Y-86350000D01*
X142810000Y-87000000D02*
X142810000Y-87650000D01*
X142810000Y-87000000D02*
X142810000Y-86350000D01*
%TO.C,R10*%
X145627500Y-88174758D02*
X145627500Y-87700242D01*
X146672500Y-88174758D02*
X146672500Y-87700242D01*
%TO.C,U1*%
X136500000Y-55100000D02*
X136500000Y-61850000D01*
X136500000Y-55100000D02*
X154500000Y-55100000D01*
X136500000Y-79850000D02*
X136500000Y-80600000D01*
X136500000Y-80600000D02*
X137250000Y-80600000D01*
X137250000Y-80600000D02*
X139000000Y-80600000D01*
X153750000Y-80600000D02*
X152000000Y-80600000D01*
X154500000Y-55100000D02*
X154500000Y-61850000D01*
X154500000Y-61040000D02*
X136500000Y-61040000D01*
X154500000Y-79850000D02*
X154500000Y-80600000D01*
X154500000Y-80600000D02*
X153750000Y-80600000D01*
%TO.C,R1*%
X128272500Y-63512742D02*
X128272500Y-63987258D01*
X127227500Y-63512742D02*
X127227500Y-63987258D01*
%TO.C,C2*%
X133390580Y-63260000D02*
X133109420Y-63260000D01*
X133390580Y-62240000D02*
X133109420Y-62240000D01*
%TO.C,D1*%
X134060000Y-85500000D02*
X134060000Y-83700000D01*
X134060000Y-85500000D02*
X134060000Y-86300000D01*
X130940000Y-85500000D02*
X130940000Y-84700000D01*
X130940000Y-85500000D02*
X130940000Y-86300000D01*
D13*
%TO.C,J3*%
X117750000Y-77500000D02*
X115175000Y-77500000D01*
X115175000Y-77500000D02*
X115175000Y-92500000D01*
D14*
X128550000Y-89500000D02*
X128550000Y-89500000D01*
X128350000Y-89500000D02*
X128350000Y-89500000D01*
D13*
X115175000Y-92500000D02*
X117750000Y-92500000D01*
D14*
X128350000Y-89500000D02*
G75*
G03*
X128550000Y-89500000I100000J0D01*
G01*
X128550000Y-89500000D02*
G75*
G03*
X128350000Y-89500000I-100000J0D01*
G01*
D12*
%TO.C,C3*%
X133390580Y-66260000D02*
X133109420Y-66260000D01*
X133390580Y-65240000D02*
X133109420Y-65240000D01*
%TO.C,D2*%
X167250000Y-90150000D02*
X167250000Y-82850000D01*
X172750000Y-90150000D02*
X172750000Y-82850000D01*
X172750000Y-82850000D02*
X171600000Y-82850000D01*
%TO.C,C1*%
X129990000Y-63890580D02*
X129990000Y-63609420D01*
X131010000Y-63890580D02*
X131010000Y-63609420D01*
%TO.C,C8*%
X163240000Y-101640580D02*
X163240000Y-101359420D01*
X164260000Y-101640580D02*
X164260000Y-101359420D01*
%TO.C,R7*%
X127272500Y-72012742D02*
X127272500Y-72487258D01*
X126227500Y-72012742D02*
X126227500Y-72487258D01*
%TO.C,C6*%
X169365580Y-92510000D02*
X169084420Y-92510000D01*
X169365580Y-91490000D02*
X169084420Y-91490000D01*
%TO.C,R2*%
X165922500Y-64162742D02*
X165922500Y-64637258D01*
X164877500Y-64162742D02*
X164877500Y-64637258D01*
%TO.C,R3*%
X132237258Y-69122500D02*
X131762742Y-69122500D01*
X132237258Y-68077500D02*
X131762742Y-68077500D01*
%TO.C,C4*%
X165910000Y-69259420D02*
X165910000Y-69540580D01*
X164890000Y-69259420D02*
X164890000Y-69540580D01*
%TO.C,Q2*%
X125070000Y-69660000D02*
X126480000Y-69660000D01*
X126480000Y-67340000D02*
X124450000Y-67340000D01*
X126480000Y-67340000D02*
X126480000Y-68000000D01*
X126480000Y-69000000D02*
X126480000Y-69660000D01*
%TO.C,R18*%
X124477500Y-105237258D02*
X124477500Y-104762742D01*
X125522500Y-105237258D02*
X125522500Y-104762742D01*
%TO.C,R11*%
X162062258Y-89522500D02*
X161587742Y-89522500D01*
X162062258Y-88477500D02*
X161587742Y-88477500D01*
%TO.C,R13*%
X161587742Y-91477500D02*
X162062258Y-91477500D01*
X161587742Y-92522500D02*
X162062258Y-92522500D01*
%TO.C,D5*%
X129360000Y-100600000D02*
X129360000Y-98900000D01*
X129360000Y-100600000D02*
X126700000Y-100600000D01*
X129360000Y-98900000D02*
X126700000Y-98900000D01*
%TO.C,Q1*%
X118820000Y-69660000D02*
X120230000Y-69660000D01*
X120230000Y-67340000D02*
X118200000Y-67340000D01*
X120230000Y-67340000D02*
X120230000Y-68000000D01*
X120230000Y-69000000D02*
X120230000Y-69660000D01*
%TO.C,J1*%
X156130000Y-65930000D02*
X156130000Y-64600000D01*
X157460000Y-65930000D02*
X156130000Y-65930000D01*
X158730000Y-65930000D02*
X163870000Y-65930000D01*
X158730000Y-65930000D02*
X158730000Y-63270000D01*
X163870000Y-65930000D02*
X163870000Y-63270000D01*
X158730000Y-63270000D02*
X163870000Y-63270000D01*
%TO.C,U2*%
X145140000Y-101610000D02*
X145140000Y-101135000D01*
X145615000Y-97390000D02*
X145140000Y-97390000D01*
X145615000Y-101610000D02*
X145140000Y-101610000D01*
X148885000Y-97390000D02*
X149360000Y-97390000D01*
X148885000Y-101610000D02*
X149360000Y-101610000D01*
X149360000Y-97390000D02*
X149360000Y-97865000D01*
X149360000Y-101610000D02*
X149360000Y-101135000D01*
%TO.C,C11*%
X166890580Y-107260000D02*
X166609420Y-107260000D01*
X166890580Y-106240000D02*
X166609420Y-106240000D01*
%TO.C,C7*%
X127890580Y-97260000D02*
X127609420Y-97260000D01*
X127890580Y-96240000D02*
X127609420Y-96240000D01*
%TO.C,R5*%
X121022500Y-72012742D02*
X121022500Y-72487258D01*
X119977500Y-72012742D02*
X119977500Y-72487258D01*
%TO.C,C5*%
X131859420Y-74290000D02*
X132140580Y-74290000D01*
X131859420Y-75310000D02*
X132140580Y-75310000D01*
%TO.C,J2*%
X161650000Y-73975000D02*
X161650000Y-75225000D01*
X161940000Y-74265000D02*
X161940000Y-80235000D01*
X161940000Y-80235000D02*
X172060000Y-80235000D01*
X161950000Y-74275000D02*
X161950000Y-75025000D01*
X161950000Y-75025000D02*
X163750000Y-75025000D01*
X161950000Y-76525000D02*
X162700000Y-76525000D01*
X162700000Y-76525000D02*
X162700000Y-79475000D01*
X162700000Y-79475000D02*
X167000000Y-79475000D01*
X162900000Y-73975000D02*
X161650000Y-73975000D01*
X163750000Y-74275000D02*
X161950000Y-74275000D01*
X163750000Y-75025000D02*
X163750000Y-74275000D01*
X165250000Y-74275000D02*
X165250000Y-75025000D01*
X165250000Y-75025000D02*
X168750000Y-75025000D01*
X168750000Y-74275000D02*
X165250000Y-74275000D01*
X168750000Y-75025000D02*
X168750000Y-74275000D01*
X170250000Y-74275000D02*
X170250000Y-75025000D01*
X170250000Y-75025000D02*
X172050000Y-75025000D01*
X171300000Y-76525000D02*
X171300000Y-79475000D01*
X171300000Y-79475000D02*
X167000000Y-79475000D01*
X172050000Y-74275000D02*
X170250000Y-74275000D01*
X172050000Y-75025000D02*
X172050000Y-74275000D01*
X172050000Y-76525000D02*
X171300000Y-76525000D01*
X172060000Y-74265000D02*
X161940000Y-74265000D01*
X172060000Y-80235000D02*
X172060000Y-74265000D01*
%TO.C,R4*%
X119022500Y-72012742D02*
X119022500Y-72487258D01*
X117977500Y-72012742D02*
X117977500Y-72487258D01*
%TO.C,R14*%
X141487258Y-91522500D02*
X141012742Y-91522500D01*
X141487258Y-90477500D02*
X141012742Y-90477500D01*
%TO.C,C10*%
X145760000Y-104109420D02*
X145760000Y-104390580D01*
X144740000Y-104109420D02*
X144740000Y-104390580D01*
%TO.C,Q3*%
X131520000Y-72360000D02*
X132930000Y-72360000D01*
X132930000Y-70040000D02*
X130900000Y-70040000D01*
X132930000Y-70040000D02*
X132930000Y-70700000D01*
X132930000Y-71700000D02*
X132930000Y-72360000D01*
%TO.C,Q6*%
X149490000Y-87000000D02*
X149490000Y-88675000D01*
X149490000Y-87000000D02*
X149490000Y-86350000D01*
X152610000Y-87000000D02*
X152610000Y-87650000D01*
X152610000Y-87000000D02*
X152610000Y-86350000D01*
%TO.C,U3*%
X165400000Y-98840000D02*
X171410000Y-98840000D01*
X167650000Y-105660000D02*
X171410000Y-105660000D01*
X171410000Y-98840000D02*
X171410000Y-100100000D01*
X171410000Y-105660000D02*
X171410000Y-104400000D01*
%TO.C,R9*%
X166772500Y-86262742D02*
X166772500Y-86737258D01*
X165727500Y-86262742D02*
X165727500Y-86737258D01*
%TO.C,J4*%
X119512500Y-97600000D02*
X119512500Y-98050000D01*
X117662500Y-97600000D02*
X119512500Y-97600000D01*
X115112500Y-97600000D02*
X115362500Y-97600000D01*
X120062500Y-99800000D02*
X119612500Y-99800000D01*
X120062500Y-99800000D02*
X120062500Y-100250000D01*
X119512500Y-105400000D02*
X119512500Y-104950000D01*
X117662500Y-105400000D02*
X119512500Y-105400000D01*
X115112500Y-105400000D02*
X115362500Y-105400000D01*
%TO.C,R12*%
X134477500Y-89462258D02*
X134477500Y-88987742D01*
X135522500Y-89462258D02*
X135522500Y-88987742D01*
%TO.C,Q4*%
X163160000Y-86180000D02*
X163160000Y-84770000D01*
X160840000Y-84770000D02*
X160840000Y-86800000D01*
X160840000Y-84770000D02*
X161500000Y-84770000D01*
X162500000Y-84770000D02*
X163160000Y-84770000D01*
%TO.C,SW1*%
X173430000Y-64270000D02*
X173430000Y-70730000D01*
X173400000Y-64270000D02*
X173430000Y-64270000D01*
X171500000Y-64270000D02*
X168900000Y-64270000D01*
X166970000Y-64270000D02*
X167000000Y-64270000D01*
X166970000Y-64270000D02*
X166970000Y-70730000D01*
X173430000Y-70730000D02*
X173400000Y-70730000D01*
X171500000Y-70730000D02*
X168900000Y-70730000D01*
X166970000Y-70730000D02*
X167000000Y-70730000D01*
%TO.C,C9*%
X142890580Y-102010000D02*
X142609420Y-102010000D01*
X142890580Y-100990000D02*
X142609420Y-100990000D01*
%TO.C,D3*%
X138250000Y-90755000D02*
X136550000Y-90755000D01*
X138250000Y-90755000D02*
X138250000Y-93415000D01*
X136550000Y-90755000D02*
X136550000Y-93415000D01*
%TO.C,R16*%
X146902500Y-104487258D02*
X146902500Y-104012742D01*
X147947500Y-104487258D02*
X147947500Y-104012742D01*
%TO.C,R17*%
X149077500Y-104487258D02*
X149077500Y-104012742D01*
X150122500Y-104487258D02*
X150122500Y-104012742D01*
%TO.C,R8*%
X132237258Y-78022500D02*
X131762742Y-78022500D01*
X132237258Y-76977500D02*
X131762742Y-76977500D01*
%TO.C,D6*%
X122735000Y-103515000D02*
X121265000Y-103515000D01*
X121265000Y-103515000D02*
X121265000Y-105800000D01*
X122735000Y-105800000D02*
X122735000Y-103515000D01*
%TO.C,R6*%
X125272500Y-72012742D02*
X125272500Y-72487258D01*
X124227500Y-72012742D02*
X124227500Y-72487258D01*
%TO.C,R15*%
X151937258Y-102072500D02*
X151462742Y-102072500D01*
X151937258Y-101027500D02*
X151462742Y-101027500D01*
%TD*%
M02*
