%TF.GenerationSoftware,KiCad,Pcbnew,7.0.2*%
%TF.CreationDate,2023-05-30T18:58:33-07:00*%
%TF.ProjectId,TvMux,54764d75-782e-46b6-9963-61645f706362,rev?*%
%TF.SameCoordinates,Original*%
%TF.FileFunction,Soldermask,Top*%
%TF.FilePolarity,Negative*%
%FSLAX46Y46*%
G04 Gerber Fmt 4.6, Leading zero omitted, Abs format (unit mm)*
G04 Created by KiCad (PCBNEW 7.0.2) date 2023-05-30 18:58:33*
%MOMM*%
%LPD*%
G01*
G04 APERTURE LIST*
G04 Aperture macros list*
%AMRoundRect*
0 Rectangle with rounded corners*
0 $1 Rounding radius*
0 $2 $3 $4 $5 $6 $7 $8 $9 X,Y pos of 4 corners*
0 Add a 4 corners polygon primitive as box body*
4,1,4,$2,$3,$4,$5,$6,$7,$8,$9,$2,$3,0*
0 Add four circle primitives for the rounded corners*
1,1,$1+$1,$2,$3*
1,1,$1+$1,$4,$5*
1,1,$1+$1,$6,$7*
1,1,$1+$1,$8,$9*
0 Add four rect primitives between the rounded corners*
20,1,$1+$1,$2,$3,$4,$5,0*
20,1,$1+$1,$4,$5,$6,$7,0*
20,1,$1+$1,$6,$7,$8,$9,0*
20,1,$1+$1,$8,$9,$2,$3,0*%
G04 Aperture macros list end*
%ADD10R,0.700000X1.000000*%
%ADD11R,0.700000X0.600000*%
%ADD12RoundRect,0.150000X0.150000X-0.587500X0.150000X0.587500X-0.150000X0.587500X-0.150000X-0.587500X0*%
%ADD13RoundRect,0.200000X0.275000X-0.200000X0.275000X0.200000X-0.275000X0.200000X-0.275000X-0.200000X0*%
%ADD14R,1.500000X0.900000*%
%ADD15R,0.900000X1.500000*%
%ADD16R,1.050000X1.050000*%
%ADD17RoundRect,0.200000X-0.275000X0.200000X-0.275000X-0.200000X0.275000X-0.200000X0.275000X0.200000X0*%
%ADD18RoundRect,0.225000X0.225000X0.250000X-0.225000X0.250000X-0.225000X-0.250000X0.225000X-0.250000X0*%
%ADD19RoundRect,0.150000X-0.150000X0.512500X-0.150000X-0.512500X0.150000X-0.512500X0.150000X0.512500X0*%
%ADD20R,2.600000X0.300000*%
%ADD21C,4.275000*%
%ADD22C,2.880000*%
%ADD23R,1.000000X1.500000*%
%ADD24RoundRect,0.225000X0.250000X-0.225000X0.250000X0.225000X-0.250000X0.225000X-0.250000X-0.225000X0*%
%ADD25RoundRect,0.200000X0.200000X0.275000X-0.200000X0.275000X-0.200000X-0.275000X0.200000X-0.275000X0*%
%ADD26RoundRect,0.225000X-0.250000X0.225000X-0.250000X-0.225000X0.250000X-0.225000X0.250000X0.225000X0*%
%ADD27R,0.700000X0.450000*%
%ADD28RoundRect,0.200000X-0.200000X-0.275000X0.200000X-0.275000X0.200000X0.275000X-0.200000X0.275000X0*%
%ADD29RoundRect,0.112500X0.187500X0.112500X-0.187500X0.112500X-0.187500X-0.112500X0.187500X-0.112500X0*%
%ADD30R,1.700000X1.700000*%
%ADD31O,1.700000X1.700000*%
%ADD32RoundRect,0.062500X-0.350000X-0.062500X0.350000X-0.062500X0.350000X0.062500X-0.350000X0.062500X0*%
%ADD33RoundRect,0.062500X-0.062500X-0.350000X0.062500X-0.350000X0.062500X0.350000X-0.062500X0.350000X0*%
%ADD34R,2.600000X2.600000*%
%ADD35RoundRect,0.225000X-0.225000X-0.250000X0.225000X-0.250000X0.225000X0.250000X-0.225000X0.250000X0*%
%ADD36RoundRect,0.250000X-0.600000X-0.725000X0.600000X-0.725000X0.600000X0.725000X-0.600000X0.725000X0*%
%ADD37O,1.700000X1.950000*%
%ADD38R,2.000000X1.500000*%
%ADD39R,2.000000X3.800000*%
%ADD40R,1.350000X0.400000*%
%ADD41O,1.900000X1.200000*%
%ADD42R,1.900000X1.200000*%
%ADD43C,1.450000*%
%ADD44R,1.900000X1.500000*%
%ADD45R,0.450000X0.700000*%
%ADD46R,1.300000X1.550000*%
%ADD47RoundRect,0.112500X-0.112500X0.187500X-0.112500X-0.187500X0.112500X-0.187500X0.112500X0.187500X0*%
%ADD48RoundRect,0.218750X-0.256250X0.218750X-0.256250X-0.218750X0.256250X-0.218750X0.256250X0.218750X0*%
G04 APERTURE END LIST*
D10*
%TO.C,D4*%
X124250000Y-102000000D03*
D11*
X124250000Y-100300000D03*
X122250000Y-100300000D03*
X122250000Y-102200000D03*
%TD*%
D12*
%TO.C,Q5*%
X140300000Y-87937500D03*
X142200000Y-87937500D03*
X141250000Y-86062500D03*
%TD*%
D13*
%TO.C,R10*%
X146150000Y-88762500D03*
X146150000Y-87112500D03*
%TD*%
D14*
%TO.C,U1*%
X136750000Y-62590000D03*
X136750000Y-63860000D03*
X136750000Y-65130000D03*
X136750000Y-66400000D03*
X136750000Y-67670000D03*
X136750000Y-68940000D03*
X136750000Y-70210000D03*
X136750000Y-71480000D03*
X136750000Y-72750000D03*
X136750000Y-74020000D03*
X136750000Y-75290000D03*
X136750000Y-76560000D03*
X136750000Y-77830000D03*
X136750000Y-79100000D03*
D15*
X139780000Y-80350000D03*
X141050000Y-80350000D03*
X142320000Y-80350000D03*
X143590000Y-80350000D03*
X144860000Y-80350000D03*
X146130000Y-80350000D03*
X147400000Y-80350000D03*
X148670000Y-80350000D03*
X149940000Y-80350000D03*
X151210000Y-80350000D03*
D14*
X154250000Y-79100000D03*
X154250000Y-77830000D03*
X154250000Y-76560000D03*
X154250000Y-75290000D03*
X154250000Y-74020000D03*
X154250000Y-72750000D03*
X154250000Y-71480000D03*
X154250000Y-70210000D03*
X154250000Y-68940000D03*
X154250000Y-67670000D03*
X154250000Y-66400000D03*
X154250000Y-65130000D03*
X154250000Y-63860000D03*
X154250000Y-62590000D03*
D16*
X143295000Y-68405000D03*
X143295000Y-69930000D03*
X143295000Y-71455000D03*
X144820000Y-68405000D03*
X144820000Y-69930000D03*
X144820000Y-71455000D03*
X146345000Y-68405000D03*
X146345000Y-69930000D03*
X146345000Y-71455000D03*
%TD*%
D17*
%TO.C,R1*%
X127750000Y-62925000D03*
X127750000Y-64575000D03*
%TD*%
D18*
%TO.C,C2*%
X134025000Y-62750000D03*
X132475000Y-62750000D03*
%TD*%
D19*
%TO.C,D1*%
X133450000Y-84362500D03*
X132500000Y-84362500D03*
X131550000Y-84362500D03*
X131550000Y-86637500D03*
X132500000Y-86637500D03*
X133450000Y-86637500D03*
%TD*%
D20*
%TO.C,J3*%
X126485000Y-89500000D03*
X126485000Y-89000000D03*
X126485000Y-88500000D03*
X126485000Y-88000000D03*
X126485000Y-87500000D03*
X126485000Y-87000000D03*
X126485000Y-86500000D03*
X126485000Y-86000000D03*
X126485000Y-85500000D03*
X126485000Y-85000000D03*
X126485000Y-84500000D03*
X126485000Y-84000000D03*
X126485000Y-83500000D03*
X126485000Y-83000000D03*
X126485000Y-82500000D03*
X126485000Y-82000000D03*
X126485000Y-81500000D03*
X126485000Y-81000000D03*
X126485000Y-80500000D03*
D21*
X125725000Y-77750000D03*
X125725000Y-92250000D03*
D22*
X119765000Y-77750000D03*
X119765000Y-92250000D03*
%TD*%
D18*
%TO.C,C3*%
X134025000Y-65750000D03*
X132475000Y-65750000D03*
%TD*%
D23*
%TO.C,D2*%
X171600000Y-84050000D03*
X168400000Y-84050000D03*
X168400000Y-88950000D03*
X171600000Y-88950000D03*
%TD*%
D24*
%TO.C,C1*%
X130500000Y-64525000D03*
X130500000Y-62975000D03*
%TD*%
%TO.C,C8*%
X163750000Y-102275000D03*
X163750000Y-100725000D03*
%TD*%
D17*
%TO.C,R7*%
X126750000Y-71425000D03*
X126750000Y-73075000D03*
%TD*%
D18*
%TO.C,C6*%
X170000000Y-92000000D03*
X168450000Y-92000000D03*
%TD*%
D17*
%TO.C,R2*%
X165400000Y-63575000D03*
X165400000Y-65225000D03*
%TD*%
D25*
%TO.C,R3*%
X132825000Y-68600000D03*
X131175000Y-68600000D03*
%TD*%
D26*
%TO.C,C4*%
X165400000Y-68625000D03*
X165400000Y-70175000D03*
%TD*%
D27*
%TO.C,Q2*%
X124750000Y-67850000D03*
X124750000Y-69150000D03*
X126750000Y-68500000D03*
%TD*%
D13*
%TO.C,R18*%
X125000000Y-105825000D03*
X125000000Y-104175000D03*
%TD*%
D25*
%TO.C,R11*%
X162650000Y-89000000D03*
X161000000Y-89000000D03*
%TD*%
D28*
%TO.C,R13*%
X161000000Y-92000000D03*
X162650000Y-92000000D03*
%TD*%
D29*
%TO.C,D5*%
X128800000Y-99750000D03*
X126700000Y-99750000D03*
%TD*%
D27*
%TO.C,Q1*%
X118500000Y-67850000D03*
X118500000Y-69150000D03*
X120500000Y-68500000D03*
%TD*%
D30*
%TO.C,J1*%
X157460000Y-64600000D03*
D31*
X160000000Y-64600000D03*
X162540000Y-64600000D03*
%TD*%
D32*
%TO.C,U2*%
X145312500Y-98250000D03*
X145312500Y-98750000D03*
X145312500Y-99250000D03*
X145312500Y-99750000D03*
X145312500Y-100250000D03*
X145312500Y-100750000D03*
D33*
X146000000Y-101437500D03*
X146500000Y-101437500D03*
X147000000Y-101437500D03*
X147500000Y-101437500D03*
X148000000Y-101437500D03*
X148500000Y-101437500D03*
D32*
X149187500Y-100750000D03*
X149187500Y-100250000D03*
X149187500Y-99750000D03*
X149187500Y-99250000D03*
X149187500Y-98750000D03*
X149187500Y-98250000D03*
D33*
X148500000Y-97562500D03*
X148000000Y-97562500D03*
X147500000Y-97562500D03*
X147000000Y-97562500D03*
X146500000Y-97562500D03*
X146000000Y-97562500D03*
D34*
X147250000Y-99500000D03*
%TD*%
D18*
%TO.C,C11*%
X167525000Y-106750000D03*
X165975000Y-106750000D03*
%TD*%
%TO.C,C7*%
X128525000Y-96750000D03*
X126975000Y-96750000D03*
%TD*%
D17*
%TO.C,R5*%
X120500000Y-71425000D03*
X120500000Y-73075000D03*
%TD*%
D35*
%TO.C,C5*%
X131225000Y-74800000D03*
X132775000Y-74800000D03*
%TD*%
D36*
%TO.C,J2*%
X164500000Y-76725000D03*
D37*
X167000000Y-76725000D03*
X169500000Y-76725000D03*
%TD*%
D17*
%TO.C,R4*%
X118500000Y-71425000D03*
X118500000Y-73075000D03*
%TD*%
D25*
%TO.C,R14*%
X142075000Y-91000000D03*
X140425000Y-91000000D03*
%TD*%
D26*
%TO.C,C10*%
X145250000Y-103475000D03*
X145250000Y-105025000D03*
%TD*%
D27*
%TO.C,Q3*%
X131200000Y-70550000D03*
X131200000Y-71850000D03*
X133200000Y-71200000D03*
%TD*%
D12*
%TO.C,Q6*%
X150100000Y-87937500D03*
X152000000Y-87937500D03*
X151050000Y-86062500D03*
%TD*%
D38*
%TO.C,U3*%
X166350000Y-99950000D03*
X166350000Y-102250000D03*
D39*
X172650000Y-102250000D03*
D38*
X166350000Y-104550000D03*
%TD*%
D17*
%TO.C,R9*%
X166250000Y-85675000D03*
X166250000Y-87325000D03*
%TD*%
D40*
%TO.C,J4*%
X119212500Y-100200000D03*
X119212500Y-100850000D03*
X119212500Y-101500000D03*
X119212500Y-102150000D03*
X119212500Y-102800000D03*
D41*
X116512500Y-98000000D03*
D42*
X116512500Y-98600000D03*
D43*
X119212500Y-99000000D03*
D44*
X116512500Y-100500000D03*
X116512500Y-102500000D03*
D43*
X119212500Y-104000000D03*
D42*
X116512500Y-104400000D03*
D41*
X116512500Y-105000000D03*
%TD*%
D13*
%TO.C,R12*%
X135000000Y-90050000D03*
X135000000Y-88400000D03*
%TD*%
D45*
%TO.C,Q4*%
X161350000Y-86500000D03*
X162650000Y-86500000D03*
X162000000Y-84500000D03*
%TD*%
D46*
%TO.C,SW1*%
X172450000Y-63525000D03*
X172450000Y-71475000D03*
X167950000Y-63525000D03*
X167950000Y-71475000D03*
%TD*%
D18*
%TO.C,C9*%
X143525000Y-101500000D03*
X141975000Y-101500000D03*
%TD*%
D47*
%TO.C,D3*%
X137400000Y-91315000D03*
X137400000Y-93415000D03*
%TD*%
D13*
%TO.C,R16*%
X147425000Y-105075000D03*
X147425000Y-103425000D03*
%TD*%
%TO.C,R17*%
X149600000Y-105075000D03*
X149600000Y-103425000D03*
%TD*%
D25*
%TO.C,R8*%
X132825000Y-77500000D03*
X131175000Y-77500000D03*
%TD*%
D48*
%TO.C,D6*%
X122000000Y-104212500D03*
X122000000Y-105787500D03*
%TD*%
D17*
%TO.C,R6*%
X124750000Y-71425000D03*
X124750000Y-73075000D03*
%TD*%
D25*
%TO.C,R15*%
X152525000Y-101550000D03*
X150875000Y-101550000D03*
%TD*%
M02*
