%TF.GenerationSoftware,KiCad,Pcbnew,7.0.2*%
%TF.CreationDate,2023-05-30T18:58:33-07:00*%
%TF.ProjectId,TvMux,54764d75-782e-46b6-9963-61645f706362,rev?*%
%TF.SameCoordinates,Original*%
%TF.FileFunction,Copper,L1,Top*%
%TF.FilePolarity,Positive*%
%FSLAX46Y46*%
G04 Gerber Fmt 4.6, Leading zero omitted, Abs format (unit mm)*
G04 Created by KiCad (PCBNEW 7.0.2) date 2023-05-30 18:58:33*
%MOMM*%
%LPD*%
G01*
G04 APERTURE LIST*
G04 Aperture macros list*
%AMRoundRect*
0 Rectangle with rounded corners*
0 $1 Rounding radius*
0 $2 $3 $4 $5 $6 $7 $8 $9 X,Y pos of 4 corners*
0 Add a 4 corners polygon primitive as box body*
4,1,4,$2,$3,$4,$5,$6,$7,$8,$9,$2,$3,0*
0 Add four circle primitives for the rounded corners*
1,1,$1+$1,$2,$3*
1,1,$1+$1,$4,$5*
1,1,$1+$1,$6,$7*
1,1,$1+$1,$8,$9*
0 Add four rect primitives between the rounded corners*
20,1,$1+$1,$2,$3,$4,$5,0*
20,1,$1+$1,$4,$5,$6,$7,0*
20,1,$1+$1,$6,$7,$8,$9,0*
20,1,$1+$1,$8,$9,$2,$3,0*%
G04 Aperture macros list end*
%TA.AperFunction,SMDPad,CuDef*%
%ADD10R,0.700000X1.000000*%
%TD*%
%TA.AperFunction,SMDPad,CuDef*%
%ADD11R,0.700000X0.600000*%
%TD*%
%TA.AperFunction,SMDPad,CuDef*%
%ADD12RoundRect,0.150000X0.150000X-0.587500X0.150000X0.587500X-0.150000X0.587500X-0.150000X-0.587500X0*%
%TD*%
%TA.AperFunction,SMDPad,CuDef*%
%ADD13RoundRect,0.200000X0.275000X-0.200000X0.275000X0.200000X-0.275000X0.200000X-0.275000X-0.200000X0*%
%TD*%
%TA.AperFunction,SMDPad,CuDef*%
%ADD14R,1.500000X0.900000*%
%TD*%
%TA.AperFunction,SMDPad,CuDef*%
%ADD15R,0.900000X1.500000*%
%TD*%
%TA.AperFunction,SMDPad,CuDef*%
%ADD16R,1.050000X1.050000*%
%TD*%
%TA.AperFunction,SMDPad,CuDef*%
%ADD17RoundRect,0.200000X-0.275000X0.200000X-0.275000X-0.200000X0.275000X-0.200000X0.275000X0.200000X0*%
%TD*%
%TA.AperFunction,SMDPad,CuDef*%
%ADD18RoundRect,0.225000X0.225000X0.250000X-0.225000X0.250000X-0.225000X-0.250000X0.225000X-0.250000X0*%
%TD*%
%TA.AperFunction,SMDPad,CuDef*%
%ADD19RoundRect,0.150000X-0.150000X0.512500X-0.150000X-0.512500X0.150000X-0.512500X0.150000X0.512500X0*%
%TD*%
%TA.AperFunction,SMDPad,CuDef*%
%ADD20R,2.600000X0.300000*%
%TD*%
%TA.AperFunction,ComponentPad*%
%ADD21C,4.275000*%
%TD*%
%TA.AperFunction,ComponentPad*%
%ADD22C,2.880000*%
%TD*%
%TA.AperFunction,SMDPad,CuDef*%
%ADD23R,1.000000X1.500000*%
%TD*%
%TA.AperFunction,SMDPad,CuDef*%
%ADD24RoundRect,0.225000X0.250000X-0.225000X0.250000X0.225000X-0.250000X0.225000X-0.250000X-0.225000X0*%
%TD*%
%TA.AperFunction,SMDPad,CuDef*%
%ADD25RoundRect,0.200000X0.200000X0.275000X-0.200000X0.275000X-0.200000X-0.275000X0.200000X-0.275000X0*%
%TD*%
%TA.AperFunction,SMDPad,CuDef*%
%ADD26RoundRect,0.225000X-0.250000X0.225000X-0.250000X-0.225000X0.250000X-0.225000X0.250000X0.225000X0*%
%TD*%
%TA.AperFunction,SMDPad,CuDef*%
%ADD27R,0.700000X0.450000*%
%TD*%
%TA.AperFunction,SMDPad,CuDef*%
%ADD28RoundRect,0.200000X-0.200000X-0.275000X0.200000X-0.275000X0.200000X0.275000X-0.200000X0.275000X0*%
%TD*%
%TA.AperFunction,SMDPad,CuDef*%
%ADD29RoundRect,0.112500X0.187500X0.112500X-0.187500X0.112500X-0.187500X-0.112500X0.187500X-0.112500X0*%
%TD*%
%TA.AperFunction,ComponentPad*%
%ADD30R,1.700000X1.700000*%
%TD*%
%TA.AperFunction,ComponentPad*%
%ADD31O,1.700000X1.700000*%
%TD*%
%TA.AperFunction,SMDPad,CuDef*%
%ADD32RoundRect,0.062500X-0.350000X-0.062500X0.350000X-0.062500X0.350000X0.062500X-0.350000X0.062500X0*%
%TD*%
%TA.AperFunction,SMDPad,CuDef*%
%ADD33RoundRect,0.062500X-0.062500X-0.350000X0.062500X-0.350000X0.062500X0.350000X-0.062500X0.350000X0*%
%TD*%
%TA.AperFunction,SMDPad,CuDef*%
%ADD34R,2.600000X2.600000*%
%TD*%
%TA.AperFunction,SMDPad,CuDef*%
%ADD35RoundRect,0.225000X-0.225000X-0.250000X0.225000X-0.250000X0.225000X0.250000X-0.225000X0.250000X0*%
%TD*%
%TA.AperFunction,ComponentPad*%
%ADD36RoundRect,0.250000X-0.600000X-0.725000X0.600000X-0.725000X0.600000X0.725000X-0.600000X0.725000X0*%
%TD*%
%TA.AperFunction,ComponentPad*%
%ADD37O,1.700000X1.950000*%
%TD*%
%TA.AperFunction,SMDPad,CuDef*%
%ADD38R,2.000000X1.500000*%
%TD*%
%TA.AperFunction,SMDPad,CuDef*%
%ADD39R,2.000000X3.800000*%
%TD*%
%TA.AperFunction,SMDPad,CuDef*%
%ADD40R,1.350000X0.400000*%
%TD*%
%TA.AperFunction,ComponentPad*%
%ADD41O,1.900000X1.200000*%
%TD*%
%TA.AperFunction,SMDPad,CuDef*%
%ADD42R,1.900000X1.200000*%
%TD*%
%TA.AperFunction,ComponentPad*%
%ADD43C,1.450000*%
%TD*%
%TA.AperFunction,SMDPad,CuDef*%
%ADD44R,1.900000X1.500000*%
%TD*%
%TA.AperFunction,SMDPad,CuDef*%
%ADD45R,0.450000X0.700000*%
%TD*%
%TA.AperFunction,SMDPad,CuDef*%
%ADD46R,1.300000X1.550000*%
%TD*%
%TA.AperFunction,SMDPad,CuDef*%
%ADD47RoundRect,0.112500X-0.112500X0.187500X-0.112500X-0.187500X0.112500X-0.187500X0.112500X0.187500X0*%
%TD*%
%TA.AperFunction,SMDPad,CuDef*%
%ADD48RoundRect,0.218750X-0.256250X0.218750X-0.256250X-0.218750X0.256250X-0.218750X0.256250X0.218750X0*%
%TD*%
%TA.AperFunction,ViaPad*%
%ADD49C,0.800000*%
%TD*%
%TA.AperFunction,ViaPad*%
%ADD50C,0.450000*%
%TD*%
%TA.AperFunction,Conductor*%
%ADD51C,0.175006*%
%TD*%
%TA.AperFunction,Conductor*%
%ADD52C,0.400000*%
%TD*%
%TA.AperFunction,Conductor*%
%ADD53C,0.300000*%
%TD*%
%TA.AperFunction,Conductor*%
%ADD54C,0.250000*%
%TD*%
%TA.AperFunction,Conductor*%
%ADD55C,1.270000*%
%TD*%
G04 APERTURE END LIST*
D10*
%TO.P,D4,1,A*%
%TO.N,GND*%
X124250000Y-102000000D03*
D11*
%TO.P,D4,2,K*%
%TO.N,USB_VBUS*%
X124250000Y-100300000D03*
%TO.P,D4,3,K*%
%TO.N,USB_N*%
X122250000Y-100300000D03*
%TO.P,D4,4,K*%
%TO.N,USB_P*%
X122250000Y-102200000D03*
%TD*%
D12*
%TO.P,Q5,1,B*%
%TO.N,Net-(Q5-B)*%
X140300000Y-87937500D03*
%TO.P,Q5,2,E*%
%TO.N,Net-(Q5-E)*%
X142200000Y-87937500D03*
%TO.P,Q5,3,C*%
%TO.N,CHIP_PU*%
X141250000Y-86062500D03*
%TD*%
D13*
%TO.P,R10,1*%
%TO.N,Net-(Q5-E)*%
X146150000Y-88762500D03*
%TO.P,R10,2*%
%TO.N,Net-(Q6-B)*%
X146150000Y-87112500D03*
%TD*%
D14*
%TO.P,U1,1,GND*%
%TO.N,GND*%
X136750000Y-62590000D03*
%TO.P,U1,2,3V3*%
%TO.N,3V3*%
X136750000Y-63860000D03*
%TO.P,U1,3,EN/CHIP_PU*%
%TO.N,CHIP_PU*%
X136750000Y-65130000D03*
%TO.P,U1,4,SENSOR_VP/GPIO36/ADC1_CH0*%
%TO.N,unconnected-(U1-SENSOR_VP{slash}GPIO36{slash}ADC1_CH0-Pad4)*%
X136750000Y-66400000D03*
%TO.P,U1,5,SENSOR_VN/GPIO39/ADC1_CH3*%
%TO.N,unconnected-(U1-SENSOR_VN{slash}GPIO39{slash}ADC1_CH3-Pad5)*%
X136750000Y-67670000D03*
%TO.P,U1,6,GPIO34/ADC1_CH6*%
%TO.N,unconnected-(U1-GPIO34{slash}ADC1_CH6-Pad6)*%
X136750000Y-68940000D03*
%TO.P,U1,7,GPIO35/ADC1_CH7*%
%TO.N,unconnected-(U1-GPIO35{slash}ADC1_CH7-Pad7)*%
X136750000Y-70210000D03*
%TO.P,U1,8,32K_XP/GPIO32/ADC1_CH4*%
%TO.N,WII_PAIR*%
X136750000Y-71480000D03*
%TO.P,U1,9,32K_XN/GPIO33/ADC1_CH5*%
%TO.N,RGB*%
X136750000Y-72750000D03*
%TO.P,U1,10,DAC_1/ADC2_CH8/GPIO25*%
%TO.N,unconnected-(U1-DAC_1{slash}ADC2_CH8{slash}GPIO25-Pad10)*%
X136750000Y-74020000D03*
%TO.P,U1,11,DAC_2/ADC2_CH9/GPIO26*%
%TO.N,unconnected-(U1-DAC_2{slash}ADC2_CH9{slash}GPIO26-Pad11)*%
X136750000Y-75290000D03*
%TO.P,U1,12,ADC2_CH7/GPIO27*%
%TO.N,WII_RX*%
X136750000Y-76560000D03*
%TO.P,U1,13,MTMS/GPIO14/ADC2_CH6*%
%TO.N,WII_TX*%
X136750000Y-77830000D03*
%TO.P,U1,14,MTDI/GPIO12/ADC2_CH5*%
%TO.N,unconnected-(U1-MTDI{slash}GPIO12{slash}ADC2_CH5-Pad14)*%
X136750000Y-79100000D03*
D15*
%TO.P,U1,15,GND*%
%TO.N,GND*%
X139780000Y-80350000D03*
%TO.P,U1,16,MTCK/GPIO13/ADC2_CH4*%
%TO.N,HOT_PLUG_DETECT*%
X141050000Y-80350000D03*
%TO.P,U1,17,NC*%
%TO.N,unconnected-(U1-NC-Pad17)*%
X142320000Y-80350000D03*
%TO.P,U1,18,NC*%
%TO.N,unconnected-(U1-NC-Pad18)*%
X143590000Y-80350000D03*
%TO.P,U1,19,NC*%
%TO.N,unconnected-(U1-NC-Pad19)*%
X144860000Y-80350000D03*
%TO.P,U1,20,NC*%
%TO.N,unconnected-(U1-NC-Pad20)*%
X146130000Y-80350000D03*
%TO.P,U1,21,NC*%
%TO.N,unconnected-(U1-NC-Pad21)*%
X147400000Y-80350000D03*
%TO.P,U1,22,NC*%
%TO.N,unconnected-(U1-NC-Pad22)*%
X148670000Y-80350000D03*
%TO.P,U1,23,MTDO/GPIO15/ADC2_CH3*%
%TO.N,unconnected-(U1-MTDO{slash}GPIO15{slash}ADC2_CH3-Pad23)*%
X149940000Y-80350000D03*
%TO.P,U1,24,ADC2_CH2/GPIO2*%
%TO.N,unconnected-(U1-ADC2_CH2{slash}GPIO2-Pad24)*%
X151210000Y-80350000D03*
D14*
%TO.P,U1,25,GPIO0/BOOT/ADC2_CH1*%
%TO.N,BOOT*%
X154250000Y-79100000D03*
%TO.P,U1,26,ADC2_CH0/GPIO4*%
%TO.N,unconnected-(U1-ADC2_CH0{slash}GPIO4-Pad26)*%
X154250000Y-77830000D03*
%TO.P,U1,27,GPIO16*%
%TO.N,unconnected-(U1-GPIO16-Pad27)*%
X154250000Y-76560000D03*
%TO.P,U1,28,GPIO17*%
%TO.N,unconnected-(U1-GPIO17-Pad28)*%
X154250000Y-75290000D03*
%TO.P,U1,29,GPIO5*%
%TO.N,Net-(U1-GPIO5)*%
X154250000Y-74020000D03*
%TO.P,U1,30,GPIO18*%
%TO.N,Net-(J1-Pin_2)*%
X154250000Y-72750000D03*
%TO.P,U1,31,GPIO19*%
%TO.N,unconnected-(U1-GPIO19-Pad31)*%
X154250000Y-71480000D03*
%TO.P,U1,32,NC*%
%TO.N,unconnected-(U1-NC-Pad32)*%
X154250000Y-70210000D03*
%TO.P,U1,33,GPIO21*%
%TO.N,DDC_SDA*%
X154250000Y-68940000D03*
%TO.P,U1,34,U0RXD/GPIO3*%
%TO.N,U0_RXD*%
X154250000Y-67670000D03*
%TO.P,U1,35,U0TXD/GPIO1*%
%TO.N,U0_TXD*%
X154250000Y-66400000D03*
%TO.P,U1,36,GPIO22*%
%TO.N,DDC_SCL*%
X154250000Y-65130000D03*
%TO.P,U1,37,GPIO23*%
%TO.N,unconnected-(U1-GPIO23-Pad37)*%
X154250000Y-63860000D03*
%TO.P,U1,38,GND*%
%TO.N,GND*%
X154250000Y-62590000D03*
D16*
%TO.P,U1,39,GND_THERMAL*%
X143295000Y-68405000D03*
X143295000Y-69930000D03*
X143295000Y-71455000D03*
X144820000Y-68405000D03*
X144820000Y-69930000D03*
X144820000Y-71455000D03*
X146345000Y-68405000D03*
X146345000Y-69930000D03*
X146345000Y-71455000D03*
%TD*%
D17*
%TO.P,R1,1*%
%TO.N,3V3*%
X127750000Y-62925000D03*
%TO.P,R1,2*%
%TO.N,CHIP_PU*%
X127750000Y-64575000D03*
%TD*%
D18*
%TO.P,C2,1*%
%TO.N,3V3*%
X134025000Y-62750000D03*
%TO.P,C2,2*%
%TO.N,GND*%
X132475000Y-62750000D03*
%TD*%
D19*
%TO.P,D1,1,K*%
%TO.N,HDMI_HOT_PLUG_DETECT*%
X133450000Y-84362500D03*
%TO.P,D1,2,A*%
%TO.N,GND*%
X132500000Y-84362500D03*
%TO.P,D1,3,K*%
%TO.N,HDMI_5V*%
X131550000Y-84362500D03*
%TO.P,D1,4,K*%
%TO.N,HDMI_DDC_SDA*%
X131550000Y-86637500D03*
%TO.P,D1,5,K*%
%TO.N,HDMI_DDC_SCL*%
X132500000Y-86637500D03*
%TO.P,D1,6,K*%
%TO.N,HDMI_CEC*%
X133450000Y-86637500D03*
%TD*%
D20*
%TO.P,J3,1,D2+*%
%TO.N,unconnected-(J3-D2+-Pad1)*%
X126485000Y-89500000D03*
%TO.P,J3,2,D2S*%
%TO.N,GND*%
X126485000Y-89000000D03*
%TO.P,J3,3,D2-*%
%TO.N,unconnected-(J3-D2--Pad3)*%
X126485000Y-88500000D03*
%TO.P,J3,4,D1+*%
%TO.N,unconnected-(J3-D1+-Pad4)*%
X126485000Y-88000000D03*
%TO.P,J3,5,D1S*%
%TO.N,GND*%
X126485000Y-87500000D03*
%TO.P,J3,6,D1-*%
%TO.N,unconnected-(J3-D1--Pad6)*%
X126485000Y-87000000D03*
%TO.P,J3,7,D0+*%
%TO.N,unconnected-(J3-D0+-Pad7)*%
X126485000Y-86500000D03*
%TO.P,J3,8,D0S*%
%TO.N,GND*%
X126485000Y-86000000D03*
%TO.P,J3,9,D0-*%
%TO.N,unconnected-(J3-D0--Pad9)*%
X126485000Y-85500000D03*
%TO.P,J3,10,CK+*%
%TO.N,unconnected-(J3-CK+-Pad10)*%
X126485000Y-85000000D03*
%TO.P,J3,11,CKS*%
%TO.N,GND*%
X126485000Y-84500000D03*
%TO.P,J3,12,CK-*%
%TO.N,unconnected-(J3-CK--Pad12)*%
X126485000Y-84000000D03*
%TO.P,J3,13,CEC*%
%TO.N,HDMI_CEC*%
X126485000Y-83500000D03*
%TO.P,J3,14,UTILITY*%
%TO.N,unconnected-(J3-UTILITY-Pad14)*%
X126485000Y-83000000D03*
%TO.P,J3,15,SCL*%
%TO.N,HDMI_DDC_SCL*%
X126485000Y-82500000D03*
%TO.P,J3,16,SDA*%
%TO.N,HDMI_DDC_SDA*%
X126485000Y-82000000D03*
%TO.P,J3,17,GND*%
%TO.N,GND*%
X126485000Y-81500000D03*
%TO.P,J3,18,+5V*%
%TO.N,HDMI_5V*%
X126485000Y-81000000D03*
%TO.P,J3,19,HPD*%
%TO.N,HDMI_HOT_PLUG_DETECT*%
X126485000Y-80500000D03*
D21*
%TO.P,J3,MH1*%
%TO.N,N/C*%
X125725000Y-77750000D03*
%TO.P,J3,MH2*%
X125725000Y-92250000D03*
D22*
%TO.P,J3,MH3*%
X119765000Y-77750000D03*
%TO.P,J3,MH4*%
X119765000Y-92250000D03*
%TD*%
D18*
%TO.P,C3,1*%
%TO.N,3V3*%
X134025000Y-65750000D03*
%TO.P,C3,2*%
%TO.N,GND*%
X132475000Y-65750000D03*
%TD*%
D23*
%TO.P,D2,1,VSS*%
%TO.N,GND*%
X171600000Y-84050000D03*
%TO.P,D2,2,DIN*%
%TO.N,Net-(D2-DIN)*%
X168400000Y-84050000D03*
%TO.P,D2,3,VDD*%
%TO.N,VBUS*%
X168400000Y-88950000D03*
%TO.P,D2,4,DOUT*%
%TO.N,unconnected-(D2-DOUT-Pad4)*%
X171600000Y-88950000D03*
%TD*%
D24*
%TO.P,C1,1*%
%TO.N,CHIP_PU*%
X130500000Y-64525000D03*
%TO.P,C1,2*%
%TO.N,GND*%
X130500000Y-62975000D03*
%TD*%
%TO.P,C8,1*%
%TO.N,GND*%
X163750000Y-102275000D03*
%TO.P,C8,2*%
%TO.N,VBUS*%
X163750000Y-100725000D03*
%TD*%
D17*
%TO.P,R7,1*%
%TO.N,HDMI_DDC_SDA*%
X126750000Y-71425000D03*
%TO.P,R7,2*%
%TO.N,HDMI_5V*%
X126750000Y-73075000D03*
%TD*%
D18*
%TO.P,C6,1*%
%TO.N,GND*%
X170000000Y-92000000D03*
%TO.P,C6,2*%
%TO.N,VBUS*%
X168450000Y-92000000D03*
%TD*%
D17*
%TO.P,R2,1*%
%TO.N,3V3*%
X165400000Y-63575000D03*
%TO.P,R2,2*%
%TO.N,Net-(J1-Pin_3)*%
X165400000Y-65225000D03*
%TD*%
D25*
%TO.P,R3,1*%
%TO.N,HOT_PLUG_DETECT*%
X132825000Y-68600000D03*
%TO.P,R3,2*%
%TO.N,Net-(Q3-D)*%
X131175000Y-68600000D03*
%TD*%
D26*
%TO.P,C4,1*%
%TO.N,WII_PAIR*%
X165400000Y-68625000D03*
%TO.P,C4,2*%
%TO.N,GND*%
X165400000Y-70175000D03*
%TD*%
D27*
%TO.P,Q2,1,G*%
%TO.N,3V3*%
X124750000Y-67850000D03*
%TO.P,Q2,2,S*%
%TO.N,DDC_SDA*%
X124750000Y-69150000D03*
%TO.P,Q2,3,D*%
%TO.N,HDMI_DDC_SDA*%
X126750000Y-68500000D03*
%TD*%
D13*
%TO.P,R18,1*%
%TO.N,Net-(D6-A)*%
X125000000Y-105825000D03*
%TO.P,R18,2*%
%TO.N,3V3*%
X125000000Y-104175000D03*
%TD*%
D25*
%TO.P,R11,1*%
%TO.N,Net-(Q4-S)*%
X162650000Y-89000000D03*
%TO.P,R11,2*%
%TO.N,3V3*%
X161000000Y-89000000D03*
%TD*%
D28*
%TO.P,R13,1*%
%TO.N,RGB*%
X161000000Y-92000000D03*
%TO.P,R13,2*%
%TO.N,Net-(Q4-S)*%
X162650000Y-92000000D03*
%TD*%
D29*
%TO.P,D5,1,K*%
%TO.N,VBUS*%
X128800000Y-99750000D03*
%TO.P,D5,2,A*%
%TO.N,USB_VBUS*%
X126700000Y-99750000D03*
%TD*%
D27*
%TO.P,Q1,1,G*%
%TO.N,3V3*%
X118500000Y-67850000D03*
%TO.P,Q1,2,S*%
%TO.N,DDC_SCL*%
X118500000Y-69150000D03*
%TO.P,Q1,3,D*%
%TO.N,HDMI_DDC_SCL*%
X120500000Y-68500000D03*
%TD*%
D30*
%TO.P,J1,1,Pin_1*%
%TO.N,GND*%
X157460000Y-64600000D03*
D31*
%TO.P,J1,2,Pin_2*%
%TO.N,Net-(J1-Pin_2)*%
X160000000Y-64600000D03*
%TO.P,J1,3,Pin_3*%
%TO.N,Net-(J1-Pin_3)*%
X162540000Y-64600000D03*
%TD*%
D32*
%TO.P,U2,1,~{RI}/CLK*%
%TO.N,unconnected-(U2-~{RI}{slash}CLK-Pad1)*%
X145312500Y-98250000D03*
%TO.P,U2,2,GND*%
%TO.N,GND*%
X145312500Y-98750000D03*
%TO.P,U2,3,D+*%
%TO.N,USB_P*%
X145312500Y-99250000D03*
%TO.P,U2,4,D-*%
%TO.N,USB_N*%
X145312500Y-99750000D03*
%TO.P,U2,5,VIO*%
%TO.N,3V3*%
X145312500Y-100250000D03*
%TO.P,U2,6,VDD*%
X145312500Y-100750000D03*
D33*
%TO.P,U2,7,VREGIN*%
X146000000Y-101437500D03*
%TO.P,U2,8,VBUS*%
%TO.N,Net-(U2-VBUS)*%
X146500000Y-101437500D03*
%TO.P,U2,9,~{RST}*%
%TO.N,Net-(U2-~{RST})*%
X147000000Y-101437500D03*
%TO.P,U2,10,NC*%
%TO.N,unconnected-(U2-NC-Pad10)*%
X147500000Y-101437500D03*
%TO.P,U2,11,~{WAKEUP}/GPIO.3*%
%TO.N,unconnected-(U2-~{WAKEUP}{slash}GPIO.3-Pad11)*%
X148000000Y-101437500D03*
%TO.P,U2,12,RS485/GPIO.2*%
%TO.N,unconnected-(U2-RS485{slash}GPIO.2-Pad12)*%
X148500000Y-101437500D03*
D32*
%TO.P,U2,13,~{RXT}/GPIO.1*%
%TO.N,unconnected-(U2-~{RXT}{slash}GPIO.1-Pad13)*%
X149187500Y-100750000D03*
%TO.P,U2,14,~{TXT}/GPIO.0*%
%TO.N,unconnected-(U2-~{TXT}{slash}GPIO.0-Pad14)*%
X149187500Y-100250000D03*
%TO.P,U2,15,~{SUSPEND}*%
%TO.N,unconnected-(U2-~{SUSPEND}-Pad15)*%
X149187500Y-99750000D03*
%TO.P,U2,16,NC*%
%TO.N,unconnected-(U2-NC-Pad16)*%
X149187500Y-99250000D03*
%TO.P,U2,17,SUSPEND*%
%TO.N,unconnected-(U2-SUSPEND-Pad17)*%
X149187500Y-98750000D03*
%TO.P,U2,18,~{CTS}*%
%TO.N,unconnected-(U2-~{CTS}-Pad18)*%
X149187500Y-98250000D03*
D33*
%TO.P,U2,19,~{RTS}*%
%TO.N,Net-(Q5-E)*%
X148500000Y-97562500D03*
%TO.P,U2,20,RXD*%
%TO.N,U0_TXD*%
X148000000Y-97562500D03*
%TO.P,U2,21,TXD*%
%TO.N,U0_RXD*%
X147500000Y-97562500D03*
%TO.P,U2,22,~{DSR}*%
%TO.N,unconnected-(U2-~{DSR}-Pad22)*%
X147000000Y-97562500D03*
%TO.P,U2,23,~{DTR}*%
%TO.N,Net-(Q6-E)*%
X146500000Y-97562500D03*
%TO.P,U2,24,~{DCD}*%
%TO.N,unconnected-(U2-~{DCD}-Pad24)*%
X146000000Y-97562500D03*
D34*
%TO.P,U2,25,GND*%
%TO.N,GND*%
X147250000Y-99500000D03*
%TD*%
D18*
%TO.P,C11,1*%
%TO.N,GND*%
X167525000Y-106750000D03*
%TO.P,C11,2*%
%TO.N,3V3*%
X165975000Y-106750000D03*
%TD*%
%TO.P,C7,1*%
%TO.N,VBUS*%
X128525000Y-96750000D03*
%TO.P,C7,2*%
%TO.N,GND*%
X126975000Y-96750000D03*
%TD*%
D17*
%TO.P,R5,1*%
%TO.N,HDMI_DDC_SCL*%
X120500000Y-71425000D03*
%TO.P,R5,2*%
%TO.N,HDMI_5V*%
X120500000Y-73075000D03*
%TD*%
D35*
%TO.P,C5,1*%
%TO.N,GND*%
X131225000Y-74800000D03*
%TO.P,C5,2*%
%TO.N,HDMI_HOT_PLUG_DETECT*%
X132775000Y-74800000D03*
%TD*%
D36*
%TO.P,J2,1,Pin_1*%
%TO.N,GND*%
X164500000Y-76725000D03*
D37*
%TO.P,J2,2,Pin_2*%
%TO.N,WII_RX*%
X167000000Y-76725000D03*
%TO.P,J2,3,Pin_3*%
%TO.N,WII_TX*%
X169500000Y-76725000D03*
%TD*%
D17*
%TO.P,R4,1*%
%TO.N,DDC_SCL*%
X118500000Y-71425000D03*
%TO.P,R4,2*%
%TO.N,3V3*%
X118500000Y-73075000D03*
%TD*%
D25*
%TO.P,R14,1*%
%TO.N,Net-(Q6-E)*%
X142075000Y-91000000D03*
%TO.P,R14,2*%
%TO.N,Net-(Q5-B)*%
X140425000Y-91000000D03*
%TD*%
D26*
%TO.P,C10,1*%
%TO.N,3V3*%
X145250000Y-103475000D03*
%TO.P,C10,2*%
%TO.N,GND*%
X145250000Y-105025000D03*
%TD*%
D27*
%TO.P,Q3,1,G*%
%TO.N,HDMI_HOT_PLUG_DETECT*%
X131200000Y-70550000D03*
%TO.P,Q3,2,S*%
%TO.N,GND*%
X131200000Y-71850000D03*
%TO.P,Q3,3,D*%
%TO.N,Net-(Q3-D)*%
X133200000Y-71200000D03*
%TD*%
D12*
%TO.P,Q6,1,B*%
%TO.N,Net-(Q6-B)*%
X150100000Y-87937500D03*
%TO.P,Q6,2,E*%
%TO.N,Net-(Q6-E)*%
X152000000Y-87937500D03*
%TO.P,Q6,3,C*%
%TO.N,BOOT*%
X151050000Y-86062500D03*
%TD*%
D38*
%TO.P,U3,1,VI*%
%TO.N,VBUS*%
X166350000Y-99950000D03*
%TO.P,U3,2,GND*%
%TO.N,GND*%
X166350000Y-102250000D03*
D39*
X172650000Y-102250000D03*
D38*
%TO.P,U3,3,VO*%
%TO.N,3V3*%
X166350000Y-104550000D03*
%TD*%
D17*
%TO.P,R9,1*%
%TO.N,Net-(D2-DIN)*%
X166250000Y-85675000D03*
%TO.P,R9,2*%
%TO.N,VBUS*%
X166250000Y-87325000D03*
%TD*%
D40*
%TO.P,J4,1,VBUS*%
%TO.N,USB_VBUS*%
X119212500Y-100200000D03*
%TO.P,J4,2,D-*%
%TO.N,USB_N*%
X119212500Y-100850000D03*
%TO.P,J4,3,D+*%
%TO.N,USB_P*%
X119212500Y-101500000D03*
%TO.P,J4,4,ID*%
%TO.N,unconnected-(J4-ID-Pad4)*%
X119212500Y-102150000D03*
%TO.P,J4,5,GND*%
%TO.N,GND*%
X119212500Y-102800000D03*
D41*
%TO.P,J4,6,Shield*%
%TO.N,unconnected-(J4-Shield-Pad6)*%
X116512500Y-98000000D03*
D42*
X116512500Y-98600000D03*
D43*
X119212500Y-99000000D03*
D44*
X116512500Y-100500000D03*
X116512500Y-102500000D03*
D43*
X119212500Y-104000000D03*
D42*
X116512500Y-104400000D03*
D41*
X116512500Y-105000000D03*
%TD*%
D13*
%TO.P,R12,1*%
%TO.N,Net-(U1-GPIO5)*%
X135000000Y-90050000D03*
%TO.P,R12,2*%
%TO.N,HDMI_CEC*%
X135000000Y-88400000D03*
%TD*%
D45*
%TO.P,Q4,1,G*%
%TO.N,3V3*%
X161350000Y-86500000D03*
%TO.P,Q4,2,S*%
%TO.N,Net-(Q4-S)*%
X162650000Y-86500000D03*
%TO.P,Q4,3,D*%
%TO.N,Net-(D2-DIN)*%
X162000000Y-84500000D03*
%TD*%
D46*
%TO.P,SW1,1,1*%
%TO.N,GND*%
X172450000Y-63525000D03*
X172450000Y-71475000D03*
%TO.P,SW1,2,2*%
%TO.N,WII_PAIR*%
X167950000Y-63525000D03*
X167950000Y-71475000D03*
%TD*%
D18*
%TO.P,C9,1*%
%TO.N,3V3*%
X143525000Y-101500000D03*
%TO.P,C9,2*%
%TO.N,GND*%
X141975000Y-101500000D03*
%TD*%
D47*
%TO.P,D3,1,K*%
%TO.N,HDMI_5V*%
X137400000Y-91315000D03*
%TO.P,D3,2,A*%
%TO.N,VBUS*%
X137400000Y-93415000D03*
%TD*%
D13*
%TO.P,R16,1*%
%TO.N,VBUS*%
X147425000Y-105075000D03*
%TO.P,R16,2*%
%TO.N,Net-(U2-VBUS)*%
X147425000Y-103425000D03*
%TD*%
%TO.P,R17,1*%
%TO.N,GND*%
X149600000Y-105075000D03*
%TO.P,R17,2*%
%TO.N,Net-(U2-VBUS)*%
X149600000Y-103425000D03*
%TD*%
D25*
%TO.P,R8,1*%
%TO.N,HDMI_HOT_PLUG_DETECT*%
X132825000Y-77500000D03*
%TO.P,R8,2*%
%TO.N,GND*%
X131175000Y-77500000D03*
%TD*%
D48*
%TO.P,D6,1,K*%
%TO.N,GND*%
X122000000Y-104212500D03*
%TO.P,D6,2,A*%
%TO.N,Net-(D6-A)*%
X122000000Y-105787500D03*
%TD*%
D17*
%TO.P,R6,1*%
%TO.N,DDC_SDA*%
X124750000Y-71425000D03*
%TO.P,R6,2*%
%TO.N,3V3*%
X124750000Y-73075000D03*
%TD*%
D25*
%TO.P,R15,1*%
%TO.N,3V3*%
X152525000Y-101550000D03*
%TO.P,R15,2*%
%TO.N,Net-(U2-~{RST})*%
X150875000Y-101550000D03*
%TD*%
D49*
%TO.N,3V3*%
X164250000Y-104500000D03*
X134190000Y-63860000D03*
X144387500Y-102362500D03*
X123875000Y-67250000D03*
X123500000Y-72750000D03*
X126250000Y-104000000D03*
X159500000Y-88750000D03*
X118500000Y-66750000D03*
X154250000Y-101500000D03*
X116750000Y-73000000D03*
X165200000Y-62400000D03*
X129000000Y-63250000D03*
%TO.N,GND*%
X140500000Y-101500000D03*
X142250000Y-67500000D03*
X123600000Y-81400000D03*
X170500000Y-85500000D03*
X168750000Y-106750000D03*
X123500000Y-87500000D03*
X145000000Y-72750000D03*
X169500000Y-102250000D03*
X144000000Y-98000000D03*
X138750000Y-63250000D03*
X151000000Y-105000000D03*
X145250000Y-106250000D03*
X123500000Y-84500000D03*
X138250000Y-80500000D03*
X145000000Y-67000000D03*
X171500000Y-92000000D03*
X147250000Y-70000000D03*
X142500000Y-72250000D03*
X132500000Y-82750000D03*
X147125000Y-67625000D03*
X125750000Y-96750000D03*
X123500000Y-89000000D03*
X147125000Y-72125000D03*
X125500000Y-102400000D03*
X130000000Y-76400000D03*
X141820000Y-69930000D03*
X132475000Y-63725000D03*
X130000000Y-73600000D03*
X152600000Y-62600000D03*
X123500000Y-103500000D03*
X123500000Y-86000000D03*
D50*
%TO.N,WII_PAIR*%
X167200000Y-69400000D03*
X152200000Y-73200000D03*
%TO.N,CHIP_PU*%
X140500000Y-66250000D03*
X141000000Y-83600000D03*
%TO.N,USB_N*%
X140605328Y-98915451D03*
X143216343Y-99791558D03*
%TO.N,USB_P*%
X141394728Y-98925768D03*
X143300000Y-99046497D03*
%TO.N,HDMI_DDC_SDA*%
X129250000Y-82000000D03*
X126750000Y-70375000D03*
%TO.N,BOOT*%
X155500000Y-86000000D03*
X156000000Y-79306500D03*
%TO.N,RGB*%
X154500000Y-90500000D03*
X152250000Y-76250000D03*
%TO.N,U0_TXD*%
X150500000Y-66750000D03*
X148750000Y-95250000D03*
%TO.N,U0_RXD*%
X146900000Y-96150000D03*
X149000000Y-67000000D03*
%TO.N,Net-(Q5-E)*%
X146250000Y-90250000D03*
X148650000Y-96650000D03*
%TO.N,Net-(Q6-E)*%
X145400000Y-96150000D03*
X145000000Y-91000000D03*
%TO.N,Net-(U1-GPIO5)*%
X149600000Y-92000000D03*
X150000000Y-74600000D03*
%TD*%
D51*
%TO.N,USB_P*%
X140721533Y-99481954D02*
X138890184Y-101313303D01*
X140839982Y-99481954D02*
X140721533Y-99481954D01*
X138890184Y-101313303D02*
X122836697Y-101313303D01*
X141394728Y-98927208D02*
X140839982Y-99481954D01*
X122836697Y-101313303D02*
X122250000Y-101900000D01*
X141394728Y-98925768D02*
X141394728Y-98927208D01*
%TO.N,USB_N*%
X122250000Y-100500000D02*
X122250000Y-100300000D01*
X120084994Y-101034994D02*
X121715006Y-101034994D01*
X119900000Y-100850000D02*
X120084994Y-101034994D01*
X119212500Y-100850000D02*
X119900000Y-100850000D01*
X121715006Y-101034994D02*
X122250000Y-100500000D01*
X122250000Y-100450000D02*
X122250000Y-100300000D01*
X138792014Y-101036697D02*
X122836697Y-101036697D01*
X139348725Y-100479983D02*
X138792014Y-101036697D01*
X139348726Y-100479983D02*
X139348725Y-100479983D01*
X139348724Y-100088617D02*
X139348725Y-100088618D01*
X139381624Y-99664354D02*
X139348725Y-99697252D01*
X139381624Y-99664353D02*
X139381624Y-99664354D01*
X139772990Y-99664355D02*
X139772989Y-99664354D01*
X139348725Y-100479982D02*
G75*
G03*
X139348725Y-100088618I-195725J195682D01*
G01*
X140605328Y-98915451D02*
X140605328Y-99223383D01*
X139348690Y-99697217D02*
G75*
G03*
X139348724Y-100088617I195710J-195683D01*
G01*
X139772983Y-99664360D02*
G75*
G03*
X139381624Y-99664353I-195683J-195640D01*
G01*
X122836697Y-101036697D02*
X122250000Y-100450000D01*
X139772990Y-99664355D02*
G75*
G03*
X140164356Y-99664355I195683J195681D01*
G01*
X140605328Y-99223383D02*
X140164356Y-99664355D01*
%TO.N,USB_P*%
X120100000Y-101300000D02*
X121650000Y-101300000D01*
X119900000Y-101500000D02*
X120100000Y-101300000D01*
X122250000Y-101900000D02*
X122250000Y-102200000D01*
X119212500Y-101500000D02*
X119900000Y-101500000D01*
X121650000Y-101300000D02*
X122250000Y-101900000D01*
D52*
%TO.N,3V3*%
X118500000Y-73075000D02*
X116825000Y-73075000D01*
X166350000Y-104550000D02*
X164300000Y-104550000D01*
X145250000Y-103225000D02*
X144387500Y-102362500D01*
X134190000Y-63860000D02*
X134025000Y-64025000D01*
X165200000Y-62400000D02*
X165200000Y-63575000D01*
X159750000Y-89000000D02*
X159500000Y-88750000D01*
X124475000Y-67850000D02*
X123875000Y-67250000D01*
X128675000Y-62925000D02*
X129000000Y-63250000D01*
X161350000Y-86500000D02*
X161350000Y-87400000D01*
X144275000Y-100750000D02*
X143525000Y-101500000D01*
X123825000Y-73075000D02*
X123500000Y-72750000D01*
X134025000Y-62750000D02*
X134025000Y-64025000D01*
X161350000Y-87400000D02*
X161000000Y-87750000D01*
X126075000Y-104175000D02*
X126250000Y-104000000D01*
X136750000Y-63860000D02*
X134190000Y-63860000D01*
X127750000Y-62925000D02*
X128675000Y-62925000D01*
X146000000Y-102725000D02*
X145250000Y-103475000D01*
X125000000Y-104175000D02*
X126075000Y-104175000D01*
X161000000Y-87750000D02*
X161000000Y-89000000D01*
X146000000Y-101437500D02*
X146000000Y-102725000D01*
X154200000Y-101550000D02*
X154250000Y-101500000D01*
X116825000Y-73075000D02*
X116750000Y-73000000D01*
X161000000Y-89000000D02*
X159750000Y-89000000D01*
X118500000Y-67850000D02*
X118500000Y-66750000D01*
X164300000Y-104550000D02*
X164250000Y-104500000D01*
X134025000Y-64025000D02*
X134025000Y-65750000D01*
X145312500Y-100250000D02*
X144775000Y-100250000D01*
X145312500Y-100750000D02*
X144275000Y-100750000D01*
X124750000Y-73075000D02*
X123825000Y-73075000D01*
X165975000Y-106750000D02*
X165975000Y-104925000D01*
X143525000Y-101500000D02*
X144387500Y-102362500D01*
X152525000Y-101550000D02*
X154200000Y-101550000D01*
X144775000Y-100250000D02*
X143525000Y-101500000D01*
%TO.N,GND*%
X170000000Y-92000000D02*
X171500000Y-92000000D01*
X141975000Y-101500000D02*
X140500000Y-101500000D01*
X125100000Y-102000000D02*
X125500000Y-102400000D01*
X165400000Y-72000000D02*
X167000000Y-73600000D01*
X132475000Y-65750000D02*
X132475000Y-62750000D01*
D53*
X126235000Y-87500000D02*
X123500000Y-87500000D01*
D52*
X130500000Y-62975000D02*
X132250000Y-62975000D01*
X136750000Y-62590000D02*
X138090000Y-62590000D01*
X132500000Y-84250000D02*
X132500000Y-82750000D01*
X146345000Y-68405000D02*
X147125000Y-67625000D01*
D53*
X123700000Y-81500000D02*
X123600000Y-81400000D01*
D52*
X144820000Y-72570000D02*
X145000000Y-72750000D01*
X120800000Y-102800000D02*
X119212500Y-102800000D01*
X152610000Y-62590000D02*
X152600000Y-62600000D01*
X138090000Y-62590000D02*
X138750000Y-63250000D01*
D53*
X126235000Y-81500000D02*
X123700000Y-81500000D01*
X126235000Y-84500000D02*
X123500000Y-84500000D01*
D52*
X163750000Y-102275000D02*
X166325000Y-102275000D01*
X150925000Y-105075000D02*
X151000000Y-105000000D01*
X172450000Y-63525000D02*
X172450000Y-71475000D01*
X145250000Y-105025000D02*
X145250000Y-106250000D01*
D54*
X145312500Y-98750000D02*
X144750000Y-98750000D01*
D52*
X144820000Y-71455000D02*
X144820000Y-72570000D01*
X165400000Y-70175000D02*
X165400000Y-72000000D01*
X131225000Y-74625000D02*
X130200000Y-73600000D01*
X169500000Y-102250000D02*
X166350000Y-102250000D01*
X146455000Y-71455000D02*
X147125000Y-72125000D01*
X144820000Y-71455000D02*
X144820000Y-67180000D01*
X149600000Y-105075000D02*
X150925000Y-105075000D01*
D54*
X144750000Y-98750000D02*
X144000000Y-98000000D01*
D52*
X131200000Y-71850000D02*
X131200000Y-72400000D01*
X144820000Y-67180000D02*
X145000000Y-67000000D01*
D53*
X126235000Y-86000000D02*
X123500000Y-86000000D01*
D52*
X139780000Y-80350000D02*
X138400000Y-80350000D01*
X170325000Y-73600000D02*
X167000000Y-73600000D01*
X172650000Y-102250000D02*
X169500000Y-102250000D01*
X167000000Y-73600000D02*
X164500000Y-76100000D01*
X124250000Y-102000000D02*
X125100000Y-102000000D01*
X146345000Y-69930000D02*
X147180000Y-69930000D01*
X143295000Y-69930000D02*
X141820000Y-69930000D01*
X127000000Y-96750000D02*
X125750000Y-96750000D01*
X167500000Y-106750000D02*
X168750000Y-106750000D01*
X138400000Y-80350000D02*
X138250000Y-80500000D01*
X122000000Y-104000000D02*
X120800000Y-102800000D01*
X143295000Y-71455000D02*
X142500000Y-72250000D01*
X131100000Y-77500000D02*
X130000000Y-76400000D01*
D54*
X145312500Y-98750000D02*
X146500000Y-98750000D01*
D53*
X126235000Y-89000000D02*
X123500000Y-89000000D01*
D52*
X147180000Y-69930000D02*
X147250000Y-70000000D01*
X122000000Y-104225000D02*
X122775000Y-104225000D01*
X122775000Y-104225000D02*
X123500000Y-103500000D01*
X154250000Y-62590000D02*
X152610000Y-62590000D01*
X171600000Y-84400000D02*
X170500000Y-85500000D01*
X131200000Y-72400000D02*
X130000000Y-73600000D01*
X143155000Y-68405000D02*
X142250000Y-67500000D01*
X172450000Y-71475000D02*
X170325000Y-73600000D01*
D54*
%TO.N,WII_PAIR*%
X168000000Y-64100000D02*
X168000000Y-68600000D01*
X167950000Y-70100000D02*
X167950000Y-71475000D01*
X140329000Y-73529000D02*
X138280000Y-71480000D01*
X167900000Y-70100000D02*
X167200000Y-69400000D01*
X138280000Y-71480000D02*
X136750000Y-71480000D01*
X151871000Y-73529000D02*
X140329000Y-73529000D01*
X165400000Y-68625000D02*
X166425000Y-68625000D01*
X166425000Y-68625000D02*
X167200000Y-69400000D01*
X167950000Y-70100000D02*
X167900000Y-70100000D01*
X152200000Y-73200000D02*
X151871000Y-73529000D01*
X168000000Y-68600000D02*
X167200000Y-69400000D01*
D55*
%TO.N,VBUS*%
X164200000Y-99700000D02*
X158250000Y-93750000D01*
X157150000Y-106750000D02*
X148250000Y-106750000D01*
X147425000Y-105925000D02*
X147425000Y-105075000D01*
X131500000Y-93750000D02*
X158250000Y-93750000D01*
X168450000Y-95450000D02*
X168450000Y-92000000D01*
X168450000Y-92000000D02*
X168450000Y-89000000D01*
X165075000Y-98825000D02*
X168450000Y-95450000D01*
X128800000Y-99750000D02*
X128750000Y-99700000D01*
X168400000Y-88950000D02*
X167875000Y-88950000D01*
X167875000Y-88950000D02*
X166250000Y-87325000D01*
X131500000Y-93750000D02*
X128750000Y-96500000D01*
X166200000Y-99950000D02*
X165075000Y-98825000D01*
X148250000Y-106750000D02*
X147425000Y-105925000D01*
X164200000Y-99700000D02*
X165075000Y-98825000D01*
X164200000Y-99700000D02*
X157150000Y-106750000D01*
X128750000Y-99700000D02*
X128750000Y-96525000D01*
X168450000Y-89000000D02*
X168400000Y-88950000D01*
D54*
%TO.N,Net-(D2-DIN)*%
X167875000Y-84050000D02*
X166250000Y-85675000D01*
X168400000Y-84050000D02*
X167875000Y-84050000D01*
X162000000Y-84500000D02*
X165075000Y-84500000D01*
X165075000Y-84500000D02*
X166250000Y-85675000D01*
%TO.N,CHIP_PU*%
X127750000Y-64575000D02*
X130450000Y-64575000D01*
X130500000Y-65250000D02*
X130500000Y-64525000D01*
X136440000Y-65440000D02*
X135810000Y-65440000D01*
X136750000Y-65130000D02*
X139380000Y-65130000D01*
X134750000Y-66500000D02*
X131750000Y-66500000D01*
X141000000Y-83600000D02*
X141250000Y-83850000D01*
X135810000Y-65440000D02*
X134750000Y-66500000D01*
X139380000Y-65130000D02*
X140500000Y-66250000D01*
X131750000Y-66500000D02*
X130500000Y-65250000D01*
X141250000Y-83850000D02*
X141250000Y-86062500D01*
D55*
%TO.N,USB_VBUS*%
X124050000Y-99800000D02*
X122750000Y-98500000D01*
X122000000Y-98500000D02*
X121000000Y-99500000D01*
X124600000Y-99800000D02*
X124050000Y-99800000D01*
X124850000Y-99750000D02*
X126700000Y-99750000D01*
D52*
X119212500Y-100200000D02*
X120300000Y-100200000D01*
D55*
X122750000Y-98500000D02*
X122000000Y-98500000D01*
D52*
X120300000Y-100200000D02*
X121000000Y-99500000D01*
D51*
%TO.N,USB_N*%
X145200803Y-99638303D02*
X145312500Y-99750000D01*
X143258442Y-99791558D02*
X143411697Y-99638303D01*
X143216343Y-99791558D02*
X143258442Y-99791558D01*
X143411697Y-99638303D02*
X145200803Y-99638303D01*
%TO.N,USB_P*%
X143300000Y-99046497D02*
X143300000Y-99074058D01*
X143300000Y-99074058D02*
X143587639Y-99361697D01*
X143587639Y-99361697D02*
X145200803Y-99361697D01*
X145200803Y-99361697D02*
X145312500Y-99250000D01*
D54*
%TO.N,HDMI_DDC_SCL*%
X129500000Y-83500000D02*
X128500000Y-82500000D01*
X131000000Y-87750000D02*
X129500000Y-86250000D01*
X120500000Y-71425000D02*
X120500000Y-68500000D01*
X132000000Y-87750000D02*
X131000000Y-87750000D01*
X121750000Y-76250000D02*
X119500000Y-74000000D01*
X132500000Y-86637500D02*
X132500000Y-87250000D01*
X132500000Y-87250000D02*
X132000000Y-87750000D01*
X123300000Y-82500000D02*
X121750000Y-80950000D01*
X119500000Y-74000000D02*
X119500000Y-72425000D01*
X129500000Y-86250000D02*
X129500000Y-83500000D01*
X119500000Y-72425000D02*
X120500000Y-71425000D01*
X128500000Y-82500000D02*
X123300000Y-82500000D01*
X121750000Y-80950000D02*
X121750000Y-76250000D01*
%TO.N,HDMI_DDC_SDA*%
X126750000Y-71425000D02*
X126750000Y-70375000D01*
X129250000Y-82000000D02*
X130750000Y-83500000D01*
X130750000Y-83500000D02*
X130750000Y-86000000D01*
X126750000Y-70375000D02*
X126750000Y-68500000D01*
X129250000Y-82000000D02*
X126235000Y-82000000D01*
X130750000Y-86000000D02*
X131387500Y-86637500D01*
D52*
%TO.N,HDMI_5V*%
X132352746Y-85500000D02*
X131550000Y-84697254D01*
X136700000Y-85500000D02*
X132352746Y-85500000D01*
X122500000Y-78750000D02*
X122500000Y-74250000D01*
X121675000Y-74250000D02*
X122750000Y-74250000D01*
X124750000Y-81000000D02*
X122500000Y-78750000D01*
X126750000Y-73075000D02*
X125575000Y-74250000D01*
X120500000Y-73075000D02*
X121675000Y-74250000D01*
X125575000Y-74250000D02*
X122500000Y-74250000D01*
X137400000Y-91400000D02*
X137400000Y-86200000D01*
X137400000Y-86200000D02*
X136700000Y-85500000D01*
D53*
X126235000Y-81000000D02*
X129750000Y-81000000D01*
D52*
X129750000Y-81000000D02*
X131550000Y-82800000D01*
D53*
X126235000Y-81000000D02*
X124750000Y-81000000D01*
D52*
X131550000Y-82800000D02*
X131550000Y-84362500D01*
D54*
%TO.N,HDMI_CEC*%
X133450000Y-86637500D02*
X133450000Y-87550000D01*
X130500000Y-88500000D02*
X128500000Y-86500000D01*
X133450000Y-87550000D02*
X133600000Y-87400000D01*
X128500000Y-83750000D02*
X128250000Y-83500000D01*
X128250000Y-83500000D02*
X126235000Y-83500000D01*
X135000000Y-87400000D02*
X135000000Y-88400000D01*
X134237500Y-86637500D02*
X135000000Y-87400000D01*
X133450000Y-86637500D02*
X134237500Y-86637500D01*
X133450000Y-87550000D02*
X132500000Y-88500000D01*
X132500000Y-88500000D02*
X130500000Y-88500000D01*
X128500000Y-86500000D02*
X128500000Y-83750000D01*
%TO.N,HDMI_HOT_PLUG_DETECT*%
X132825000Y-80425000D02*
X132900000Y-80500000D01*
X132900000Y-80500000D02*
X133450000Y-81050000D01*
X132800000Y-72150000D02*
X132800000Y-74775000D01*
X131200000Y-70550000D02*
X132800000Y-72150000D01*
X132825000Y-77500000D02*
X132825000Y-74850000D01*
X126235000Y-80500000D02*
X132900000Y-80500000D01*
X133450000Y-81050000D02*
X133450000Y-84362500D01*
X132825000Y-77500000D02*
X132825000Y-80425000D01*
%TO.N,WII_RX*%
X163815000Y-79910000D02*
X167000000Y-76725000D01*
X136750000Y-76560000D02*
X150195000Y-76560000D01*
X150195000Y-76560000D02*
X153545000Y-79910000D01*
X153545000Y-79910000D02*
X163815000Y-79910000D01*
%TO.N,WII_TX*%
X136750000Y-77830000D02*
X150869168Y-77830000D01*
X167000000Y-80250000D02*
X169500000Y-77750000D01*
X150869168Y-77830000D02*
X153289168Y-80250000D01*
X153289168Y-80250000D02*
X167000000Y-80250000D01*
X169500000Y-77750000D02*
X169500000Y-76725000D01*
%TO.N,Net-(D6-A)*%
X122000000Y-105775000D02*
X124950000Y-105775000D01*
%TO.N,Net-(J1-Pin_2)*%
X156450000Y-72750000D02*
X154250000Y-72750000D01*
X160000000Y-69200000D02*
X156450000Y-72750000D01*
X160000000Y-64600000D02*
X160000000Y-69200000D01*
%TO.N,BOOT*%
X155793500Y-79100000D02*
X154250000Y-79100000D01*
X156000000Y-79306500D02*
X155793500Y-79100000D01*
X155500000Y-86000000D02*
X151112500Y-86000000D01*
%TO.N,Net-(J1-Pin_3)*%
X163000000Y-64600000D02*
X163625000Y-65225000D01*
X163625000Y-65225000D02*
X165400000Y-65225000D01*
%TO.N,DDC_SCL*%
X126325000Y-61325000D02*
X118500000Y-69150000D01*
X150145000Y-61325000D02*
X126325000Y-61325000D01*
X118500000Y-71425000D02*
X118500000Y-69150000D01*
X153950000Y-65130000D02*
X150145000Y-61325000D01*
%TO.N,DDC_SDA*%
X142675000Y-61925000D02*
X127575000Y-61925000D01*
X149690000Y-68940000D02*
X142675000Y-61925000D01*
X124750000Y-71425000D02*
X124750000Y-69150000D01*
X154250000Y-68940000D02*
X149690000Y-68940000D01*
X127575000Y-61925000D02*
X125500000Y-64000000D01*
X125500000Y-68400000D02*
X125500000Y-64000000D01*
X124750000Y-69150000D02*
X125500000Y-68400000D01*
%TO.N,RGB*%
X137355000Y-73355000D02*
X137715000Y-73355000D01*
X139860000Y-75500000D02*
X151500000Y-75500000D01*
X137715000Y-73355000D02*
X139860000Y-75500000D01*
X156000000Y-92000000D02*
X161000000Y-92000000D01*
X136750000Y-72750000D02*
X137355000Y-73355000D01*
X154500000Y-90500000D02*
X156000000Y-92000000D01*
X151500000Y-75500000D02*
X152250000Y-76250000D01*
%TO.N,U0_TXD*%
X154250000Y-66400000D02*
X150850000Y-66400000D01*
X148000000Y-97562500D02*
X148000000Y-96000000D01*
X148000000Y-96000000D02*
X148750000Y-95250000D01*
X150850000Y-66400000D02*
X150500000Y-66750000D01*
%TO.N,U0_RXD*%
X146900000Y-96150000D02*
X147500000Y-96750000D01*
X149670000Y-67670000D02*
X154250000Y-67670000D01*
X147500000Y-96750000D02*
X147500000Y-97562500D01*
X149000000Y-67000000D02*
X149670000Y-67670000D01*
%TO.N,Net-(Q3-D)*%
X131175000Y-68600000D02*
X133200000Y-70625000D01*
X133200000Y-70625000D02*
X133200000Y-71200000D01*
%TO.N,Net-(Q4-S)*%
X162650000Y-86500000D02*
X162650000Y-88825000D01*
X162650000Y-92250000D02*
X162650000Y-89000000D01*
%TO.N,Net-(Q5-B)*%
X140425000Y-91000000D02*
X140425000Y-88062500D01*
%TO.N,Net-(Q5-E)*%
X146250000Y-90250000D02*
X146250000Y-88862500D01*
X148650000Y-97412500D02*
X148500000Y-97562500D01*
X142200000Y-87937500D02*
X143937500Y-87937500D01*
X148650000Y-96650000D02*
X148650000Y-97412500D01*
X144762500Y-88762500D02*
X146150000Y-88762500D01*
X143937500Y-87937500D02*
X144762500Y-88762500D01*
%TO.N,Net-(Q6-B)*%
X147362500Y-87112500D02*
X148250000Y-88000000D01*
X148250000Y-88000000D02*
X150037500Y-88000000D01*
X146150000Y-87112500D02*
X147362500Y-87112500D01*
%TO.N,Net-(Q6-E)*%
X145650000Y-96150000D02*
X146500000Y-97000000D01*
X145650000Y-96150000D02*
X145400000Y-96150000D01*
X146500000Y-97562500D02*
X146500000Y-97000000D01*
X152190000Y-88127500D02*
X152190000Y-88310000D01*
X152190000Y-88310000D02*
X149500000Y-91000000D01*
X149500000Y-91000000D02*
X142075000Y-91000000D01*
X152000000Y-87937500D02*
X152190000Y-88127500D01*
%TO.N,Net-(U1-GPIO5)*%
X135000000Y-90050000D02*
X135000000Y-90800000D01*
X135000000Y-90800000D02*
X136600000Y-92400000D01*
X136600000Y-92400000D02*
X149200000Y-92400000D01*
X154250000Y-74020000D02*
X150580000Y-74020000D01*
X149600000Y-92000000D02*
X149200000Y-92400000D01*
X150580000Y-74020000D02*
X150000000Y-74600000D01*
%TO.N,Net-(U2-~{RST})*%
X150875000Y-101875000D02*
X150250000Y-102500000D01*
X150250000Y-102500000D02*
X147500000Y-102500000D01*
X147000000Y-102000000D02*
X147000000Y-101437500D01*
X147500000Y-102500000D02*
X147000000Y-102000000D01*
%TO.N,Net-(U2-VBUS)*%
X146500000Y-102500000D02*
X146500000Y-101437500D01*
X147425000Y-103425000D02*
X149600000Y-103425000D01*
X147425000Y-103425000D02*
X146500000Y-102500000D01*
%TO.N,HOT_PLUG_DETECT*%
X134600000Y-70375000D02*
X134600000Y-80600000D01*
X139700000Y-82000000D02*
X141050000Y-80650000D01*
X134600000Y-80600000D02*
X136000000Y-82000000D01*
X136000000Y-82000000D02*
X139700000Y-82000000D01*
X132825000Y-68600000D02*
X134600000Y-70375000D01*
%TD*%
M02*
