%TF.GenerationSoftware,KiCad,Pcbnew,7.0.2*%
%TF.CreationDate,2023-05-30T18:58:33-07:00*%
%TF.ProjectId,TvMux,54764d75-782e-46b6-9963-61645f706362,rev?*%
%TF.SameCoordinates,Original*%
%TF.FileFunction,Copper,L3,Inr*%
%TF.FilePolarity,Positive*%
%FSLAX46Y46*%
G04 Gerber Fmt 4.6, Leading zero omitted, Abs format (unit mm)*
G04 Created by KiCad (PCBNEW 7.0.2) date 2023-05-30 18:58:33*
%MOMM*%
%LPD*%
G01*
G04 APERTURE LIST*
G04 Aperture macros list*
%AMRoundRect*
0 Rectangle with rounded corners*
0 $1 Rounding radius*
0 $2 $3 $4 $5 $6 $7 $8 $9 X,Y pos of 4 corners*
0 Add a 4 corners polygon primitive as box body*
4,1,4,$2,$3,$4,$5,$6,$7,$8,$9,$2,$3,0*
0 Add four circle primitives for the rounded corners*
1,1,$1+$1,$2,$3*
1,1,$1+$1,$4,$5*
1,1,$1+$1,$6,$7*
1,1,$1+$1,$8,$9*
0 Add four rect primitives between the rounded corners*
20,1,$1+$1,$2,$3,$4,$5,0*
20,1,$1+$1,$4,$5,$6,$7,0*
20,1,$1+$1,$6,$7,$8,$9,0*
20,1,$1+$1,$8,$9,$2,$3,0*%
G04 Aperture macros list end*
%TA.AperFunction,ComponentPad*%
%ADD10C,4.275000*%
%TD*%
%TA.AperFunction,ComponentPad*%
%ADD11C,2.880000*%
%TD*%
%TA.AperFunction,ComponentPad*%
%ADD12R,1.700000X1.700000*%
%TD*%
%TA.AperFunction,ComponentPad*%
%ADD13O,1.700000X1.700000*%
%TD*%
%TA.AperFunction,ComponentPad*%
%ADD14RoundRect,0.250000X-0.600000X-0.725000X0.600000X-0.725000X0.600000X0.725000X-0.600000X0.725000X0*%
%TD*%
%TA.AperFunction,ComponentPad*%
%ADD15O,1.700000X1.950000*%
%TD*%
%TA.AperFunction,ComponentPad*%
%ADD16O,1.900000X1.200000*%
%TD*%
%TA.AperFunction,ComponentPad*%
%ADD17C,1.450000*%
%TD*%
%TA.AperFunction,ViaPad*%
%ADD18C,0.800000*%
%TD*%
%TA.AperFunction,ViaPad*%
%ADD19C,0.450000*%
%TD*%
G04 APERTURE END LIST*
D10*
%TO.N,N/C*%
%TO.C,J3*%
X125725000Y-77750000D03*
X125725000Y-92250000D03*
D11*
X119765000Y-77750000D03*
X119765000Y-92250000D03*
%TD*%
D12*
%TO.N,GND*%
%TO.C,J1*%
X157460000Y-64600000D03*
D13*
%TO.N,Net-(J1-Pin_2)*%
X160000000Y-64600000D03*
%TO.N,Net-(J1-Pin_3)*%
X162540000Y-64600000D03*
%TD*%
D14*
%TO.N,GND*%
%TO.C,J2*%
X164500000Y-76725000D03*
D15*
%TO.N,WII_RX*%
X167000000Y-76725000D03*
%TO.N,WII_TX*%
X169500000Y-76725000D03*
%TD*%
D16*
%TO.N,unconnected-(J4-Shield-Pad6)*%
%TO.C,J4*%
X116512500Y-98000000D03*
D17*
X119212500Y-99000000D03*
X119212500Y-104000000D03*
D16*
X116512500Y-105000000D03*
%TD*%
D18*
%TO.N,3V3*%
X164250000Y-104500000D03*
X134190000Y-63860000D03*
X144387500Y-102362500D03*
X123875000Y-67250000D03*
X123500000Y-72750000D03*
X126250000Y-104000000D03*
X159500000Y-88750000D03*
X118500000Y-66750000D03*
X154250000Y-101500000D03*
X116750000Y-73000000D03*
X165200000Y-62400000D03*
X129000000Y-63250000D03*
%TO.N,GND*%
X140500000Y-101500000D03*
X142250000Y-67500000D03*
X123600000Y-81400000D03*
X170500000Y-85500000D03*
X168750000Y-106750000D03*
X123500000Y-87500000D03*
X145000000Y-72750000D03*
X169500000Y-102250000D03*
X144000000Y-98000000D03*
X138750000Y-63250000D03*
X151000000Y-105000000D03*
X145250000Y-106250000D03*
X123500000Y-84500000D03*
X138250000Y-80500000D03*
X145000000Y-67000000D03*
X171500000Y-92000000D03*
X147250000Y-70000000D03*
X142500000Y-72250000D03*
X132500000Y-82750000D03*
X147125000Y-67625000D03*
X125750000Y-96750000D03*
X123500000Y-89000000D03*
X147125000Y-72125000D03*
X125500000Y-102400000D03*
X130000000Y-76400000D03*
X141820000Y-69930000D03*
X132475000Y-63725000D03*
X130000000Y-73600000D03*
X152600000Y-62600000D03*
X123500000Y-103500000D03*
X123500000Y-86000000D03*
D19*
%TO.N,WII_PAIR*%
X167200000Y-69400000D03*
X152200000Y-73200000D03*
%TO.N,CHIP_PU*%
X140500000Y-66250000D03*
X141000000Y-83600000D03*
%TO.N,USB_N*%
X140605328Y-98915451D03*
X143216343Y-99791558D03*
%TO.N,USB_P*%
X141394728Y-98925768D03*
X143300000Y-99046497D03*
%TO.N,HDMI_DDC_SDA*%
X129250000Y-82000000D03*
X126750000Y-70375000D03*
%TO.N,BOOT*%
X155500000Y-86000000D03*
X156000000Y-79306500D03*
%TO.N,RGB*%
X154500000Y-90500000D03*
X152250000Y-76250000D03*
%TO.N,U0_TXD*%
X150500000Y-66750000D03*
X148750000Y-95250000D03*
%TO.N,U0_RXD*%
X146900000Y-96150000D03*
X149000000Y-67000000D03*
%TO.N,Net-(Q5-E)*%
X146250000Y-90250000D03*
X148650000Y-96650000D03*
%TO.N,Net-(Q6-E)*%
X145400000Y-96150000D03*
X145000000Y-91000000D03*
%TO.N,Net-(U1-GPIO5)*%
X149600000Y-92000000D03*
X150000000Y-74600000D03*
%TD*%
%TA.AperFunction,Conductor*%
%TO.N,3V3*%
G36*
X126741621Y-55220502D02*
G01*
X126788114Y-55274158D01*
X126799500Y-55326499D01*
X126799500Y-60954236D01*
X126799500Y-60954237D01*
X126799500Y-61045763D01*
X126803395Y-61053851D01*
X126812713Y-61080481D01*
X126814710Y-61089231D01*
X126820304Y-61096245D01*
X126835317Y-61120136D01*
X126839212Y-61128224D01*
X126846231Y-61133822D01*
X126866180Y-61153771D01*
X126871776Y-61160788D01*
X126879856Y-61164679D01*
X126879858Y-61164680D01*
X126903749Y-61179692D01*
X126910769Y-61185290D01*
X126919518Y-61187286D01*
X126946143Y-61196602D01*
X126954237Y-61200500D01*
X126954239Y-61200500D01*
X164045763Y-61200500D01*
X164053847Y-61196606D01*
X164080482Y-61187286D01*
X164089231Y-61185290D01*
X164091175Y-61183738D01*
X164096247Y-61179695D01*
X164120139Y-61164681D01*
X164128224Y-61160788D01*
X164133821Y-61153768D01*
X164153768Y-61133821D01*
X164160788Y-61128224D01*
X164164683Y-61120136D01*
X164179695Y-61096247D01*
X164185289Y-61089232D01*
X164185288Y-61089232D01*
X164185290Y-61089231D01*
X164187287Y-61080481D01*
X164196607Y-61053846D01*
X164200500Y-61045762D01*
X164200500Y-55326500D01*
X164220502Y-55258379D01*
X164274158Y-55211886D01*
X164326500Y-55200500D01*
X167678137Y-55200500D01*
X167746258Y-55220502D01*
X167792751Y-55274158D01*
X167803815Y-55317510D01*
X167836192Y-55770189D01*
X167836510Y-55772403D01*
X167836511Y-55772409D01*
X167909070Y-56277075D01*
X167909074Y-56277101D01*
X167909389Y-56279287D01*
X167909866Y-56281480D01*
X167909867Y-56281485D01*
X168018239Y-56779662D01*
X168018242Y-56779676D01*
X168018719Y-56781866D01*
X168019347Y-56784007D01*
X168019352Y-56784024D01*
X168162988Y-57273205D01*
X168162994Y-57273224D01*
X168163623Y-57275365D01*
X168164403Y-57277458D01*
X168164406Y-57277465D01*
X168342584Y-57755178D01*
X168343364Y-57757269D01*
X168557026Y-58225123D01*
X168803519Y-58676542D01*
X169081589Y-59109226D01*
X169389817Y-59520971D01*
X169391269Y-59522647D01*
X169391283Y-59522664D01*
X169725156Y-59907974D01*
X169726633Y-59909678D01*
X170090322Y-60273367D01*
X170092019Y-60274838D01*
X170092025Y-60274843D01*
X170477335Y-60608716D01*
X170477349Y-60608727D01*
X170479029Y-60610183D01*
X170890774Y-60918411D01*
X171323458Y-61196481D01*
X171774877Y-61442974D01*
X172242731Y-61656636D01*
X172724635Y-61836377D01*
X173218134Y-61981281D01*
X173720713Y-62090611D01*
X173722921Y-62090928D01*
X173722924Y-62090929D01*
X173792604Y-62100947D01*
X174229811Y-62163808D01*
X174682489Y-62196184D01*
X174749009Y-62220995D01*
X174791556Y-62277830D01*
X174799500Y-62321863D01*
X174799500Y-107678136D01*
X174779498Y-107746257D01*
X174725842Y-107792750D01*
X174682489Y-107803815D01*
X174232055Y-107836031D01*
X174232040Y-107836032D01*
X174229811Y-107836192D01*
X174227599Y-107836510D01*
X174227590Y-107836511D01*
X173722924Y-107909070D01*
X173722894Y-107909075D01*
X173720713Y-107909389D01*
X173718523Y-107909865D01*
X173718514Y-107909867D01*
X173220337Y-108018239D01*
X173220316Y-108018244D01*
X173218134Y-108018719D01*
X173215999Y-108019345D01*
X173215975Y-108019352D01*
X172726794Y-108162988D01*
X172726766Y-108162997D01*
X172724635Y-108163623D01*
X172722549Y-108164400D01*
X172722534Y-108164406D01*
X172244821Y-108342584D01*
X172244809Y-108342588D01*
X172242731Y-108343364D01*
X172240718Y-108344283D01*
X172240697Y-108344292D01*
X171776923Y-108556091D01*
X171776908Y-108556098D01*
X171774877Y-108557026D01*
X171772922Y-108558093D01*
X171772903Y-108558103D01*
X171325431Y-108802441D01*
X171325416Y-108802449D01*
X171323458Y-108803519D01*
X171321584Y-108804722D01*
X171321566Y-108804734D01*
X170892663Y-109080374D01*
X170892643Y-109080387D01*
X170890774Y-109081589D01*
X170888984Y-109082928D01*
X170888971Y-109082938D01*
X170480825Y-109388472D01*
X170480815Y-109388479D01*
X170479029Y-109389817D01*
X170477365Y-109391258D01*
X170477335Y-109391283D01*
X170092025Y-109725156D01*
X170092004Y-109725175D01*
X170090322Y-109726633D01*
X170088734Y-109728220D01*
X170088720Y-109728234D01*
X169728234Y-110088720D01*
X169728220Y-110088734D01*
X169726633Y-110090322D01*
X169725175Y-110092004D01*
X169725156Y-110092025D01*
X169391283Y-110477335D01*
X169391258Y-110477365D01*
X169389817Y-110479029D01*
X169388479Y-110480815D01*
X169388472Y-110480825D01*
X169082938Y-110888971D01*
X169082928Y-110888984D01*
X169081589Y-110890774D01*
X169080387Y-110892643D01*
X169080374Y-110892663D01*
X168804734Y-111321566D01*
X168804722Y-111321584D01*
X168803519Y-111323458D01*
X168802449Y-111325416D01*
X168802441Y-111325431D01*
X168558103Y-111772903D01*
X168558093Y-111772922D01*
X168557026Y-111774877D01*
X168556098Y-111776908D01*
X168556091Y-111776923D01*
X168344292Y-112240697D01*
X168344283Y-112240718D01*
X168343364Y-112242731D01*
X168342588Y-112244809D01*
X168342584Y-112244821D01*
X168164406Y-112722534D01*
X168164400Y-112722549D01*
X168163623Y-112724635D01*
X168162997Y-112726766D01*
X168162988Y-112726794D01*
X168019352Y-113215975D01*
X168019345Y-113215999D01*
X168018719Y-113218134D01*
X168018244Y-113220316D01*
X168018239Y-113220337D01*
X167960237Y-113486969D01*
X167909389Y-113720713D01*
X167909075Y-113722894D01*
X167909070Y-113722924D01*
X167871162Y-113986587D01*
X167836192Y-114229811D01*
X167836032Y-114232040D01*
X167836031Y-114232055D01*
X167803816Y-114682489D01*
X167779005Y-114749009D01*
X167722170Y-114791556D01*
X167678137Y-114799500D01*
X122321863Y-114799500D01*
X122253742Y-114779498D01*
X122207249Y-114725842D01*
X122196184Y-114682489D01*
X122163968Y-114232055D01*
X122163808Y-114229811D01*
X122090611Y-113720713D01*
X121981281Y-113218134D01*
X121836377Y-112724635D01*
X121656636Y-112242731D01*
X121442974Y-111774877D01*
X121196481Y-111323458D01*
X120918411Y-110890774D01*
X120610183Y-110479029D01*
X120608727Y-110477349D01*
X120608716Y-110477335D01*
X120274843Y-110092025D01*
X120274838Y-110092019D01*
X120273367Y-110090322D01*
X119909678Y-109726633D01*
X119907981Y-109725162D01*
X119907974Y-109725156D01*
X119522664Y-109391283D01*
X119522647Y-109391269D01*
X119520971Y-109389817D01*
X119109226Y-109081589D01*
X119107343Y-109080378D01*
X119107336Y-109080374D01*
X118678433Y-108804734D01*
X118678427Y-108804730D01*
X118676542Y-108803519D01*
X118674568Y-108802441D01*
X118227096Y-108558103D01*
X118227088Y-108558099D01*
X118225123Y-108557026D01*
X118105910Y-108502583D01*
X117759302Y-108344292D01*
X117759291Y-108344287D01*
X117757269Y-108343364D01*
X117755178Y-108342584D01*
X117277465Y-108164406D01*
X117277458Y-108164403D01*
X117275365Y-108163623D01*
X117273224Y-108162994D01*
X117273205Y-108162988D01*
X116784024Y-108019352D01*
X116784007Y-108019347D01*
X116781866Y-108018719D01*
X116779676Y-108018242D01*
X116779662Y-108018239D01*
X116281485Y-107909867D01*
X116281480Y-107909866D01*
X116279287Y-107909389D01*
X116277101Y-107909074D01*
X116277075Y-107909070D01*
X115772409Y-107836511D01*
X115772403Y-107836510D01*
X115770189Y-107836192D01*
X115767956Y-107836032D01*
X115767944Y-107836031D01*
X115317511Y-107803815D01*
X115250991Y-107779004D01*
X115208444Y-107722168D01*
X115200500Y-107678136D01*
X115200500Y-106250000D01*
X144336496Y-106250000D01*
X144356458Y-106439929D01*
X144415472Y-106621556D01*
X144510958Y-106786942D01*
X144510960Y-106786944D01*
X144638747Y-106928866D01*
X144793248Y-107041118D01*
X144967712Y-107118794D01*
X145154513Y-107158500D01*
X145154515Y-107158500D01*
X145345485Y-107158500D01*
X145345487Y-107158500D01*
X145532288Y-107118794D01*
X145706752Y-107041118D01*
X145861253Y-106928866D01*
X145989040Y-106786944D01*
X146010370Y-106749999D01*
X167836496Y-106749999D01*
X167856458Y-106939929D01*
X167915472Y-107121556D01*
X168010958Y-107286942D01*
X168010960Y-107286944D01*
X168138747Y-107428866D01*
X168293248Y-107541118D01*
X168467712Y-107618794D01*
X168654513Y-107658500D01*
X168654515Y-107658500D01*
X168845485Y-107658500D01*
X168845487Y-107658500D01*
X169032288Y-107618794D01*
X169206752Y-107541118D01*
X169361253Y-107428866D01*
X169489040Y-107286944D01*
X169584527Y-107121556D01*
X169643542Y-106939928D01*
X169663504Y-106750000D01*
X169643542Y-106560072D01*
X169584527Y-106378444D01*
X169584527Y-106378443D01*
X169489041Y-106213057D01*
X169361252Y-106071133D01*
X169206753Y-105958883D01*
X169206752Y-105958882D01*
X169032288Y-105881206D01*
X168845487Y-105841500D01*
X168654513Y-105841500D01*
X168529978Y-105867970D01*
X168467711Y-105881206D01*
X168293246Y-105958883D01*
X168138747Y-106071133D01*
X168010958Y-106213057D01*
X167915472Y-106378443D01*
X167856458Y-106560070D01*
X167836496Y-106749999D01*
X146010370Y-106749999D01*
X146084527Y-106621556D01*
X146143542Y-106439928D01*
X146163504Y-106250000D01*
X146143542Y-106060072D01*
X146094293Y-105908500D01*
X146084527Y-105878443D01*
X145989041Y-105713057D01*
X145861252Y-105571133D01*
X145784002Y-105515008D01*
X145706752Y-105458882D01*
X145532288Y-105381206D01*
X145345487Y-105341500D01*
X145154513Y-105341500D01*
X145029978Y-105367970D01*
X144967711Y-105381206D01*
X144793246Y-105458883D01*
X144638747Y-105571133D01*
X144510958Y-105713057D01*
X144415472Y-105878443D01*
X144356458Y-106060070D01*
X144336496Y-106250000D01*
X115200500Y-106250000D01*
X115200500Y-105908612D01*
X115220502Y-105840491D01*
X115274158Y-105793998D01*
X115344432Y-105783894D01*
X115409012Y-105813388D01*
X115413428Y-105817401D01*
X115474154Y-105875303D01*
X115525984Y-105908612D01*
X115652249Y-105989758D01*
X115848775Y-106068435D01*
X115848777Y-106068435D01*
X115848779Y-106068436D01*
X116056651Y-106108500D01*
X116912302Y-106108500D01*
X116915303Y-106108500D01*
X117073239Y-106093419D01*
X117276362Y-106033777D01*
X117464526Y-105936771D01*
X117630932Y-105805908D01*
X117769565Y-105645918D01*
X117875413Y-105462582D01*
X117944653Y-105262527D01*
X117967248Y-105105369D01*
X117974781Y-105052985D01*
X117964708Y-104841527D01*
X117953641Y-104795910D01*
X117946607Y-104766913D01*
X117949985Y-104695998D01*
X117991166Y-104638166D01*
X118057077Y-104611779D01*
X118126791Y-104625214D01*
X118172268Y-104664937D01*
X118263977Y-104795910D01*
X118416589Y-104948522D01*
X118416592Y-104948524D01*
X118416593Y-104948525D01*
X118593394Y-105072323D01*
X118789007Y-105163539D01*
X118997487Y-105219401D01*
X119212500Y-105238212D01*
X119427513Y-105219401D01*
X119635993Y-105163539D01*
X119831606Y-105072323D01*
X119934893Y-105000000D01*
X150086496Y-105000000D01*
X150106458Y-105189929D01*
X150165472Y-105371556D01*
X150260958Y-105536942D01*
X150388747Y-105678866D01*
X150543248Y-105791118D01*
X150717712Y-105868794D01*
X150904513Y-105908500D01*
X150904515Y-105908500D01*
X151095485Y-105908500D01*
X151095487Y-105908500D01*
X151282288Y-105868794D01*
X151456752Y-105791118D01*
X151611253Y-105678866D01*
X151739040Y-105536944D01*
X151834527Y-105371556D01*
X151893542Y-105189928D01*
X151913504Y-105000000D01*
X151893542Y-104810072D01*
X151856477Y-104695998D01*
X151834527Y-104628443D01*
X151739041Y-104463057D01*
X151611252Y-104321133D01*
X151465193Y-104215015D01*
X151456752Y-104208882D01*
X151282288Y-104131206D01*
X151095487Y-104091500D01*
X150904513Y-104091500D01*
X150779979Y-104117970D01*
X150717711Y-104131206D01*
X150543246Y-104208883D01*
X150388747Y-104321133D01*
X150260958Y-104463057D01*
X150165472Y-104628443D01*
X150106458Y-104810070D01*
X150086496Y-105000000D01*
X119934893Y-105000000D01*
X120008407Y-104948525D01*
X120161025Y-104795907D01*
X120284823Y-104619106D01*
X120376039Y-104423493D01*
X120431901Y-104215013D01*
X120450712Y-104000000D01*
X120431901Y-103784987D01*
X120376039Y-103576507D01*
X120340363Y-103500000D01*
X122586496Y-103500000D01*
X122606458Y-103689929D01*
X122665472Y-103871556D01*
X122760958Y-104036942D01*
X122888747Y-104178865D01*
X122888747Y-104178866D01*
X123043248Y-104291118D01*
X123217712Y-104368794D01*
X123404513Y-104408500D01*
X123404515Y-104408500D01*
X123595485Y-104408500D01*
X123595487Y-104408500D01*
X123782288Y-104368794D01*
X123956752Y-104291118D01*
X124111253Y-104178866D01*
X124239040Y-104036944D01*
X124334527Y-103871556D01*
X124393542Y-103689928D01*
X124413504Y-103500000D01*
X124393542Y-103310072D01*
X124334527Y-103128444D01*
X124334527Y-103128443D01*
X124239041Y-102963057D01*
X124125053Y-102836461D01*
X124111253Y-102821134D01*
X123956752Y-102708882D01*
X123782288Y-102631206D01*
X123595487Y-102591500D01*
X123404513Y-102591500D01*
X123279978Y-102617970D01*
X123217711Y-102631206D01*
X123043246Y-102708883D01*
X122888747Y-102821133D01*
X122760958Y-102963057D01*
X122665472Y-103128443D01*
X122606458Y-103310070D01*
X122586496Y-103500000D01*
X120340363Y-103500000D01*
X120284823Y-103380894D01*
X120161025Y-103204093D01*
X120161024Y-103204092D01*
X120161022Y-103204089D01*
X120008410Y-103051477D01*
X119831606Y-102927677D01*
X119635992Y-102836460D01*
X119427513Y-102780599D01*
X119212500Y-102761788D01*
X118997486Y-102780599D01*
X118789007Y-102836460D01*
X118593393Y-102927677D01*
X118416589Y-103051477D01*
X118263977Y-103204089D01*
X118140177Y-103380893D01*
X118048960Y-103576507D01*
X117993099Y-103784986D01*
X117974288Y-104000000D01*
X117993099Y-104215015D01*
X118010680Y-104280630D01*
X118008990Y-104351607D01*
X117969195Y-104410402D01*
X117903930Y-104438349D01*
X117833917Y-104426575D01*
X117786336Y-104386327D01*
X117763374Y-104354082D01*
X117704059Y-104270785D01*
X117550846Y-104124697D01*
X117414297Y-104036942D01*
X117372750Y-104010241D01*
X117176224Y-103931564D01*
X116968349Y-103891500D01*
X116109697Y-103891500D01*
X116051828Y-103897025D01*
X115951757Y-103906581D01*
X115748638Y-103966222D01*
X115560474Y-104063228D01*
X115524524Y-104091500D01*
X115404386Y-104185977D01*
X115338477Y-104212363D01*
X115268764Y-104198927D01*
X115217381Y-104149934D01*
X115200500Y-104086934D01*
X115200500Y-102400000D01*
X124586496Y-102400000D01*
X124606458Y-102589929D01*
X124665472Y-102771556D01*
X124760958Y-102936942D01*
X124760960Y-102936944D01*
X124888747Y-103078866D01*
X125043248Y-103191118D01*
X125217712Y-103268794D01*
X125404513Y-103308500D01*
X125404515Y-103308500D01*
X125595485Y-103308500D01*
X125595487Y-103308500D01*
X125782288Y-103268794D01*
X125956752Y-103191118D01*
X126111253Y-103078866D01*
X126239040Y-102936944D01*
X126334527Y-102771556D01*
X126393542Y-102589928D01*
X126413504Y-102400000D01*
X126393542Y-102210072D01*
X126334527Y-102028444D01*
X126334527Y-102028443D01*
X126239041Y-101863057D01*
X126111252Y-101721133D01*
X125956753Y-101608883D01*
X125956752Y-101608882D01*
X125782288Y-101531206D01*
X125635476Y-101500000D01*
X139586496Y-101500000D01*
X139606458Y-101689929D01*
X139665472Y-101871556D01*
X139760958Y-102036942D01*
X139888747Y-102178865D01*
X139888747Y-102178866D01*
X140043248Y-102291118D01*
X140217712Y-102368794D01*
X140404513Y-102408500D01*
X140404515Y-102408500D01*
X140595485Y-102408500D01*
X140595487Y-102408500D01*
X140782288Y-102368794D01*
X140956752Y-102291118D01*
X141013347Y-102249999D01*
X168586496Y-102249999D01*
X168606458Y-102439929D01*
X168665472Y-102621556D01*
X168760958Y-102786942D01*
X168760960Y-102786944D01*
X168888747Y-102928866D01*
X169043248Y-103041118D01*
X169217712Y-103118794D01*
X169404513Y-103158500D01*
X169404515Y-103158500D01*
X169595485Y-103158500D01*
X169595487Y-103158500D01*
X169782288Y-103118794D01*
X169956752Y-103041118D01*
X170111253Y-102928866D01*
X170239040Y-102786944D01*
X170334527Y-102621556D01*
X170393542Y-102439928D01*
X170413504Y-102250000D01*
X170393542Y-102060072D01*
X170334527Y-101878444D01*
X170334527Y-101878443D01*
X170239041Y-101713057D01*
X170111252Y-101571133D01*
X170013346Y-101500000D01*
X169956752Y-101458882D01*
X169782288Y-101381206D01*
X169595487Y-101341500D01*
X169404513Y-101341500D01*
X169279979Y-101367970D01*
X169217711Y-101381206D01*
X169043246Y-101458883D01*
X168888747Y-101571133D01*
X168760958Y-101713057D01*
X168665472Y-101878443D01*
X168606458Y-102060070D01*
X168586496Y-102249999D01*
X141013347Y-102249999D01*
X141111253Y-102178866D01*
X141239040Y-102036944D01*
X141334527Y-101871556D01*
X141393542Y-101689928D01*
X141413504Y-101500000D01*
X141393542Y-101310072D01*
X141334527Y-101128444D01*
X141334527Y-101128443D01*
X141239041Y-100963057D01*
X141111252Y-100821133D01*
X140956753Y-100708883D01*
X140956752Y-100708882D01*
X140782288Y-100631206D01*
X140595487Y-100591500D01*
X140404513Y-100591500D01*
X140279978Y-100617970D01*
X140217711Y-100631206D01*
X140043246Y-100708883D01*
X139888747Y-100821133D01*
X139760958Y-100963057D01*
X139665472Y-101128443D01*
X139606458Y-101310070D01*
X139586496Y-101500000D01*
X125635476Y-101500000D01*
X125595487Y-101491500D01*
X125404513Y-101491500D01*
X125279979Y-101517970D01*
X125217711Y-101531206D01*
X125043246Y-101608883D01*
X124888747Y-101721133D01*
X124760958Y-101863057D01*
X124665472Y-102028443D01*
X124606458Y-102210070D01*
X124586496Y-102400000D01*
X115200500Y-102400000D01*
X115200500Y-98908612D01*
X115220502Y-98840491D01*
X115274158Y-98793998D01*
X115344432Y-98783894D01*
X115409012Y-98813388D01*
X115413428Y-98817401D01*
X115474154Y-98875303D01*
X115552679Y-98925768D01*
X115652249Y-98989758D01*
X115848775Y-99068435D01*
X115848777Y-99068435D01*
X115848779Y-99068436D01*
X116056651Y-99108500D01*
X116912302Y-99108500D01*
X116915303Y-99108500D01*
X117073239Y-99093419D01*
X117276362Y-99033777D01*
X117464526Y-98936771D01*
X117630932Y-98805908D01*
X117769565Y-98645918D01*
X117777684Y-98631854D01*
X117829065Y-98582860D01*
X117898778Y-98569422D01*
X117964690Y-98595807D01*
X118005874Y-98653638D01*
X118009254Y-98724554D01*
X118008512Y-98727462D01*
X117993099Y-98784984D01*
X117974288Y-99000000D01*
X117993099Y-99215013D01*
X118048960Y-99423492D01*
X118140177Y-99619106D01*
X118263977Y-99795910D01*
X118416589Y-99948522D01*
X118416592Y-99948524D01*
X118416593Y-99948525D01*
X118593394Y-100072323D01*
X118789007Y-100163539D01*
X118997487Y-100219401D01*
X119212500Y-100238212D01*
X119427513Y-100219401D01*
X119635993Y-100163539D01*
X119831606Y-100072323D01*
X120008407Y-99948525D01*
X120161025Y-99795907D01*
X120164070Y-99791558D01*
X142478202Y-99791558D01*
X142496709Y-99955812D01*
X142551300Y-100111824D01*
X142639242Y-100251783D01*
X142756117Y-100368658D01*
X142756119Y-100368659D01*
X142756120Y-100368660D01*
X142896076Y-100456600D01*
X143052091Y-100511192D01*
X143216343Y-100529699D01*
X143380595Y-100511192D01*
X143536610Y-100456600D01*
X143676566Y-100368660D01*
X143793445Y-100251781D01*
X143881385Y-100111825D01*
X143935977Y-99955810D01*
X143954484Y-99791558D01*
X143935977Y-99627306D01*
X143907855Y-99546941D01*
X143904236Y-99476039D01*
X143920096Y-99438294D01*
X143965042Y-99366764D01*
X144019634Y-99210749D01*
X144038141Y-99046497D01*
X144037095Y-99037217D01*
X144049344Y-98967288D01*
X144097457Y-98915080D01*
X144136099Y-98899867D01*
X144282288Y-98868794D01*
X144456752Y-98791118D01*
X144611253Y-98678866D01*
X144739040Y-98536944D01*
X144834527Y-98371556D01*
X144893542Y-98189928D01*
X144913504Y-98000000D01*
X144893542Y-97810072D01*
X144834527Y-97628444D01*
X144834527Y-97628443D01*
X144739041Y-97463057D01*
X144611252Y-97321133D01*
X144534002Y-97265008D01*
X144456752Y-97208882D01*
X144282288Y-97131206D01*
X144095487Y-97091500D01*
X143904513Y-97091500D01*
X143779979Y-97117970D01*
X143717711Y-97131206D01*
X143543246Y-97208883D01*
X143388747Y-97321133D01*
X143260958Y-97463057D01*
X143165472Y-97628443D01*
X143106458Y-97810070D01*
X143103684Y-97836461D01*
X143086496Y-98000000D01*
X143106458Y-98189928D01*
X143111059Y-98204089D01*
X143111327Y-98204912D01*
X143113355Y-98275879D01*
X143076692Y-98336677D01*
X143033111Y-98362777D01*
X143009768Y-98370945D01*
X142979733Y-98381455D01*
X142979731Y-98381455D01*
X142979731Y-98381456D01*
X142839774Y-98469396D01*
X142722899Y-98586271D01*
X142634957Y-98726230D01*
X142580366Y-98882242D01*
X142574222Y-98936771D01*
X142561859Y-99046497D01*
X142565601Y-99079705D01*
X142580366Y-99210751D01*
X142608486Y-99291111D01*
X142612106Y-99362015D01*
X142596245Y-99399761D01*
X142551299Y-99471292D01*
X142496709Y-99627303D01*
X142478202Y-99791558D01*
X120164070Y-99791558D01*
X120284823Y-99619106D01*
X120376039Y-99423493D01*
X120431901Y-99215013D01*
X120450712Y-99000000D01*
X120443315Y-98915451D01*
X139867187Y-98915451D01*
X139869589Y-98936769D01*
X139885694Y-99079705D01*
X139940285Y-99235717D01*
X140028227Y-99375676D01*
X140145102Y-99492551D01*
X140145104Y-99492552D01*
X140145105Y-99492553D01*
X140285061Y-99580493D01*
X140441076Y-99635085D01*
X140605328Y-99653592D01*
X140769580Y-99635085D01*
X140925595Y-99580493D01*
X140925595Y-99580492D01*
X140938995Y-99575804D01*
X140939371Y-99576880D01*
X140993099Y-99561697D01*
X141058851Y-99581002D01*
X141074461Y-99590810D01*
X141230476Y-99645402D01*
X141394728Y-99663909D01*
X141558980Y-99645402D01*
X141714995Y-99590810D01*
X141854951Y-99502870D01*
X141971830Y-99385991D01*
X142059770Y-99246035D01*
X142114362Y-99090020D01*
X142132869Y-98925768D01*
X142114362Y-98761516D01*
X142059770Y-98605501D01*
X141971830Y-98465545D01*
X141971829Y-98465544D01*
X141971828Y-98465542D01*
X141854953Y-98348667D01*
X141714994Y-98260725D01*
X141558982Y-98206134D01*
X141449478Y-98193795D01*
X141394728Y-98187627D01*
X141394727Y-98187627D01*
X141230473Y-98206134D01*
X141061062Y-98265414D01*
X141060685Y-98264337D01*
X141006946Y-98279521D01*
X140941204Y-98260217D01*
X140925595Y-98250409D01*
X140925593Y-98250408D01*
X140925591Y-98250407D01*
X140769582Y-98195817D01*
X140605328Y-98177310D01*
X140441073Y-98195817D01*
X140285061Y-98250408D01*
X140145102Y-98338350D01*
X140028227Y-98455225D01*
X139940285Y-98595184D01*
X139885694Y-98751196D01*
X139867229Y-98915080D01*
X139867187Y-98915451D01*
X120443315Y-98915451D01*
X120431901Y-98784987D01*
X120376039Y-98576507D01*
X120284823Y-98380894D01*
X120161025Y-98204093D01*
X120161024Y-98204092D01*
X120161022Y-98204089D01*
X120008410Y-98051477D01*
X119831606Y-97927677D01*
X119635992Y-97836460D01*
X119427513Y-97780599D01*
X119212500Y-97761788D01*
X118997486Y-97780599D01*
X118789007Y-97836460D01*
X118593393Y-97927677D01*
X118416589Y-98051477D01*
X118263977Y-98204089D01*
X118175861Y-98329931D01*
X118120403Y-98374260D01*
X118049784Y-98381568D01*
X117986424Y-98349537D01*
X117950439Y-98288335D01*
X117947931Y-98239728D01*
X117974781Y-98052984D01*
X117964708Y-97841527D01*
X117945364Y-97761788D01*
X117914798Y-97635796D01*
X117826856Y-97443229D01*
X117826854Y-97443224D01*
X117704063Y-97270788D01*
X117628696Y-97198927D01*
X117550846Y-97124697D01*
X117455199Y-97063228D01*
X117372750Y-97010241D01*
X117176224Y-96931564D01*
X116968349Y-96891500D01*
X116109697Y-96891500D01*
X116051828Y-96897025D01*
X115951757Y-96906581D01*
X115748638Y-96966222D01*
X115560474Y-97063228D01*
X115486305Y-97121556D01*
X115404386Y-97185977D01*
X115338477Y-97212363D01*
X115268764Y-97198927D01*
X115217381Y-97149934D01*
X115200500Y-97086934D01*
X115200500Y-96750000D01*
X124836496Y-96750000D01*
X124856458Y-96939929D01*
X124915472Y-97121556D01*
X125010958Y-97286942D01*
X125041744Y-97321133D01*
X125138747Y-97428866D01*
X125293248Y-97541118D01*
X125467712Y-97618794D01*
X125654513Y-97658500D01*
X125654515Y-97658500D01*
X125845485Y-97658500D01*
X125845487Y-97658500D01*
X126032288Y-97618794D01*
X126206752Y-97541118D01*
X126361253Y-97428866D01*
X126489040Y-97286944D01*
X126584527Y-97121556D01*
X126643542Y-96939928D01*
X126663504Y-96750000D01*
X126643542Y-96560072D01*
X126584527Y-96378444D01*
X126584527Y-96378443D01*
X126489041Y-96213057D01*
X126432264Y-96150000D01*
X144661859Y-96150000D01*
X144680366Y-96314254D01*
X144734957Y-96470266D01*
X144822899Y-96610225D01*
X144939774Y-96727100D01*
X144939776Y-96727101D01*
X144939777Y-96727102D01*
X145079733Y-96815042D01*
X145235748Y-96869634D01*
X145400000Y-96888141D01*
X145564252Y-96869634D01*
X145720267Y-96815042D01*
X145860223Y-96727102D01*
X145977102Y-96610223D01*
X146043315Y-96504845D01*
X146096491Y-96457810D01*
X146166658Y-96446990D01*
X146231536Y-96475823D01*
X146256683Y-96504842D01*
X146322898Y-96610223D01*
X146322901Y-96610227D01*
X146439774Y-96727100D01*
X146439776Y-96727101D01*
X146439777Y-96727102D01*
X146579733Y-96815042D01*
X146735748Y-96869634D01*
X146900000Y-96888141D01*
X147064252Y-96869634D01*
X147220267Y-96815042D01*
X147360223Y-96727102D01*
X147437326Y-96649999D01*
X147911859Y-96649999D01*
X147930366Y-96814254D01*
X147984957Y-96970266D01*
X148072899Y-97110225D01*
X148189774Y-97227100D01*
X148189776Y-97227101D01*
X148189777Y-97227102D01*
X148329733Y-97315042D01*
X148485748Y-97369634D01*
X148650000Y-97388141D01*
X148814252Y-97369634D01*
X148970267Y-97315042D01*
X149110223Y-97227102D01*
X149227102Y-97110223D01*
X149315042Y-96970267D01*
X149369634Y-96814252D01*
X149388141Y-96650000D01*
X149369634Y-96485748D01*
X149315042Y-96329733D01*
X149227102Y-96189777D01*
X149227101Y-96189776D01*
X149227100Y-96189774D01*
X149109584Y-96072258D01*
X149075558Y-96009946D01*
X149080623Y-95939131D01*
X149123170Y-95882295D01*
X149131620Y-95876490D01*
X149210223Y-95827102D01*
X149327102Y-95710223D01*
X149415042Y-95570267D01*
X149469634Y-95414252D01*
X149488141Y-95250000D01*
X149469634Y-95085748D01*
X149415042Y-94929733D01*
X149327102Y-94789777D01*
X149327101Y-94789776D01*
X149327100Y-94789774D01*
X149210225Y-94672899D01*
X149070266Y-94584957D01*
X148914254Y-94530366D01*
X148804750Y-94518028D01*
X148750000Y-94511859D01*
X148749999Y-94511859D01*
X148585745Y-94530366D01*
X148429733Y-94584957D01*
X148289774Y-94672899D01*
X148172899Y-94789774D01*
X148084957Y-94929733D01*
X148030366Y-95085745D01*
X148011859Y-95249999D01*
X148030366Y-95414254D01*
X148084957Y-95570266D01*
X148172899Y-95710225D01*
X148290415Y-95827741D01*
X148324441Y-95890053D01*
X148319376Y-95960868D01*
X148276829Y-96017704D01*
X148268356Y-96023523D01*
X148189775Y-96072898D01*
X148072899Y-96189774D01*
X147984957Y-96329733D01*
X147930366Y-96485745D01*
X147911859Y-96649999D01*
X147437326Y-96649999D01*
X147477102Y-96610223D01*
X147565042Y-96470267D01*
X147619634Y-96314252D01*
X147638141Y-96150000D01*
X147619634Y-95985748D01*
X147565042Y-95829733D01*
X147477102Y-95689777D01*
X147477101Y-95689776D01*
X147477100Y-95689774D01*
X147360225Y-95572899D01*
X147220266Y-95484957D01*
X147064254Y-95430366D01*
X146954750Y-95418027D01*
X146900000Y-95411859D01*
X146899999Y-95411859D01*
X146735745Y-95430366D01*
X146579733Y-95484957D01*
X146439774Y-95572899D01*
X146322898Y-95689775D01*
X146256687Y-95795151D01*
X146203509Y-95842189D01*
X146133341Y-95853009D01*
X146068463Y-95824176D01*
X146043313Y-95795151D01*
X145977101Y-95689775D01*
X145860225Y-95572899D01*
X145720266Y-95484957D01*
X145564254Y-95430366D01*
X145400000Y-95411859D01*
X145235745Y-95430366D01*
X145079733Y-95484957D01*
X144939774Y-95572899D01*
X144822899Y-95689774D01*
X144734957Y-95829733D01*
X144680366Y-95985745D01*
X144661859Y-96150000D01*
X126432264Y-96150000D01*
X126361252Y-96071133D01*
X126243730Y-95985748D01*
X126206752Y-95958882D01*
X126032288Y-95881206D01*
X125845487Y-95841500D01*
X125654513Y-95841500D01*
X125529979Y-95867970D01*
X125467711Y-95881206D01*
X125293246Y-95958883D01*
X125138747Y-96071133D01*
X125010958Y-96213057D01*
X124915472Y-96378443D01*
X124856458Y-96560070D01*
X124836496Y-96750000D01*
X115200500Y-96750000D01*
X115200500Y-92249999D01*
X117811522Y-92249999D01*
X117831407Y-92528013D01*
X117890650Y-92800351D01*
X117890653Y-92800358D01*
X117988055Y-93061504D01*
X117988056Y-93061505D01*
X118121632Y-93306131D01*
X118288662Y-93529257D01*
X118485742Y-93726337D01*
X118525162Y-93755846D01*
X118708871Y-93893369D01*
X118953496Y-94026945D01*
X119214642Y-94124347D01*
X119214643Y-94124347D01*
X119214648Y-94124349D01*
X119486986Y-94183592D01*
X119486991Y-94183593D01*
X119737146Y-94201484D01*
X119764999Y-94203477D01*
X119764999Y-94203476D01*
X119765000Y-94203477D01*
X120043009Y-94183593D01*
X120101263Y-94170920D01*
X120315351Y-94124349D01*
X120315354Y-94124347D01*
X120315358Y-94124347D01*
X120576504Y-94026945D01*
X120821129Y-93893369D01*
X121044255Y-93726339D01*
X121241339Y-93529255D01*
X121408369Y-93306129D01*
X121541945Y-93061504D01*
X121639347Y-92800358D01*
X121641358Y-92791116D01*
X121698592Y-92528013D01*
X121698591Y-92528013D01*
X121698593Y-92528009D01*
X121718477Y-92250000D01*
X123074164Y-92250000D01*
X123074394Y-92253802D01*
X123086880Y-92460225D01*
X123093492Y-92569523D01*
X123094175Y-92573253D01*
X123094177Y-92573265D01*
X123150504Y-92880635D01*
X123151192Y-92884387D01*
X123246425Y-93189999D01*
X123247986Y-93193469D01*
X123247989Y-93193475D01*
X123376236Y-93478429D01*
X123376240Y-93478436D01*
X123377801Y-93481905D01*
X123543405Y-93755846D01*
X123545745Y-93758833D01*
X123545748Y-93758837D01*
X123651145Y-93893367D01*
X123740821Y-94007829D01*
X123967171Y-94234179D01*
X124219154Y-94431595D01*
X124493095Y-94597199D01*
X124785001Y-94728575D01*
X125090613Y-94823808D01*
X125405477Y-94881508D01*
X125725000Y-94900836D01*
X126044523Y-94881508D01*
X126359387Y-94823808D01*
X126664999Y-94728575D01*
X126956905Y-94597199D01*
X127230846Y-94431595D01*
X127482829Y-94234179D01*
X127709179Y-94007829D01*
X127906595Y-93755846D01*
X128072199Y-93481905D01*
X128203575Y-93189999D01*
X128298808Y-92884387D01*
X128356508Y-92569523D01*
X128375836Y-92250000D01*
X128360713Y-92000000D01*
X148861859Y-92000000D01*
X148880366Y-92164254D01*
X148934957Y-92320266D01*
X149022899Y-92460225D01*
X149139774Y-92577100D01*
X149139776Y-92577101D01*
X149139777Y-92577102D01*
X149279733Y-92665042D01*
X149435748Y-92719634D01*
X149600000Y-92738141D01*
X149764252Y-92719634D01*
X149920267Y-92665042D01*
X150060223Y-92577102D01*
X150177102Y-92460223D01*
X150265042Y-92320267D01*
X150319634Y-92164252D01*
X150338141Y-92000000D01*
X150338141Y-91999999D01*
X170586496Y-91999999D01*
X170606458Y-92189929D01*
X170665472Y-92371556D01*
X170760958Y-92536942D01*
X170797118Y-92577102D01*
X170888747Y-92678866D01*
X171043248Y-92791118D01*
X171217712Y-92868794D01*
X171404513Y-92908500D01*
X171404515Y-92908500D01*
X171595485Y-92908500D01*
X171595487Y-92908500D01*
X171782288Y-92868794D01*
X171956752Y-92791118D01*
X172111253Y-92678866D01*
X172239040Y-92536944D01*
X172334527Y-92371556D01*
X172393542Y-92189928D01*
X172413504Y-92000000D01*
X172393542Y-91810072D01*
X172334527Y-91628444D01*
X172334527Y-91628443D01*
X172239041Y-91463057D01*
X172111252Y-91321133D01*
X171997022Y-91238140D01*
X171956752Y-91208882D01*
X171782288Y-91131206D01*
X171595487Y-91091500D01*
X171404513Y-91091500D01*
X171279979Y-91117970D01*
X171217711Y-91131206D01*
X171043246Y-91208883D01*
X170888747Y-91321133D01*
X170760958Y-91463057D01*
X170665472Y-91628443D01*
X170606458Y-91810070D01*
X170586496Y-91999999D01*
X150338141Y-91999999D01*
X150319634Y-91835748D01*
X150285479Y-91738140D01*
X150265042Y-91679733D01*
X150200555Y-91577102D01*
X150177102Y-91539777D01*
X150177101Y-91539776D01*
X150177100Y-91539774D01*
X150060225Y-91422899D01*
X149920266Y-91334957D01*
X149764254Y-91280366D01*
X149600000Y-91261859D01*
X149435745Y-91280366D01*
X149279733Y-91334957D01*
X149139774Y-91422899D01*
X149022899Y-91539774D01*
X148934957Y-91679733D01*
X148880366Y-91835745D01*
X148861859Y-92000000D01*
X128360713Y-92000000D01*
X128356508Y-91930477D01*
X128298808Y-91615613D01*
X128203575Y-91310001D01*
X128072199Y-91018095D01*
X128061260Y-91000000D01*
X144261859Y-91000000D01*
X144280366Y-91164254D01*
X144334957Y-91320266D01*
X144422899Y-91460225D01*
X144539774Y-91577100D01*
X144539776Y-91577101D01*
X144539777Y-91577102D01*
X144679733Y-91665042D01*
X144835748Y-91719634D01*
X145000000Y-91738141D01*
X145164252Y-91719634D01*
X145320267Y-91665042D01*
X145460223Y-91577102D01*
X145577102Y-91460223D01*
X145665042Y-91320267D01*
X145719634Y-91164252D01*
X145737296Y-91007496D01*
X145764799Y-90942047D01*
X145823322Y-90901854D01*
X145894286Y-90899681D01*
X145929535Y-90914917D01*
X145929733Y-90915042D01*
X146085748Y-90969634D01*
X146250000Y-90988141D01*
X146414252Y-90969634D01*
X146570267Y-90915042D01*
X146710223Y-90827102D01*
X146827102Y-90710223D01*
X146915042Y-90570267D01*
X146939629Y-90500000D01*
X153761859Y-90500000D01*
X153780366Y-90664254D01*
X153834957Y-90820266D01*
X153922899Y-90960225D01*
X154039774Y-91077100D01*
X154179733Y-91165042D01*
X154305020Y-91208882D01*
X154335748Y-91219634D01*
X154500000Y-91238141D01*
X154664252Y-91219634D01*
X154820267Y-91165042D01*
X154960223Y-91077102D01*
X155077102Y-90960223D01*
X155165042Y-90820267D01*
X155219634Y-90664252D01*
X155238141Y-90500000D01*
X155219634Y-90335748D01*
X155195165Y-90265821D01*
X155165042Y-90179733D01*
X155105987Y-90085748D01*
X155077102Y-90039777D01*
X155077101Y-90039776D01*
X155077100Y-90039774D01*
X154960225Y-89922899D01*
X154820266Y-89834957D01*
X154664254Y-89780366D01*
X154554750Y-89768028D01*
X154500000Y-89761859D01*
X154499999Y-89761859D01*
X154335745Y-89780366D01*
X154179733Y-89834957D01*
X154039774Y-89922899D01*
X153922899Y-90039774D01*
X153834957Y-90179733D01*
X153780366Y-90335745D01*
X153761859Y-90500000D01*
X146939629Y-90500000D01*
X146969634Y-90414252D01*
X146988141Y-90250000D01*
X146969634Y-90085748D01*
X146915042Y-89929733D01*
X146827102Y-89789777D01*
X146827101Y-89789776D01*
X146827100Y-89789774D01*
X146710225Y-89672899D01*
X146570266Y-89584957D01*
X146414254Y-89530366D01*
X146250000Y-89511859D01*
X146085745Y-89530366D01*
X145929733Y-89584957D01*
X145789774Y-89672899D01*
X145672899Y-89789774D01*
X145584957Y-89929733D01*
X145530366Y-90085745D01*
X145512704Y-90242500D01*
X145485200Y-90307953D01*
X145426676Y-90348146D01*
X145355713Y-90350317D01*
X145320463Y-90335081D01*
X145320267Y-90334958D01*
X145164254Y-90280366D01*
X145000000Y-90261859D01*
X144835745Y-90280366D01*
X144679733Y-90334957D01*
X144539774Y-90422899D01*
X144422899Y-90539774D01*
X144334957Y-90679733D01*
X144280366Y-90835745D01*
X144261859Y-91000000D01*
X128061260Y-91000000D01*
X127906595Y-90744154D01*
X127843996Y-90664252D01*
X127711531Y-90495173D01*
X127711530Y-90495172D01*
X127709179Y-90492171D01*
X127482829Y-90265821D01*
X127230846Y-90068405D01*
X126956905Y-89902801D01*
X126953436Y-89901240D01*
X126953429Y-89901236D01*
X126668475Y-89772989D01*
X126668469Y-89772986D01*
X126664999Y-89771425D01*
X126661368Y-89770293D01*
X126661364Y-89770292D01*
X126363024Y-89677325D01*
X126363018Y-89677323D01*
X126359387Y-89676192D01*
X126355641Y-89675505D01*
X126355635Y-89675504D01*
X126048265Y-89619177D01*
X126048253Y-89619175D01*
X126044523Y-89618492D01*
X126040729Y-89618262D01*
X126040725Y-89618262D01*
X125728802Y-89599394D01*
X125725000Y-89599164D01*
X125721198Y-89599394D01*
X125409274Y-89618262D01*
X125409268Y-89618262D01*
X125405477Y-89618492D01*
X125401748Y-89619175D01*
X125401734Y-89619177D01*
X125094364Y-89675504D01*
X125094354Y-89675506D01*
X125090613Y-89676192D01*
X125086985Y-89677322D01*
X125086975Y-89677325D01*
X124788635Y-89770292D01*
X124788626Y-89770295D01*
X124785001Y-89771425D01*
X124781536Y-89772984D01*
X124781524Y-89772989D01*
X124496570Y-89901236D01*
X124496556Y-89901243D01*
X124493095Y-89902801D01*
X124489838Y-89904769D01*
X124489834Y-89904772D01*
X124222407Y-90066438D01*
X124222401Y-90066441D01*
X124219154Y-90068405D01*
X124216173Y-90070740D01*
X124216162Y-90070748D01*
X123970173Y-90263468D01*
X123970162Y-90263477D01*
X123967171Y-90265821D01*
X123964476Y-90268515D01*
X123964468Y-90268523D01*
X123743523Y-90489468D01*
X123743515Y-90489476D01*
X123740821Y-90492171D01*
X123738477Y-90495162D01*
X123738468Y-90495173D01*
X123545748Y-90741162D01*
X123545740Y-90741173D01*
X123543405Y-90744154D01*
X123541441Y-90747401D01*
X123541438Y-90747407D01*
X123395909Y-90988141D01*
X123377801Y-91018095D01*
X123376243Y-91021556D01*
X123376236Y-91021570D01*
X123247989Y-91306524D01*
X123247984Y-91306536D01*
X123246425Y-91310001D01*
X123245295Y-91313626D01*
X123245292Y-91313635D01*
X123152325Y-91611975D01*
X123152322Y-91611985D01*
X123151192Y-91615613D01*
X123150506Y-91619354D01*
X123150504Y-91619364D01*
X123094177Y-91926734D01*
X123094175Y-91926748D01*
X123093492Y-91930477D01*
X123093262Y-91934268D01*
X123093262Y-91934274D01*
X123079351Y-92164252D01*
X123074164Y-92250000D01*
X121718477Y-92250000D01*
X121698593Y-91971991D01*
X121668955Y-91835748D01*
X121639349Y-91699648D01*
X121626442Y-91665042D01*
X121541945Y-91438496D01*
X121408369Y-91193871D01*
X121386197Y-91164252D01*
X121241337Y-90970742D01*
X121044257Y-90773662D01*
X120821131Y-90606632D01*
X120754532Y-90570266D01*
X120576504Y-90473055D01*
X120415361Y-90412952D01*
X120315351Y-90375650D01*
X120043013Y-90316407D01*
X119764999Y-90296522D01*
X119486986Y-90316407D01*
X119214648Y-90375650D01*
X119018782Y-90448704D01*
X118953496Y-90473055D01*
X118953494Y-90473055D01*
X118953494Y-90473056D01*
X118708868Y-90606632D01*
X118485742Y-90773662D01*
X118288662Y-90970742D01*
X118121632Y-91193868D01*
X117988056Y-91438494D01*
X117890650Y-91699648D01*
X117831407Y-91971986D01*
X117811522Y-92249999D01*
X115200500Y-92249999D01*
X115200500Y-89000000D01*
X122586496Y-89000000D01*
X122606458Y-89189929D01*
X122665472Y-89371556D01*
X122760958Y-89536942D01*
X122760960Y-89536944D01*
X122888747Y-89678866D01*
X123043248Y-89791118D01*
X123217712Y-89868794D01*
X123404513Y-89908500D01*
X123404515Y-89908500D01*
X123595485Y-89908500D01*
X123595487Y-89908500D01*
X123782288Y-89868794D01*
X123956752Y-89791118D01*
X124111253Y-89678866D01*
X124239040Y-89536944D01*
X124334527Y-89371556D01*
X124393542Y-89189928D01*
X124413504Y-89000000D01*
X124393542Y-88810072D01*
X124334527Y-88628444D01*
X124334527Y-88628443D01*
X124239041Y-88463057D01*
X124222789Y-88445007D01*
X124123116Y-88334309D01*
X124092400Y-88270303D01*
X124101163Y-88199850D01*
X124123115Y-88165691D01*
X124239040Y-88036944D01*
X124334527Y-87871556D01*
X124393542Y-87689928D01*
X124413504Y-87500000D01*
X124393542Y-87310072D01*
X124334527Y-87128444D01*
X124334527Y-87128443D01*
X124239041Y-86963057D01*
X124222789Y-86945007D01*
X124123116Y-86834309D01*
X124092400Y-86770303D01*
X124101163Y-86699850D01*
X124123115Y-86665691D01*
X124239040Y-86536944D01*
X124334527Y-86371556D01*
X124393542Y-86189928D01*
X124413504Y-86000000D01*
X154761859Y-86000000D01*
X154780366Y-86164254D01*
X154834957Y-86320266D01*
X154922899Y-86460225D01*
X155039774Y-86577100D01*
X155179733Y-86665042D01*
X155279208Y-86699850D01*
X155335748Y-86719634D01*
X155500000Y-86738141D01*
X155664252Y-86719634D01*
X155820267Y-86665042D01*
X155960223Y-86577102D01*
X156077102Y-86460223D01*
X156165042Y-86320267D01*
X156219634Y-86164252D01*
X156238141Y-86000000D01*
X156219634Y-85835748D01*
X156165042Y-85679733D01*
X156077102Y-85539777D01*
X156077101Y-85539776D01*
X156077100Y-85539774D01*
X156037326Y-85500000D01*
X169586496Y-85500000D01*
X169606458Y-85689929D01*
X169665472Y-85871556D01*
X169760958Y-86036942D01*
X169875590Y-86164254D01*
X169888747Y-86178866D01*
X170043248Y-86291118D01*
X170217712Y-86368794D01*
X170404513Y-86408500D01*
X170404515Y-86408500D01*
X170595485Y-86408500D01*
X170595487Y-86408500D01*
X170782288Y-86368794D01*
X170956752Y-86291118D01*
X171111253Y-86178866D01*
X171239040Y-86036944D01*
X171334527Y-85871556D01*
X171393542Y-85689928D01*
X171413504Y-85500000D01*
X171393542Y-85310072D01*
X171334527Y-85128444D01*
X171334527Y-85128443D01*
X171239041Y-84963057D01*
X171111252Y-84821133D01*
X170956753Y-84708883D01*
X170956752Y-84708882D01*
X170782288Y-84631206D01*
X170595487Y-84591500D01*
X170404513Y-84591500D01*
X170279978Y-84617970D01*
X170217711Y-84631206D01*
X170043246Y-84708883D01*
X169888747Y-84821133D01*
X169760958Y-84963057D01*
X169665472Y-85128443D01*
X169606458Y-85310070D01*
X169586496Y-85500000D01*
X156037326Y-85500000D01*
X155960225Y-85422899D01*
X155820266Y-85334957D01*
X155664254Y-85280366D01*
X155500000Y-85261859D01*
X155335745Y-85280366D01*
X155179733Y-85334957D01*
X155039774Y-85422899D01*
X154922899Y-85539774D01*
X154834957Y-85679733D01*
X154780366Y-85835745D01*
X154761859Y-86000000D01*
X124413504Y-86000000D01*
X124393542Y-85810072D01*
X124334527Y-85628444D01*
X124334527Y-85628443D01*
X124239041Y-85463057D01*
X124222789Y-85445007D01*
X124123116Y-85334309D01*
X124092400Y-85270303D01*
X124101163Y-85199850D01*
X124123115Y-85165691D01*
X124239040Y-85036944D01*
X124334527Y-84871556D01*
X124393542Y-84689928D01*
X124413504Y-84500000D01*
X124393542Y-84310072D01*
X124350337Y-84177102D01*
X124334527Y-84128443D01*
X124239041Y-83963057D01*
X124111252Y-83821133D01*
X123956753Y-83708883D01*
X123956752Y-83708882D01*
X123782288Y-83631206D01*
X123595487Y-83591500D01*
X123404513Y-83591500D01*
X123279979Y-83617970D01*
X123217711Y-83631206D01*
X123043246Y-83708883D01*
X122888747Y-83821133D01*
X122760958Y-83963057D01*
X122665472Y-84128443D01*
X122606458Y-84310070D01*
X122586496Y-84500000D01*
X122606458Y-84689929D01*
X122665472Y-84871556D01*
X122760960Y-85036945D01*
X122876882Y-85165690D01*
X122907600Y-85229697D01*
X122898835Y-85300151D01*
X122876882Y-85334310D01*
X122760960Y-85463054D01*
X122665472Y-85628443D01*
X122606458Y-85810070D01*
X122586496Y-85999999D01*
X122606458Y-86189929D01*
X122665472Y-86371556D01*
X122760960Y-86536945D01*
X122876882Y-86665690D01*
X122907600Y-86729697D01*
X122898835Y-86800151D01*
X122876882Y-86834310D01*
X122760960Y-86963054D01*
X122665472Y-87128443D01*
X122606458Y-87310070D01*
X122586496Y-87500000D01*
X122606458Y-87689929D01*
X122665472Y-87871556D01*
X122760958Y-88036942D01*
X122760960Y-88036944D01*
X122876882Y-88165689D01*
X122907599Y-88229696D01*
X122898836Y-88300149D01*
X122876883Y-88334309D01*
X122760958Y-88463057D01*
X122665472Y-88628443D01*
X122606458Y-88810070D01*
X122586496Y-89000000D01*
X115200500Y-89000000D01*
X115200500Y-82750000D01*
X131586496Y-82750000D01*
X131606458Y-82939929D01*
X131665472Y-83121556D01*
X131760958Y-83286942D01*
X131760960Y-83286944D01*
X131888747Y-83428866D01*
X132043248Y-83541118D01*
X132217712Y-83618794D01*
X132404513Y-83658500D01*
X132404515Y-83658500D01*
X132595485Y-83658500D01*
X132595487Y-83658500D01*
X132782288Y-83618794D01*
X132824500Y-83600000D01*
X140261859Y-83600000D01*
X140280366Y-83764254D01*
X140334957Y-83920266D01*
X140422899Y-84060225D01*
X140539774Y-84177100D01*
X140539776Y-84177101D01*
X140539777Y-84177102D01*
X140679733Y-84265042D01*
X140835748Y-84319634D01*
X141000000Y-84338141D01*
X141164252Y-84319634D01*
X141320267Y-84265042D01*
X141460223Y-84177102D01*
X141577102Y-84060223D01*
X141665042Y-83920267D01*
X141719634Y-83764252D01*
X141738141Y-83600000D01*
X141719634Y-83435748D01*
X141665042Y-83279733D01*
X141577102Y-83139777D01*
X141577101Y-83139776D01*
X141577100Y-83139774D01*
X141460225Y-83022899D01*
X141320266Y-82934957D01*
X141164254Y-82880366D01*
X141000000Y-82861859D01*
X140835745Y-82880366D01*
X140679733Y-82934957D01*
X140539774Y-83022899D01*
X140422899Y-83139774D01*
X140334957Y-83279733D01*
X140280366Y-83435745D01*
X140261859Y-83600000D01*
X132824500Y-83600000D01*
X132956752Y-83541118D01*
X133111253Y-83428866D01*
X133239040Y-83286944D01*
X133334527Y-83121556D01*
X133393542Y-82939928D01*
X133413504Y-82750000D01*
X133393542Y-82560072D01*
X133334527Y-82378444D01*
X133334527Y-82378443D01*
X133239041Y-82213057D01*
X133111252Y-82071133D01*
X132956753Y-81958883D01*
X132956752Y-81958882D01*
X132782288Y-81881206D01*
X132595487Y-81841500D01*
X132404513Y-81841500D01*
X132279978Y-81867970D01*
X132217711Y-81881206D01*
X132043246Y-81958883D01*
X131888747Y-82071133D01*
X131760958Y-82213057D01*
X131665472Y-82378443D01*
X131606458Y-82560070D01*
X131586496Y-82750000D01*
X115200500Y-82750000D01*
X115200500Y-81399999D01*
X122686496Y-81399999D01*
X122706458Y-81589929D01*
X122765472Y-81771556D01*
X122860958Y-81936942D01*
X122860960Y-81936944D01*
X122988747Y-82078866D01*
X123143248Y-82191118D01*
X123317712Y-82268794D01*
X123504513Y-82308500D01*
X123504515Y-82308500D01*
X123695485Y-82308500D01*
X123695487Y-82308500D01*
X123882288Y-82268794D01*
X124056752Y-82191118D01*
X124211253Y-82078866D01*
X124282264Y-82000000D01*
X128511859Y-82000000D01*
X128530366Y-82164254D01*
X128584957Y-82320266D01*
X128672899Y-82460225D01*
X128789774Y-82577100D01*
X128789776Y-82577101D01*
X128789777Y-82577102D01*
X128929733Y-82665042D01*
X129085748Y-82719634D01*
X129250000Y-82738141D01*
X129414252Y-82719634D01*
X129570267Y-82665042D01*
X129710223Y-82577102D01*
X129827102Y-82460223D01*
X129915042Y-82320267D01*
X129969634Y-82164252D01*
X129988141Y-82000000D01*
X129969634Y-81835748D01*
X129915042Y-81679733D01*
X129827102Y-81539777D01*
X129827101Y-81539776D01*
X129827100Y-81539774D01*
X129710225Y-81422899D01*
X129570266Y-81334957D01*
X129414254Y-81280366D01*
X129304750Y-81268028D01*
X129250000Y-81261859D01*
X129249999Y-81261859D01*
X129085745Y-81280366D01*
X128929733Y-81334957D01*
X128789774Y-81422899D01*
X128672899Y-81539774D01*
X128584957Y-81679733D01*
X128530366Y-81835745D01*
X128511859Y-82000000D01*
X124282264Y-82000000D01*
X124339040Y-81936944D01*
X124434527Y-81771556D01*
X124493542Y-81589928D01*
X124513504Y-81400000D01*
X124493542Y-81210072D01*
X124434527Y-81028444D01*
X124434527Y-81028443D01*
X124339041Y-80863057D01*
X124211252Y-80721133D01*
X124056753Y-80608883D01*
X124056752Y-80608882D01*
X123882288Y-80531206D01*
X123735471Y-80499999D01*
X137336496Y-80499999D01*
X137356458Y-80689929D01*
X137415472Y-80871556D01*
X137510958Y-81036942D01*
X137510960Y-81036944D01*
X137638747Y-81178866D01*
X137793248Y-81291118D01*
X137967712Y-81368794D01*
X138154513Y-81408500D01*
X138154515Y-81408500D01*
X138345485Y-81408500D01*
X138345487Y-81408500D01*
X138532288Y-81368794D01*
X138706752Y-81291118D01*
X138861253Y-81178866D01*
X138989040Y-81036944D01*
X139084527Y-80871556D01*
X139143542Y-80689928D01*
X139163504Y-80500000D01*
X139143542Y-80310072D01*
X139084527Y-80128444D01*
X139084527Y-80128443D01*
X138989041Y-79963057D01*
X138861252Y-79821133D01*
X138706753Y-79708883D01*
X138706752Y-79708882D01*
X138532288Y-79631206D01*
X138345487Y-79591500D01*
X138154513Y-79591500D01*
X138029979Y-79617970D01*
X137967711Y-79631206D01*
X137793246Y-79708883D01*
X137638747Y-79821133D01*
X137510958Y-79963057D01*
X137415472Y-80128443D01*
X137356458Y-80310070D01*
X137336496Y-80499999D01*
X123735471Y-80499999D01*
X123695487Y-80491500D01*
X123504513Y-80491500D01*
X123379979Y-80517970D01*
X123317711Y-80531206D01*
X123143246Y-80608883D01*
X122988747Y-80721133D01*
X122860958Y-80863057D01*
X122765472Y-81028443D01*
X122706458Y-81210070D01*
X122686496Y-81399999D01*
X115200500Y-81399999D01*
X115200500Y-77749999D01*
X117811522Y-77749999D01*
X117831407Y-78028013D01*
X117890650Y-78300351D01*
X117890653Y-78300358D01*
X117988055Y-78561504D01*
X118056234Y-78686364D01*
X118121632Y-78806131D01*
X118288662Y-79029257D01*
X118485742Y-79226337D01*
X118592828Y-79306500D01*
X118708871Y-79393369D01*
X118953496Y-79526945D01*
X119214642Y-79624347D01*
X119214643Y-79624347D01*
X119214648Y-79624349D01*
X119486986Y-79683592D01*
X119486991Y-79683593D01*
X119765000Y-79703477D01*
X120043009Y-79683593D01*
X120101263Y-79670920D01*
X120315351Y-79624349D01*
X120315354Y-79624347D01*
X120315358Y-79624347D01*
X120576504Y-79526945D01*
X120821129Y-79393369D01*
X121044255Y-79226339D01*
X121241339Y-79029255D01*
X121408369Y-78806129D01*
X121541945Y-78561504D01*
X121639347Y-78300358D01*
X121661639Y-78197886D01*
X121698592Y-78028013D01*
X121698591Y-78028013D01*
X121698593Y-78028009D01*
X121718477Y-77750000D01*
X123074164Y-77750000D01*
X123093492Y-78069523D01*
X123094175Y-78073253D01*
X123094177Y-78073265D01*
X123119635Y-78212184D01*
X123151192Y-78384387D01*
X123152323Y-78388018D01*
X123152325Y-78388024D01*
X123231299Y-78641458D01*
X123246425Y-78689999D01*
X123247986Y-78693469D01*
X123247989Y-78693475D01*
X123376236Y-78978429D01*
X123376240Y-78978436D01*
X123377801Y-78981905D01*
X123543405Y-79255846D01*
X123545745Y-79258833D01*
X123545748Y-79258837D01*
X123711774Y-79470754D01*
X123740821Y-79507829D01*
X123967171Y-79734179D01*
X124219154Y-79931595D01*
X124493095Y-80097199D01*
X124785001Y-80228575D01*
X125090613Y-80323808D01*
X125405477Y-80381508D01*
X125725000Y-80400836D01*
X126044523Y-80381508D01*
X126359387Y-80323808D01*
X126664999Y-80228575D01*
X126956905Y-80097199D01*
X127230846Y-79931595D01*
X127482829Y-79734179D01*
X127709179Y-79507829D01*
X127866910Y-79306500D01*
X155261859Y-79306500D01*
X155280366Y-79470754D01*
X155334957Y-79626766D01*
X155422899Y-79766725D01*
X155539774Y-79883600D01*
X155539776Y-79883601D01*
X155539777Y-79883602D01*
X155679733Y-79971542D01*
X155835748Y-80026134D01*
X156000000Y-80044641D01*
X156164252Y-80026134D01*
X156320267Y-79971542D01*
X156460223Y-79883602D01*
X156577102Y-79766723D01*
X156665042Y-79626767D01*
X156719634Y-79470752D01*
X156738141Y-79306500D01*
X156719634Y-79142248D01*
X156665042Y-78986233D01*
X156577102Y-78846277D01*
X156577101Y-78846276D01*
X156577100Y-78846274D01*
X156460225Y-78729399D01*
X156320266Y-78641457D01*
X156164254Y-78586866D01*
X156054750Y-78574528D01*
X156000000Y-78568359D01*
X155999999Y-78568359D01*
X155835745Y-78586866D01*
X155679733Y-78641457D01*
X155539774Y-78729399D01*
X155422899Y-78846274D01*
X155334957Y-78986233D01*
X155280366Y-79142245D01*
X155261859Y-79306500D01*
X127866910Y-79306500D01*
X127906595Y-79255846D01*
X128072199Y-78981905D01*
X128203575Y-78689999D01*
X128298808Y-78384387D01*
X128356508Y-78069523D01*
X128375836Y-77750000D01*
X128360554Y-77497357D01*
X163141500Y-77497357D01*
X163141501Y-77500544D01*
X163141825Y-77503721D01*
X163141826Y-77503729D01*
X163146919Y-77553582D01*
X163152113Y-77604426D01*
X163207885Y-77772738D01*
X163270021Y-77873476D01*
X163300972Y-77923655D01*
X163426344Y-78049027D01*
X163426346Y-78049028D01*
X163426348Y-78049030D01*
X163577262Y-78142115D01*
X163745574Y-78197887D01*
X163821637Y-78205658D01*
X163846253Y-78208173D01*
X163846255Y-78208173D01*
X163849455Y-78208500D01*
X165150544Y-78208499D01*
X165254426Y-78197887D01*
X165422738Y-78142115D01*
X165573652Y-78049030D01*
X165699030Y-77923652D01*
X165789059Y-77777691D01*
X165841842Y-77730215D01*
X165911917Y-77718812D01*
X165977033Y-77747104D01*
X165987264Y-77756656D01*
X166099223Y-77873472D01*
X166099227Y-77873474D01*
X166099228Y-77873476D01*
X166285153Y-78010985D01*
X166491643Y-78115095D01*
X166712757Y-78182811D01*
X166942135Y-78212184D01*
X167173178Y-78202369D01*
X167399238Y-78153649D01*
X167613813Y-78067426D01*
X167810730Y-77946179D01*
X167984324Y-77793398D01*
X168129600Y-77613476D01*
X168134656Y-77604426D01*
X168141447Y-77592270D01*
X168192130Y-77542554D01*
X168261647Y-77528132D01*
X168327925Y-77553582D01*
X168355838Y-77583160D01*
X168439217Y-77706523D01*
X168599228Y-77873476D01*
X168785153Y-78010985D01*
X168991643Y-78115095D01*
X169212757Y-78182811D01*
X169442135Y-78212184D01*
X169673178Y-78202369D01*
X169899238Y-78153649D01*
X170113813Y-78067426D01*
X170310730Y-77946179D01*
X170484324Y-77793398D01*
X170629600Y-77613476D01*
X170742380Y-77411591D01*
X170819419Y-77193550D01*
X170858500Y-76965625D01*
X170858500Y-76542287D01*
X170843801Y-76369582D01*
X170785530Y-76145793D01*
X170714867Y-75989468D01*
X170690278Y-75935070D01*
X170577711Y-75768523D01*
X170560783Y-75743477D01*
X170400772Y-75576524D01*
X170214847Y-75439015D01*
X170008357Y-75334905D01*
X170008356Y-75334904D01*
X170008355Y-75334904D01*
X169787240Y-75267188D01*
X169557864Y-75237815D01*
X169326824Y-75247630D01*
X169100762Y-75296350D01*
X168886189Y-75382573D01*
X168886187Y-75382574D01*
X168794521Y-75439015D01*
X168689268Y-75503822D01*
X168515678Y-75656600D01*
X168515676Y-75656602D01*
X168463571Y-75721133D01*
X168370397Y-75836527D01*
X168358550Y-75857734D01*
X168307864Y-75907448D01*
X168238348Y-75921867D01*
X168172070Y-75896414D01*
X168144160Y-75866837D01*
X168060786Y-75743480D01*
X167900772Y-75576524D01*
X167832924Y-75526344D01*
X167714847Y-75439015D01*
X167508357Y-75334905D01*
X167508356Y-75334904D01*
X167508355Y-75334904D01*
X167287240Y-75267188D01*
X167057864Y-75237815D01*
X166826824Y-75247630D01*
X166600762Y-75296350D01*
X166386189Y-75382573D01*
X166386187Y-75382574D01*
X166294521Y-75439015D01*
X166189268Y-75503822D01*
X166015673Y-75656604D01*
X165993533Y-75684024D01*
X165935176Y-75724458D01*
X165864222Y-75726923D01*
X165803199Y-75690635D01*
X165788261Y-75671014D01*
X165779372Y-75656602D01*
X165699030Y-75526348D01*
X165699028Y-75526346D01*
X165699027Y-75526344D01*
X165573655Y-75400972D01*
X165543827Y-75382574D01*
X165422738Y-75307885D01*
X165254426Y-75252113D01*
X165254423Y-75252112D01*
X165254421Y-75252112D01*
X165153746Y-75241826D01*
X165153725Y-75241824D01*
X165150545Y-75241500D01*
X165147339Y-75241500D01*
X163852661Y-75241500D01*
X163852641Y-75241500D01*
X163849456Y-75241501D01*
X163846279Y-75241825D01*
X163846270Y-75241826D01*
X163745573Y-75252113D01*
X163577262Y-75307885D01*
X163426344Y-75400972D01*
X163300972Y-75526344D01*
X163270021Y-75576524D01*
X163207885Y-75677262D01*
X163177645Y-75768523D01*
X163152112Y-75845578D01*
X163141826Y-75946253D01*
X163141824Y-75946275D01*
X163141500Y-75949455D01*
X163141500Y-75952659D01*
X163141500Y-75952660D01*
X163141500Y-77497338D01*
X163141500Y-77497357D01*
X128360554Y-77497357D01*
X128356508Y-77430477D01*
X128298808Y-77115613D01*
X128203575Y-76810001D01*
X128072199Y-76518095D01*
X128000807Y-76399999D01*
X129086496Y-76399999D01*
X129106458Y-76589929D01*
X129165472Y-76771556D01*
X129260958Y-76936942D01*
X129262357Y-76938496D01*
X129388747Y-77078866D01*
X129543248Y-77191118D01*
X129717712Y-77268794D01*
X129904513Y-77308500D01*
X129904515Y-77308500D01*
X130095485Y-77308500D01*
X130095487Y-77308500D01*
X130282288Y-77268794D01*
X130456752Y-77191118D01*
X130611253Y-77078866D01*
X130739040Y-76936944D01*
X130834527Y-76771556D01*
X130893542Y-76589928D01*
X130913504Y-76400000D01*
X130897739Y-76250000D01*
X151511859Y-76250000D01*
X151530366Y-76414254D01*
X151584957Y-76570266D01*
X151672899Y-76710225D01*
X151789774Y-76827100D01*
X151789776Y-76827101D01*
X151789777Y-76827102D01*
X151929733Y-76915042D01*
X152085748Y-76969634D01*
X152250000Y-76988141D01*
X152414252Y-76969634D01*
X152570267Y-76915042D01*
X152710223Y-76827102D01*
X152827102Y-76710223D01*
X152915042Y-76570267D01*
X152969634Y-76414252D01*
X152988141Y-76250000D01*
X152969634Y-76085748D01*
X152915042Y-75929733D01*
X152827102Y-75789777D01*
X152827101Y-75789776D01*
X152827100Y-75789774D01*
X152710225Y-75672899D01*
X152570266Y-75584957D01*
X152414254Y-75530366D01*
X152250000Y-75511859D01*
X152085745Y-75530366D01*
X151929733Y-75584957D01*
X151789774Y-75672899D01*
X151672899Y-75789774D01*
X151584957Y-75929733D01*
X151530366Y-76085745D01*
X151511859Y-76250000D01*
X130897739Y-76250000D01*
X130893542Y-76210072D01*
X130834527Y-76028444D01*
X130834527Y-76028443D01*
X130739041Y-75863057D01*
X130611252Y-75721133D01*
X130456753Y-75608883D01*
X130456752Y-75608882D01*
X130282288Y-75531206D01*
X130095487Y-75491500D01*
X129904513Y-75491500D01*
X129808732Y-75511859D01*
X129717711Y-75531206D01*
X129543246Y-75608883D01*
X129388747Y-75721133D01*
X129260958Y-75863057D01*
X129165472Y-76028443D01*
X129106458Y-76210070D01*
X129086496Y-76399999D01*
X128000807Y-76399999D01*
X127906595Y-76244154D01*
X127904251Y-76241162D01*
X127711531Y-75995173D01*
X127711530Y-75995172D01*
X127709179Y-75992171D01*
X127482829Y-75765821D01*
X127454310Y-75743478D01*
X127233837Y-75570748D01*
X127233833Y-75570745D01*
X127230846Y-75568405D01*
X126956905Y-75402801D01*
X126953436Y-75401240D01*
X126953429Y-75401236D01*
X126668475Y-75272989D01*
X126668469Y-75272986D01*
X126664999Y-75271425D01*
X126661368Y-75270293D01*
X126661364Y-75270292D01*
X126363024Y-75177325D01*
X126363018Y-75177323D01*
X126359387Y-75176192D01*
X126355641Y-75175505D01*
X126355635Y-75175504D01*
X126048265Y-75119177D01*
X126048253Y-75119175D01*
X126044523Y-75118492D01*
X126040729Y-75118262D01*
X126040725Y-75118262D01*
X125728802Y-75099394D01*
X125725000Y-75099164D01*
X125721198Y-75099394D01*
X125409274Y-75118262D01*
X125409268Y-75118262D01*
X125405477Y-75118492D01*
X125401748Y-75119175D01*
X125401734Y-75119177D01*
X125094364Y-75175504D01*
X125094354Y-75175506D01*
X125090613Y-75176192D01*
X125086985Y-75177322D01*
X125086975Y-75177325D01*
X124788635Y-75270292D01*
X124788626Y-75270295D01*
X124785001Y-75271425D01*
X124781536Y-75272984D01*
X124781524Y-75272989D01*
X124496570Y-75401236D01*
X124496556Y-75401243D01*
X124493095Y-75402801D01*
X124489838Y-75404769D01*
X124489834Y-75404772D01*
X124222407Y-75566438D01*
X124222401Y-75566441D01*
X124219154Y-75568405D01*
X124216173Y-75570740D01*
X124216162Y-75570748D01*
X123970173Y-75763468D01*
X123970162Y-75763477D01*
X123967171Y-75765821D01*
X123964476Y-75768515D01*
X123964468Y-75768523D01*
X123743523Y-75989468D01*
X123743515Y-75989476D01*
X123740821Y-75992171D01*
X123738477Y-75995162D01*
X123738468Y-75995173D01*
X123545748Y-76241162D01*
X123545740Y-76241173D01*
X123543405Y-76244154D01*
X123541441Y-76247401D01*
X123541438Y-76247407D01*
X123440575Y-76414254D01*
X123377801Y-76518095D01*
X123376243Y-76521556D01*
X123376236Y-76521570D01*
X123247989Y-76806524D01*
X123247984Y-76806536D01*
X123246425Y-76810001D01*
X123245295Y-76813626D01*
X123245292Y-76813635D01*
X123152325Y-77111975D01*
X123152322Y-77111985D01*
X123151192Y-77115613D01*
X123150506Y-77119354D01*
X123150504Y-77119364D01*
X123094177Y-77426734D01*
X123094175Y-77426748D01*
X123093492Y-77430477D01*
X123093262Y-77434268D01*
X123093262Y-77434274D01*
X123075361Y-77730215D01*
X123074164Y-77750000D01*
X121718477Y-77750000D01*
X121698593Y-77471991D01*
X121663028Y-77308500D01*
X121639349Y-77199648D01*
X121637074Y-77193548D01*
X121541945Y-76938496D01*
X121408369Y-76693871D01*
X121330559Y-76589928D01*
X121241337Y-76470742D01*
X121044257Y-76273662D01*
X120821131Y-76106632D01*
X120696190Y-76038409D01*
X120576504Y-75973055D01*
X120371021Y-75896414D01*
X120315351Y-75875650D01*
X120043013Y-75816407D01*
X119765000Y-75796522D01*
X119486986Y-75816407D01*
X119214648Y-75875650D01*
X119069647Y-75929733D01*
X118953496Y-75973055D01*
X118953494Y-75973055D01*
X118953494Y-75973056D01*
X118708868Y-76106632D01*
X118485742Y-76273662D01*
X118288662Y-76470742D01*
X118121632Y-76693868D01*
X117988902Y-76936944D01*
X117988055Y-76938496D01*
X117963704Y-77003782D01*
X117890650Y-77199648D01*
X117831407Y-77471986D01*
X117811522Y-77749999D01*
X115200500Y-77749999D01*
X115200500Y-74599999D01*
X149261859Y-74599999D01*
X149280366Y-74764254D01*
X149334957Y-74920266D01*
X149422899Y-75060225D01*
X149539774Y-75177100D01*
X149539776Y-75177101D01*
X149539777Y-75177102D01*
X149679733Y-75265042D01*
X149835748Y-75319634D01*
X150000000Y-75338141D01*
X150164252Y-75319634D01*
X150320267Y-75265042D01*
X150460223Y-75177102D01*
X150577102Y-75060223D01*
X150665042Y-74920267D01*
X150719634Y-74764252D01*
X150738141Y-74600000D01*
X150719634Y-74435748D01*
X150665042Y-74279733D01*
X150577102Y-74139777D01*
X150577101Y-74139776D01*
X150577100Y-74139774D01*
X150460225Y-74022899D01*
X150320266Y-73934957D01*
X150164254Y-73880366D01*
X150000000Y-73861859D01*
X149835745Y-73880366D01*
X149679733Y-73934957D01*
X149539774Y-74022899D01*
X149422899Y-74139774D01*
X149334957Y-74279733D01*
X149280366Y-74435745D01*
X149261859Y-74599999D01*
X115200500Y-74599999D01*
X115200500Y-73600000D01*
X129086496Y-73600000D01*
X129106458Y-73789929D01*
X129165472Y-73971556D01*
X129260958Y-74136942D01*
X129260960Y-74136944D01*
X129388747Y-74278866D01*
X129543248Y-74391118D01*
X129717712Y-74468794D01*
X129904513Y-74508500D01*
X129904515Y-74508500D01*
X130095485Y-74508500D01*
X130095487Y-74508500D01*
X130282288Y-74468794D01*
X130456752Y-74391118D01*
X130611253Y-74278866D01*
X130739040Y-74136944D01*
X130834527Y-73971556D01*
X130893542Y-73789928D01*
X130913504Y-73600000D01*
X130893542Y-73410072D01*
X130834527Y-73228444D01*
X130834527Y-73228443D01*
X130739041Y-73063057D01*
X130611252Y-72921133D01*
X130456753Y-72808883D01*
X130456752Y-72808882D01*
X130282288Y-72731206D01*
X130095487Y-72691500D01*
X129904513Y-72691500D01*
X129779978Y-72717970D01*
X129717711Y-72731206D01*
X129543246Y-72808883D01*
X129388747Y-72921133D01*
X129260958Y-73063057D01*
X129165472Y-73228443D01*
X129106458Y-73410070D01*
X129086496Y-73600000D01*
X115200500Y-73600000D01*
X115200500Y-72250000D01*
X141586496Y-72250000D01*
X141606458Y-72439929D01*
X141665472Y-72621556D01*
X141760958Y-72786942D01*
X141780713Y-72808882D01*
X141888747Y-72928866D01*
X142043248Y-73041118D01*
X142217712Y-73118794D01*
X142404513Y-73158500D01*
X142404515Y-73158500D01*
X142595485Y-73158500D01*
X142595487Y-73158500D01*
X142782288Y-73118794D01*
X142956752Y-73041118D01*
X143111253Y-72928866D01*
X143239040Y-72786944D01*
X143260370Y-72750000D01*
X144086496Y-72750000D01*
X144092685Y-72808882D01*
X144106458Y-72939929D01*
X144165472Y-73121556D01*
X144260958Y-73286942D01*
X144260960Y-73286944D01*
X144388747Y-73428866D01*
X144543248Y-73541118D01*
X144717712Y-73618794D01*
X144904513Y-73658500D01*
X144904515Y-73658500D01*
X145095485Y-73658500D01*
X145095487Y-73658500D01*
X145282288Y-73618794D01*
X145456752Y-73541118D01*
X145611253Y-73428866D01*
X145739040Y-73286944D01*
X145789237Y-73200000D01*
X151461859Y-73200000D01*
X151480366Y-73364254D01*
X151534957Y-73520266D01*
X151622899Y-73660225D01*
X151739774Y-73777100D01*
X151739776Y-73777101D01*
X151739777Y-73777102D01*
X151879733Y-73865042D01*
X152035748Y-73919634D01*
X152200000Y-73938141D01*
X152364252Y-73919634D01*
X152520267Y-73865042D01*
X152660223Y-73777102D01*
X152777102Y-73660223D01*
X152865042Y-73520267D01*
X152919634Y-73364252D01*
X152938141Y-73200000D01*
X152919634Y-73035748D01*
X152886105Y-72939929D01*
X152865042Y-72879733D01*
X152806738Y-72786942D01*
X152777102Y-72739777D01*
X152777101Y-72739776D01*
X152777100Y-72739774D01*
X152660225Y-72622899D01*
X152520266Y-72534957D01*
X152364254Y-72480366D01*
X152200000Y-72461859D01*
X152035745Y-72480366D01*
X151879733Y-72534957D01*
X151739774Y-72622899D01*
X151622899Y-72739774D01*
X151534957Y-72879733D01*
X151480366Y-73035745D01*
X151461859Y-73200000D01*
X145789237Y-73200000D01*
X145834527Y-73121556D01*
X145893542Y-72939928D01*
X145913504Y-72750000D01*
X145893542Y-72560072D01*
X145834527Y-72378444D01*
X145834527Y-72378443D01*
X145739041Y-72213057D01*
X145659753Y-72124999D01*
X146211496Y-72124999D01*
X146231458Y-72314929D01*
X146290472Y-72496556D01*
X146385958Y-72661942D01*
X146385960Y-72661944D01*
X146513747Y-72803866D01*
X146668248Y-72916118D01*
X146842712Y-72993794D01*
X147029513Y-73033500D01*
X147029515Y-73033500D01*
X147220485Y-73033500D01*
X147220487Y-73033500D01*
X147407288Y-72993794D01*
X147581752Y-72916118D01*
X147736253Y-72803866D01*
X147864040Y-72661944D01*
X147959527Y-72496556D01*
X148018542Y-72314928D01*
X148038504Y-72125000D01*
X148018542Y-71935072D01*
X147959527Y-71753444D01*
X147959527Y-71753443D01*
X147864041Y-71588057D01*
X147736252Y-71446133D01*
X147581753Y-71333883D01*
X147581752Y-71333882D01*
X147407288Y-71256206D01*
X147220487Y-71216500D01*
X147029513Y-71216500D01*
X146904979Y-71242970D01*
X146842711Y-71256206D01*
X146668246Y-71333883D01*
X146513747Y-71446133D01*
X146385958Y-71588057D01*
X146290472Y-71753443D01*
X146231458Y-71935070D01*
X146211496Y-72124999D01*
X145659753Y-72124999D01*
X145611252Y-72071133D01*
X145456753Y-71958883D01*
X145456752Y-71958882D01*
X145282288Y-71881206D01*
X145095487Y-71841500D01*
X144904513Y-71841500D01*
X144779978Y-71867970D01*
X144717711Y-71881206D01*
X144543246Y-71958883D01*
X144388747Y-72071133D01*
X144260958Y-72213057D01*
X144165472Y-72378443D01*
X144106458Y-72560070D01*
X144088471Y-72731206D01*
X144086496Y-72750000D01*
X143260370Y-72750000D01*
X143334527Y-72621556D01*
X143393542Y-72439928D01*
X143413504Y-72250000D01*
X143393542Y-72060072D01*
X143352926Y-71935070D01*
X143334527Y-71878443D01*
X143239041Y-71713057D01*
X143175146Y-71642094D01*
X143111253Y-71571134D01*
X142956752Y-71458882D01*
X142782288Y-71381206D01*
X142595487Y-71341500D01*
X142404513Y-71341500D01*
X142279978Y-71367970D01*
X142217711Y-71381206D01*
X142043246Y-71458883D01*
X141888747Y-71571133D01*
X141760958Y-71713057D01*
X141665472Y-71878443D01*
X141606458Y-72060070D01*
X141586496Y-72250000D01*
X115200500Y-72250000D01*
X115200500Y-70375000D01*
X126011859Y-70375000D01*
X126030366Y-70539254D01*
X126084957Y-70695266D01*
X126172899Y-70835225D01*
X126289774Y-70952100D01*
X126289776Y-70952101D01*
X126289777Y-70952102D01*
X126429733Y-71040042D01*
X126585748Y-71094634D01*
X126750000Y-71113141D01*
X126914252Y-71094634D01*
X127070267Y-71040042D01*
X127210223Y-70952102D01*
X127327102Y-70835223D01*
X127415042Y-70695267D01*
X127469634Y-70539252D01*
X127488141Y-70375000D01*
X127469634Y-70210748D01*
X127437751Y-70119633D01*
X127415042Y-70054733D01*
X127336667Y-69930000D01*
X140906496Y-69930000D01*
X140926458Y-70119929D01*
X140985472Y-70301556D01*
X141080958Y-70466942D01*
X141080960Y-70466944D01*
X141208747Y-70608866D01*
X141363248Y-70721118D01*
X141537712Y-70798794D01*
X141724513Y-70838500D01*
X141724515Y-70838500D01*
X141915485Y-70838500D01*
X141915487Y-70838500D01*
X142102288Y-70798794D01*
X142276752Y-70721118D01*
X142431253Y-70608866D01*
X142559040Y-70466944D01*
X142654527Y-70301556D01*
X142713542Y-70119928D01*
X142726147Y-69999999D01*
X146336496Y-69999999D01*
X146356458Y-70189929D01*
X146415472Y-70371556D01*
X146510958Y-70536942D01*
X146510960Y-70536944D01*
X146638747Y-70678866D01*
X146793248Y-70791118D01*
X146967712Y-70868794D01*
X147154513Y-70908500D01*
X147154515Y-70908500D01*
X147345485Y-70908500D01*
X147345487Y-70908500D01*
X147532288Y-70868794D01*
X147706752Y-70791118D01*
X147861253Y-70678866D01*
X147989040Y-70536944D01*
X148084527Y-70371556D01*
X148143542Y-70189928D01*
X148163504Y-70000000D01*
X148143542Y-69810072D01*
X148093275Y-69655366D01*
X148084527Y-69628443D01*
X147989041Y-69463057D01*
X147932264Y-69400000D01*
X166461859Y-69400000D01*
X166480366Y-69564254D01*
X166534957Y-69720266D01*
X166622899Y-69860225D01*
X166739774Y-69977100D01*
X166739776Y-69977101D01*
X166739777Y-69977102D01*
X166879733Y-70065042D01*
X167035748Y-70119634D01*
X167200000Y-70138141D01*
X167364252Y-70119634D01*
X167520267Y-70065042D01*
X167660223Y-69977102D01*
X167777102Y-69860223D01*
X167865042Y-69720267D01*
X167919634Y-69564252D01*
X167938141Y-69400000D01*
X167919634Y-69235748D01*
X167865042Y-69079733D01*
X167777102Y-68939777D01*
X167777101Y-68939776D01*
X167777100Y-68939774D01*
X167660225Y-68822899D01*
X167520266Y-68734957D01*
X167364254Y-68680366D01*
X167200000Y-68661859D01*
X167035745Y-68680366D01*
X166879733Y-68734957D01*
X166739774Y-68822899D01*
X166622899Y-68939774D01*
X166534957Y-69079733D01*
X166480366Y-69235745D01*
X166461859Y-69400000D01*
X147932264Y-69400000D01*
X147861252Y-69321133D01*
X147743730Y-69235748D01*
X147706752Y-69208882D01*
X147532288Y-69131206D01*
X147345487Y-69091500D01*
X147154513Y-69091500D01*
X147029979Y-69117970D01*
X146967711Y-69131206D01*
X146793246Y-69208883D01*
X146638747Y-69321133D01*
X146510958Y-69463057D01*
X146415472Y-69628443D01*
X146356458Y-69810070D01*
X146336496Y-69999999D01*
X142726147Y-69999999D01*
X142733504Y-69930000D01*
X142713542Y-69740072D01*
X142654527Y-69558444D01*
X142654527Y-69558443D01*
X142559041Y-69393057D01*
X142431252Y-69251133D01*
X142276753Y-69138883D01*
X142276752Y-69138882D01*
X142102288Y-69061206D01*
X141915487Y-69021500D01*
X141724513Y-69021500D01*
X141599978Y-69047970D01*
X141537711Y-69061206D01*
X141363246Y-69138883D01*
X141208747Y-69251133D01*
X141080958Y-69393057D01*
X140985472Y-69558443D01*
X140926458Y-69740070D01*
X140906496Y-69930000D01*
X127336667Y-69930000D01*
X127327100Y-69914774D01*
X127210225Y-69797899D01*
X127070266Y-69709957D01*
X126914254Y-69655366D01*
X126804750Y-69643028D01*
X126750000Y-69636859D01*
X126749999Y-69636859D01*
X126585745Y-69655366D01*
X126429733Y-69709957D01*
X126289774Y-69797899D01*
X126172899Y-69914774D01*
X126084957Y-70054733D01*
X126030366Y-70210745D01*
X126011859Y-70375000D01*
X115200500Y-70375000D01*
X115200500Y-67500000D01*
X141336496Y-67500000D01*
X141356458Y-67689929D01*
X141415472Y-67871556D01*
X141510958Y-68036942D01*
X141510960Y-68036944D01*
X141638747Y-68178866D01*
X141793248Y-68291118D01*
X141967712Y-68368794D01*
X142154513Y-68408500D01*
X142154515Y-68408500D01*
X142345485Y-68408500D01*
X142345487Y-68408500D01*
X142532288Y-68368794D01*
X142706752Y-68291118D01*
X142861253Y-68178866D01*
X142989040Y-68036944D01*
X143084527Y-67871556D01*
X143143542Y-67689928D01*
X143163504Y-67500000D01*
X143143542Y-67310072D01*
X143099740Y-67175264D01*
X143084527Y-67128443D01*
X143010370Y-67000000D01*
X144086496Y-67000000D01*
X144106458Y-67189929D01*
X144165472Y-67371556D01*
X144260958Y-67536942D01*
X144297118Y-67577102D01*
X144388747Y-67678866D01*
X144543248Y-67791118D01*
X144717712Y-67868794D01*
X144904513Y-67908500D01*
X144904515Y-67908500D01*
X145095485Y-67908500D01*
X145095487Y-67908500D01*
X145282288Y-67868794D01*
X145456752Y-67791118D01*
X145611253Y-67678866D01*
X145659754Y-67625000D01*
X146211496Y-67625000D01*
X146218320Y-67689928D01*
X146231458Y-67814929D01*
X146290472Y-67996556D01*
X146385958Y-68161942D01*
X146502267Y-68291116D01*
X146513747Y-68303866D01*
X146668248Y-68416118D01*
X146842712Y-68493794D01*
X147029513Y-68533500D01*
X147029515Y-68533500D01*
X147220485Y-68533500D01*
X147220487Y-68533500D01*
X147407288Y-68493794D01*
X147581752Y-68416118D01*
X147736253Y-68303866D01*
X147864040Y-68161944D01*
X147959527Y-67996556D01*
X148018542Y-67814928D01*
X148038504Y-67625000D01*
X148018542Y-67435072D01*
X147983460Y-67327102D01*
X147959527Y-67253443D01*
X147864041Y-67088057D01*
X147784754Y-66999999D01*
X148261859Y-66999999D01*
X148280366Y-67164254D01*
X148334957Y-67320266D01*
X148422899Y-67460225D01*
X148539774Y-67577100D01*
X148539776Y-67577101D01*
X148539777Y-67577102D01*
X148679733Y-67665042D01*
X148835748Y-67719634D01*
X149000000Y-67738141D01*
X149164252Y-67719634D01*
X149320267Y-67665042D01*
X149460223Y-67577102D01*
X149577102Y-67460223D01*
X149665042Y-67320267D01*
X149695593Y-67232954D01*
X149736971Y-67175264D01*
X149802971Y-67149102D01*
X149872639Y-67162775D01*
X149921210Y-67207536D01*
X149922900Y-67210226D01*
X150039774Y-67327100D01*
X150039776Y-67327101D01*
X150039777Y-67327102D01*
X150179733Y-67415042D01*
X150335748Y-67469634D01*
X150500000Y-67488141D01*
X150664252Y-67469634D01*
X150820267Y-67415042D01*
X150960223Y-67327102D01*
X151077102Y-67210223D01*
X151165042Y-67070267D01*
X151219634Y-66914252D01*
X151238141Y-66750000D01*
X151219634Y-66585748D01*
X151165042Y-66429733D01*
X151077102Y-66289777D01*
X151077101Y-66289776D01*
X151077100Y-66289774D01*
X150960225Y-66172899D01*
X150820266Y-66084957D01*
X150664254Y-66030366D01*
X150500000Y-66011859D01*
X150335745Y-66030366D01*
X150179733Y-66084957D01*
X150039774Y-66172899D01*
X149922899Y-66289774D01*
X149834958Y-66429732D01*
X149804406Y-66517044D01*
X149763027Y-66574736D01*
X149697026Y-66600898D01*
X149627359Y-66587224D01*
X149578788Y-66542461D01*
X149577099Y-66539773D01*
X149460225Y-66422899D01*
X149320266Y-66334957D01*
X149164254Y-66280366D01*
X149000000Y-66261859D01*
X148835745Y-66280366D01*
X148679733Y-66334957D01*
X148539774Y-66422899D01*
X148422899Y-66539774D01*
X148334957Y-66679733D01*
X148280366Y-66835745D01*
X148261859Y-66999999D01*
X147784754Y-66999999D01*
X147757412Y-66969633D01*
X147736253Y-66946134D01*
X147692371Y-66914252D01*
X147581753Y-66833883D01*
X147581752Y-66833882D01*
X147407288Y-66756206D01*
X147220487Y-66716500D01*
X147029513Y-66716500D01*
X146904979Y-66742970D01*
X146842711Y-66756206D01*
X146668246Y-66833883D01*
X146513747Y-66946133D01*
X146385958Y-67088057D01*
X146290472Y-67253443D01*
X146231458Y-67435070D01*
X146227825Y-67469634D01*
X146211496Y-67625000D01*
X145659754Y-67625000D01*
X145739040Y-67536944D01*
X145834527Y-67371556D01*
X145893542Y-67189928D01*
X145913504Y-67000000D01*
X145893542Y-66810072D01*
X145851192Y-66679733D01*
X145834527Y-66628443D01*
X145739041Y-66463057D01*
X145611252Y-66321133D01*
X145456753Y-66208883D01*
X145456752Y-66208882D01*
X145282288Y-66131206D01*
X145095487Y-66091500D01*
X144904513Y-66091500D01*
X144779979Y-66117970D01*
X144717711Y-66131206D01*
X144543246Y-66208883D01*
X144388747Y-66321133D01*
X144260958Y-66463057D01*
X144165472Y-66628443D01*
X144106458Y-66810070D01*
X144086496Y-67000000D01*
X143010370Y-67000000D01*
X142989041Y-66963057D01*
X142861252Y-66821133D01*
X142708600Y-66710225D01*
X142706752Y-66708882D01*
X142532288Y-66631206D01*
X142345487Y-66591500D01*
X142154513Y-66591500D01*
X142029978Y-66617970D01*
X141967711Y-66631206D01*
X141793246Y-66708883D01*
X141638747Y-66821133D01*
X141510958Y-66963057D01*
X141415472Y-67128443D01*
X141356458Y-67310070D01*
X141336496Y-67500000D01*
X115200500Y-67500000D01*
X115200500Y-66250000D01*
X139761859Y-66250000D01*
X139766341Y-66289774D01*
X139780366Y-66414254D01*
X139834957Y-66570266D01*
X139922899Y-66710225D01*
X140039774Y-66827100D01*
X140039776Y-66827101D01*
X140039777Y-66827102D01*
X140179733Y-66915042D01*
X140335748Y-66969634D01*
X140500000Y-66988141D01*
X140664252Y-66969634D01*
X140820267Y-66915042D01*
X140960223Y-66827102D01*
X141077102Y-66710223D01*
X141165042Y-66570267D01*
X141219634Y-66414252D01*
X141238141Y-66250000D01*
X141219634Y-66085748D01*
X141165042Y-65929733D01*
X141077102Y-65789777D01*
X141077101Y-65789776D01*
X141077100Y-65789774D01*
X140960225Y-65672899D01*
X140820266Y-65584957D01*
X140664254Y-65530366D01*
X140554750Y-65518027D01*
X140500000Y-65511859D01*
X140499999Y-65511859D01*
X140335745Y-65530366D01*
X140179733Y-65584957D01*
X140039774Y-65672899D01*
X139922899Y-65789774D01*
X139834957Y-65929733D01*
X139780366Y-66085745D01*
X139780366Y-66085748D01*
X139761859Y-66250000D01*
X115200500Y-66250000D01*
X115200500Y-65498638D01*
X156101500Y-65498638D01*
X156108011Y-65559201D01*
X156117618Y-65584957D01*
X156159111Y-65696205D01*
X156246738Y-65813261D01*
X156363794Y-65900888D01*
X156363795Y-65900888D01*
X156363796Y-65900889D01*
X156500799Y-65951989D01*
X156561362Y-65958500D01*
X156564731Y-65958500D01*
X158355269Y-65958500D01*
X158358638Y-65958500D01*
X158419201Y-65951989D01*
X158556204Y-65900889D01*
X158673261Y-65813261D01*
X158760889Y-65696204D01*
X158804999Y-65577941D01*
X158847545Y-65521107D01*
X158914065Y-65496296D01*
X158983439Y-65511387D01*
X159015753Y-65536635D01*
X159053780Y-65577943D01*
X159076762Y-65602908D01*
X159196629Y-65696205D01*
X159254424Y-65741189D01*
X159452426Y-65848342D01*
X159665365Y-65921444D01*
X159887431Y-65958500D01*
X159887434Y-65958500D01*
X160112566Y-65958500D01*
X160112569Y-65958500D01*
X160334635Y-65921444D01*
X160547574Y-65848342D01*
X160745576Y-65741189D01*
X160923240Y-65602906D01*
X161075722Y-65437268D01*
X161164518Y-65301354D01*
X161218521Y-65255268D01*
X161288869Y-65245693D01*
X161353226Y-65275670D01*
X161375480Y-65301353D01*
X161464278Y-65437268D01*
X161576525Y-65559200D01*
X161616762Y-65602908D01*
X161736629Y-65696205D01*
X161794424Y-65741189D01*
X161992426Y-65848342D01*
X162205365Y-65921444D01*
X162427431Y-65958500D01*
X162427434Y-65958500D01*
X162652566Y-65958500D01*
X162652569Y-65958500D01*
X162874635Y-65921444D01*
X163087574Y-65848342D01*
X163285576Y-65741189D01*
X163463240Y-65602906D01*
X163615722Y-65437268D01*
X163738860Y-65248791D01*
X163829296Y-65042616D01*
X163884564Y-64824368D01*
X163903156Y-64600000D01*
X163884564Y-64375632D01*
X163829296Y-64157384D01*
X163738860Y-63951209D01*
X163615722Y-63762732D01*
X163463240Y-63597094D01*
X163463239Y-63597093D01*
X163463237Y-63597091D01*
X163285578Y-63458812D01*
X163087573Y-63351657D01*
X162934510Y-63299111D01*
X162874635Y-63278556D01*
X162652569Y-63241500D01*
X162427431Y-63241500D01*
X162205365Y-63278556D01*
X162205362Y-63278556D01*
X162205362Y-63278557D01*
X161992426Y-63351657D01*
X161794421Y-63458812D01*
X161616762Y-63597091D01*
X161464278Y-63762731D01*
X161375483Y-63898643D01*
X161321479Y-63944731D01*
X161251131Y-63954306D01*
X161186774Y-63924328D01*
X161164517Y-63898643D01*
X161075721Y-63762731D01*
X161015945Y-63697798D01*
X160923240Y-63597094D01*
X160923239Y-63597093D01*
X160923237Y-63597091D01*
X160745578Y-63458812D01*
X160547573Y-63351657D01*
X160394510Y-63299111D01*
X160334635Y-63278556D01*
X160112569Y-63241500D01*
X159887431Y-63241500D01*
X159665365Y-63278556D01*
X159665362Y-63278556D01*
X159665362Y-63278557D01*
X159452426Y-63351657D01*
X159254421Y-63458812D01*
X159076758Y-63597094D01*
X159015754Y-63663362D01*
X158954901Y-63699933D01*
X158883937Y-63697798D01*
X158825392Y-63657636D01*
X158804998Y-63622056D01*
X158795688Y-63597094D01*
X158760889Y-63503796D01*
X158734687Y-63468794D01*
X158673261Y-63386738D01*
X158556205Y-63299111D01*
X158487702Y-63273561D01*
X158419201Y-63248011D01*
X158358638Y-63241500D01*
X156561362Y-63241500D01*
X156558013Y-63241859D01*
X156558013Y-63241860D01*
X156500799Y-63248011D01*
X156363794Y-63299111D01*
X156246738Y-63386738D01*
X156159111Y-63503794D01*
X156124313Y-63597091D01*
X156108011Y-63640799D01*
X156101500Y-63701362D01*
X156101500Y-65498638D01*
X115200500Y-65498638D01*
X115200500Y-63725000D01*
X131561496Y-63725000D01*
X131571476Y-63819964D01*
X131581458Y-63914929D01*
X131640472Y-64096556D01*
X131735958Y-64261942D01*
X131838325Y-64375632D01*
X131863747Y-64403866D01*
X132018248Y-64516118D01*
X132192712Y-64593794D01*
X132379513Y-64633500D01*
X132379515Y-64633500D01*
X132570485Y-64633500D01*
X132570487Y-64633500D01*
X132757288Y-64593794D01*
X132931752Y-64516118D01*
X133086253Y-64403866D01*
X133214040Y-64261944D01*
X133309527Y-64096556D01*
X133368542Y-63914928D01*
X133388504Y-63725000D01*
X133368542Y-63535072D01*
X133321768Y-63391118D01*
X133309527Y-63353443D01*
X133249803Y-63249999D01*
X137836496Y-63249999D01*
X137856458Y-63439929D01*
X137915472Y-63621556D01*
X138010958Y-63786942D01*
X138010960Y-63786944D01*
X138138747Y-63928866D01*
X138293248Y-64041118D01*
X138467712Y-64118794D01*
X138654513Y-64158500D01*
X138654515Y-64158500D01*
X138845485Y-64158500D01*
X138845487Y-64158500D01*
X139032288Y-64118794D01*
X139206752Y-64041118D01*
X139361253Y-63928866D01*
X139489040Y-63786944D01*
X139584527Y-63621556D01*
X139643542Y-63439928D01*
X139663504Y-63250000D01*
X139643542Y-63060072D01*
X139584527Y-62878444D01*
X139584527Y-62878443D01*
X139489041Y-62713057D01*
X139387244Y-62600000D01*
X151686496Y-62600000D01*
X151706458Y-62789929D01*
X151765472Y-62971556D01*
X151860958Y-63136942D01*
X151955427Y-63241860D01*
X151988747Y-63278866D01*
X152143248Y-63391118D01*
X152317712Y-63468794D01*
X152504513Y-63508500D01*
X152504515Y-63508500D01*
X152695485Y-63508500D01*
X152695487Y-63508500D01*
X152882288Y-63468794D01*
X153056752Y-63391118D01*
X153211253Y-63278866D01*
X153339040Y-63136944D01*
X153434527Y-62971556D01*
X153493542Y-62789928D01*
X153513504Y-62600000D01*
X153493542Y-62410072D01*
X153434527Y-62228444D01*
X153434527Y-62228443D01*
X153339041Y-62063057D01*
X153211252Y-61921133D01*
X153056753Y-61808883D01*
X153056752Y-61808882D01*
X152882288Y-61731206D01*
X152695487Y-61691500D01*
X152504513Y-61691500D01*
X152379979Y-61717970D01*
X152317711Y-61731206D01*
X152177696Y-61793544D01*
X152164321Y-61799500D01*
X152143246Y-61808883D01*
X151988747Y-61921133D01*
X151860958Y-62063057D01*
X151765472Y-62228443D01*
X151706458Y-62410070D01*
X151686496Y-62600000D01*
X139387244Y-62600000D01*
X139361252Y-62571133D01*
X139206753Y-62458883D01*
X139206752Y-62458882D01*
X139032288Y-62381206D01*
X138845487Y-62341500D01*
X138654513Y-62341500D01*
X138529979Y-62367970D01*
X138467711Y-62381206D01*
X138293246Y-62458883D01*
X138138747Y-62571133D01*
X138010958Y-62713057D01*
X137915472Y-62878443D01*
X137856458Y-63060070D01*
X137836496Y-63249999D01*
X133249803Y-63249999D01*
X133214041Y-63188057D01*
X133086252Y-63046133D01*
X133009002Y-62990008D01*
X132931752Y-62933882D01*
X132757288Y-62856206D01*
X132570487Y-62816500D01*
X132379513Y-62816500D01*
X132254979Y-62842970D01*
X132192711Y-62856206D01*
X132018246Y-62933883D01*
X131863747Y-63046133D01*
X131735958Y-63188057D01*
X131640472Y-63353443D01*
X131581458Y-63535070D01*
X131563980Y-63701362D01*
X131561496Y-63725000D01*
X115200500Y-63725000D01*
X115200500Y-62321863D01*
X115220502Y-62253742D01*
X115274158Y-62207249D01*
X115317510Y-62196184D01*
X115770189Y-62163808D01*
X116279287Y-62090611D01*
X116781866Y-61981281D01*
X117275365Y-61836377D01*
X117757269Y-61656636D01*
X118225123Y-61442974D01*
X118676542Y-61196481D01*
X119109226Y-60918411D01*
X119520971Y-60610183D01*
X119909678Y-60273367D01*
X120273367Y-59909678D01*
X120610183Y-59520971D01*
X120918411Y-59109226D01*
X121196481Y-58676542D01*
X121442974Y-58225123D01*
X121656636Y-57757269D01*
X121836377Y-57275365D01*
X121981281Y-56781866D01*
X122090611Y-56279287D01*
X122163808Y-55770189D01*
X122196184Y-55317510D01*
X122220995Y-55250991D01*
X122277830Y-55208444D01*
X122321863Y-55200500D01*
X126673500Y-55200500D01*
X126741621Y-55220502D01*
G37*
%TD.AperFunction*%
%TD*%
M02*
