M48
; DRILL file {KiCad (6.0.8)} date Sat Apr  8 14:06:58 2023
; FORMAT={-:-/ absolute / metric / decimal}
; #@! TF.CreationDate,2023-04-08T14:06:58-07:00
; #@! TF.GenerationSoftware,Kicad,Pcbnew,(6.0.8)
; #@! TF.FileFunction,Plated,1,4,PTH
FMAT,2
METRIC
; #@! TA.AperFunction,Plated,PTH,ViaDrill
T1C0.200
; #@! TA.AperFunction,Plated,PTH,ViaDrill
T2C0.400
; #@! TA.AperFunction,Plated,PTH,ComponentDrill
T3C0.600
; #@! TA.AperFunction,Plated,PTH,ComponentDrill
T4C0.850
; #@! TA.AperFunction,Plated,PTH,ComponentDrill
T5C0.950
; #@! TA.AperFunction,Plated,PTH,ComponentDrill
T6C1.992
; #@! TA.AperFunction,Plated,PTH,ComponentDrill
T7C2.909
%
G90
G05
T1
X126.75Y-70.375
X129.25Y-82.0
X132.25Y-67.5
X134.612Y-86.638
X136.75Y-82.75
X140.5Y-66.25
X140.7Y-99.05
X141.0Y-84.25
X141.304Y-98.834
X143.3Y-99.15
X143.3Y-99.75
X145.0Y-91.0
X145.4Y-96.15
X146.25Y-90.25
X146.9Y-96.15
X148.65Y-96.65
X148.75Y-95.25
X149.0Y-67.0
X150.5Y-66.75
X152.0Y-73.0
X152.25Y-76.25
X154.5Y-90.5
X155.5Y-86.0
X156.25Y-79.0
X159.25Y-66.25
X159.25Y-81.5
X159.5Y-79.0
X160.5Y-72.75
T2
X116.75Y-73.0
X118.5Y-66.75
X123.5Y-72.75
X123.5Y-84.5
X123.5Y-86.0
X123.5Y-87.5
X123.5Y-89.0
X123.5Y-103.5
X123.875Y-67.25
X124.0Y-81.5
X125.5Y-102.0
X125.75Y-96.75
X126.25Y-104.0
X128.75Y-67.25
X129.0Y-63.25
X131.0Y-74.25
X132.475Y-63.725
X132.5Y-82.75
X134.19Y-63.86
X138.25Y-80.5
X138.75Y-63.25
X140.5Y-101.5
X141.82Y-69.93
X142.25Y-67.5
X142.5Y-72.25
X144.0Y-98.0
X144.387Y-102.362
X145.0Y-67.0
X145.0Y-72.75
X145.25Y-106.25
X147.125Y-67.625
X147.125Y-72.125
X147.25Y-70.0
X151.0Y-105.0
X154.25Y-101.5
X156.41Y-62.59
X159.5Y-88.75
X160.25Y-75.25
X160.5Y-70.25
X162.75Y-63.25
X164.25Y-104.5
X168.75Y-106.75
X169.5Y-102.25
X170.475Y-63.775
X170.5Y-85.5
X171.5Y-92.0
T4
X119.212Y-99.0
X119.212Y-104.0
T5
X164.5Y-76.725
X167.0Y-76.725
X169.5Y-76.725
T6
X119.765Y-77.75
X119.765Y-92.25
T7
X125.725Y-77.75
X125.725Y-92.25
T3
X116.162Y-98.0G85X116.862Y-98.0
G05
X116.862Y-105.0G85X116.162Y-105.0
G05
T0
M30
